<svg xmlns="http://www.w3.org/2000/svg"
    xmlns:xlink="http://www.w3.org/1999/xlink" width="1235" zoomAndPan="magnify" viewBox="0 0 926.136 356.25" height="475" preserveAspectRatio="xMidYMid meet" version="1.0">
    <defs>
<clipPath id="17009e8273">
    <path d="M794.2 4.65h129.504V55.1H794.2Zm0 0" clip-rule="nonzero"/>

        </clipPath>
<clipPath id="46014e66c5">
    <path d="M836 24.7h57.95v56.893h-57.95Zm0 0" clip-rule="nonzero"/>
</clipPath>
<clipPath id="6c868628d9">
    <path d="M760.564 4.65h29.45V19h-29.45Zm0 0" clip-rule="nonzero"/>
</clipPath>
<clipPath id="749284fc61">
    <path d="M760.693 19.327c0 -1.945 0.371 -3.815 1.113 -5.612a14.544 14.544 0 0 1 3.177 -4.753 14.483 14.483 0 0 1 4.75 -3.181 14.516 14.516 0 0 1 5.604 -1.113c1.941 0 3.81 0.37 5.603 1.113a14.521 14.521 0 0 1 4.75 3.181 14.478 14.478 0 0 1 3.173 4.754 14.487 14.487 0 0 1 1.117 5.611c0 1.945 -0.371 3.814 -1.117 5.611a14.516 14.516 0 0 1 -3.173 4.754 14.51 14.51 0 0 1 -4.75 3.177 14.451 14.451 0 0 1 -5.603 1.116c-1.941 0 -3.811 -0.37 -5.604 -1.116a14.472 14.472 0 0 1 -4.75 -3.177 14.584 14.584 0 0 1 -3.177 -4.754 14.553 14.553 0 0 1 -1.113 -5.611Zm0 0" clip-rule="nonzero"/>
</clipPath>
<clipPath id="08a866b8ff">
    <path d="M760.564 4.65h29.45V20.9h-29.45Zm0 0" clip-rule="nonzero"/>
</clipPath>
<clipPath id="ee8122e224">
    <path d="M760.693 19.327c0 -1.945 0.371 -3.815 1.113 -5.612a14.544 14.544 0 0 1 3.177 -4.753 14.483 14.483 0 0 1 4.75 -3.181 14.516 14.516 0 0 1 5.604 -1.113c1.941 0 3.81 0.37 5.603 1.113a14.521 14.521 0 0 1 4.75 3.181 14.478 14.478 0 0 1 3.173 4.754 14.487 14.487 0 0 1 1.117 5.611c0 1.945 -0.371 3.814 -1.117 5.611a14.516 14.516 0 0 1 -3.173 4.754 14.51 14.51 0 0 1 -4.75 3.177 14.451 14.451 0 0 1 -5.603 1.116c-1.941 0 -3.811 -0.37 -5.604 -1.116a14.472 14.472 0 0 1 -4.75 -3.177 14.584 14.584 0 0 1 -3.177 -4.754 14.553 14.553 0 0 1 -1.113 -5.611Zm0 0" clip-rule="nonzero"/>
</clipPath>
<clipPath id="df58af9a9d">
    <path d="M760.564 4.65h29.45V21.85h-29.45Zm0 0" clip-rule="nonzero"/>
</clipPath>
<clipPath id="9d4f89e14c">
    <path d="M760.693 19.327c0 -1.945 0.371 -3.815 1.113 -5.612a14.544 14.544 0 0 1 3.177 -4.753 14.483 14.483 0 0 1 4.75 -3.181 14.516 14.516 0 0 1 5.604 -1.113c1.941 0 3.81 0.37 5.603 1.113a14.521 14.521 0 0 1 4.75 3.181 14.478 14.478 0 0 1 3.173 4.754 14.487 14.487 0 0 1 1.117 5.611c0 1.945 -0.371 3.814 -1.117 5.611a14.516 14.516 0 0 1 -3.173 4.754 14.51 14.51 0 0 1 -4.75 3.177 14.451 14.451 0 0 1 -5.603 1.116c-1.941 0 -3.811 -0.37 -5.604 -1.116a14.472 14.472 0 0 1 -4.75 -3.177 14.584 14.584 0 0 1 -3.177 -4.754 14.553 14.553 0 0 1 -1.113 -5.611Zm0 0" clip-rule="nonzero"/>
</clipPath>
<clipPath id="bd77ab7584">
    <path d="M760.564 4.65h29.45V23.75h-29.45Zm0 0" clip-rule="nonzero"/>
</clipPath>
<clipPath id="6a4c284291">
    <path d="M760.693 19.327c0 -1.945 0.371 -3.815 1.113 -5.612a14.544 14.544 0 0 1 3.177 -4.753 14.483 14.483 0 0 1 4.75 -3.181 14.516 14.516 0 0 1 5.604 -1.113c1.941 0 3.81 0.37 5.603 1.113a14.521 14.521 0 0 1 4.75 3.181 14.478 14.478 0 0 1 3.173 4.754 14.487 14.487 0 0 1 1.117 5.611c0 1.945 -0.371 3.814 -1.117 5.611a14.516 14.516 0 0 1 -3.173 4.754 14.51 14.51 0 0 1 -4.75 3.177 14.451 14.451 0 0 1 -5.603 1.116c-1.941 0 -3.811 -0.37 -5.604 -1.116a14.472 14.472 0 0 1 -4.75 -3.177 14.584 14.584 0 0 1 -3.177 -4.754 14.553 14.553 0 0 1 -1.113 -5.611Zm0 0" clip-rule="nonzero"/>
</clipPath>
<clipPath id="e59aa0309e">
    <path d="M760.564 4.65h29.45V24.7h-29.45Zm0 0" clip-rule="nonzero"/>
</clipPath>
<clipPath id="b786dcc8db">
    <path d="M760.693 19.327c0 -1.945 0.371 -3.815 1.113 -5.612a14.544 14.544 0 0 1 3.177 -4.753 14.483 14.483 0 0 1 4.75 -3.181 14.516 14.516 0 0 1 5.604 -1.113c1.941 0 3.81 0.37 5.603 1.113a14.521 14.521 0 0 1 4.75 3.181 14.478 14.478 0 0 1 3.173 4.754 14.487 14.487 0 0 1 1.117 5.611c0 1.945 -0.371 3.814 -1.117 5.611a14.516 14.516 0 0 1 -3.173 4.754 14.51 14.51 0 0 1 -4.75 3.177 14.451 14.451 0 0 1 -5.603 1.116c-1.941 0 -3.811 -0.37 -5.604 -1.116a14.472 14.472 0 0 1 -4.75 -3.177 14.584 14.584 0 0 1 -3.177 -4.754 14.553 14.553 0 0 1 -1.113 -5.611Zm0 0" clip-rule="nonzero"/>
</clipPath>
<clipPath id="9309911bee">
    <path d="M760.564 4.65h29.45V26.6h-29.45Zm0 0" clip-rule="nonzero"/>
</clipPath>
<clipPath id="93f0094bb4">
    <path d="M760.693 19.327c0 -1.945 0.371 -3.815 1.113 -5.612a14.544 14.544 0 0 1 3.177 -4.753 14.483 14.483 0 0 1 4.75 -3.181 14.516 14.516 0 0 1 5.604 -1.113c1.941 0 3.81 0.37 5.603 1.113a14.521 14.521 0 0 1 4.75 3.181 14.478 14.478 0 0 1 3.173 4.754 14.487 14.487 0 0 1 1.117 5.611c0 1.945 -0.371 3.814 -1.117 5.611a14.516 14.516 0 0 1 -3.173 4.754 14.51 14.51 0 0 1 -4.75 3.177 14.451 14.451 0 0 1 -5.603 1.116c-1.941 0 -3.811 -0.37 -5.604 -1.116a14.472 14.472 0 0 1 -4.75 -3.177 14.584 14.584 0 0 1 -3.177 -4.754 14.553 14.553 0 0 1 -1.113 -5.611Zm0 0" clip-rule="nonzero"/>
</clipPath>
<clipPath id="6024600fc2">
    <path d="M760.564 4.65h29.45V28.5h-29.45Zm0 0" clip-rule="nonzero"/>
</clipPath>
<clipPath id="a5a23d25e4">
    <path d="M760.693 19.327c0 -1.945 0.371 -3.815 1.113 -5.612a14.544 14.544 0 0 1 3.177 -4.753 14.483 14.483 0 0 1 4.75 -3.181 14.516 14.516 0 0 1 5.604 -1.113c1.941 0 3.81 0.37 5.603 1.113a14.521 14.521 0 0 1 4.75 3.181 14.478 14.478 0 0 1 3.173 4.754 14.487 14.487 0 0 1 1.117 5.611c0 1.945 -0.371 3.814 -1.117 5.611a14.516 14.516 0 0 1 -3.173 4.754 14.51 14.51 0 0 1 -4.75 3.177 14.451 14.451 0 0 1 -5.603 1.116c-1.941 0 -3.811 -0.37 -5.604 -1.116a14.472 14.472 0 0 1 -4.75 -3.177 14.584 14.584 0 0 1 -3.177 -4.754 14.553 14.553 0 0 1 -1.113 -5.611Zm0 0" clip-rule="nonzero"/>
</clipPath>
<clipPath id="192da822a0">
    <path d="M760.564 5.7h29.45v23.75h-29.45Zm0 0" clip-rule="nonzero"/>
</clipPath>
<clipPath id="9bb72d2f4b">
    <path d="M760.693 19.327c0 -1.945 0.371 -3.815 1.113 -5.612a14.544 14.544 0 0 1 3.177 -4.753 14.483 14.483 0 0 1 4.75 -3.181 14.516 14.516 0 0 1 5.604 -1.113c1.941 0 3.81 0.37 5.603 1.113a14.521 14.521 0 0 1 4.75 3.181 14.478 14.478 0 0 1 3.173 4.754 14.487 14.487 0 0 1 1.117 5.611c0 1.945 -0.371 3.814 -1.117 5.611a14.516 14.516 0 0 1 -3.173 4.754 14.51 14.51 0 0 1 -4.75 3.177 14.451 14.451 0 0 1 -5.603 1.116c-1.941 0 -3.811 -0.37 -5.604 -1.116a14.472 14.472 0 0 1 -4.75 -3.177 14.584 14.584 0 0 1 -3.177 -4.754 14.553 14.553 0 0 1 -1.113 -5.611Zm0 0" clip-rule="nonzero"/>
</clipPath>
<clipPath id="c9f902fb40">
    <path d="M760.564 6.65h29.45v24.7h-29.45Zm0 0" clip-rule="nonzero"/>
</clipPath>
<clipPath id="0fe83029f9">
    <path d="M760.693 19.327c0 -1.945 0.371 -3.815 1.113 -5.612a14.544 14.544 0 0 1 3.177 -4.753 14.483 14.483 0 0 1 4.75 -3.181 14.516 14.516 0 0 1 5.604 -1.113c1.941 0 3.81 0.37 5.603 1.113a14.521 14.521 0 0 1 4.75 3.181 14.478 14.478 0 0 1 3.173 4.754 14.487 14.487 0 0 1 1.117 5.611c0 1.945 -0.371 3.814 -1.117 5.611a14.516 14.516 0 0 1 -3.173 4.754 14.51 14.51 0 0 1 -4.75 3.177 14.451 14.451 0 0 1 -5.603 1.116c-1.941 0 -3.811 -0.37 -5.604 -1.116a14.472 14.472 0 0 1 -4.75 -3.177 14.584 14.584 0 0 1 -3.177 -4.754 14.553 14.553 0 0 1 -1.113 -5.611Zm0 0" clip-rule="nonzero"/>
</clipPath>
<clipPath id="2a6c5dbabe">
    <path d="M760.564 8.55h29.45v23.75h-29.45Zm0 0" clip-rule="nonzero"/>
</clipPath>
<clipPath id="e14fff8757">
    <path d="M760.693 19.327c0 -1.945 0.371 -3.815 1.113 -5.612a14.544 14.544 0 0 1 3.177 -4.753 14.483 14.483 0 0 1 4.75 -3.181 14.516 14.516 0 0 1 5.604 -1.113c1.941 0 3.81 0.37 5.603 1.113a14.521 14.521 0 0 1 4.75 3.181 14.478 14.478 0 0 1 3.173 4.754 14.487 14.487 0 0 1 1.117 5.611c0 1.945 -0.371 3.814 -1.117 5.611a14.516 14.516 0 0 1 -3.173 4.754 14.51 14.51 0 0 1 -4.75 3.177 14.451 14.451 0 0 1 -5.603 1.116c-1.941 0 -3.811 -0.37 -5.604 -1.116a14.472 14.472 0 0 1 -4.75 -3.177 14.584 14.584 0 0 1 -3.177 -4.754 14.553 14.553 0 0 1 -1.113 -5.611Zm0 0" clip-rule="nonzero"/>
</clipPath>
<clipPath id="cc02a8c72e">
    <path d="M760.564 9.5h29.45v24.552h-29.45Zm0 0" clip-rule="nonzero"/>
</clipPath>
<clipPath id="0685891506">
    <path d="M760.693 19.327c0 -1.945 0.371 -3.815 1.113 -5.612a14.544 14.544 0 0 1 3.177 -4.753 14.483 14.483 0 0 1 4.75 -3.181 14.516 14.516 0 0 1 5.604 -1.113c1.941 0 3.81 0.37 5.603 1.113a14.521 14.521 0 0 1 4.75 3.181 14.478 14.478 0 0 1 3.173 4.754 14.487 14.487 0 0 1 1.117 5.611c0 1.945 -0.371 3.814 -1.117 5.611a14.516 14.516 0 0 1 -3.173 4.754 14.51 14.51 0 0 1 -4.75 3.177 14.451 14.451 0 0 1 -5.603 1.116c-1.941 0 -3.811 -0.37 -5.604 -1.116a14.472 14.472 0 0 1 -4.75 -3.177 14.584 14.584 0 0 1 -3.177 -4.754 14.553 14.553 0 0 1 -1.113 -5.611Zm0 0" clip-rule="nonzero"/>
</clipPath>
<clipPath id="b27c167056">
    <path d="M760.564 11.4h29.45v22.652h-29.45Zm0 0" clip-rule="nonzero"/>
</clipPath>
<clipPath id="3125847e30">
    <path d="M760.693 19.327c0 -1.945 0.371 -3.815 1.113 -5.612a14.544 14.544 0 0 1 3.177 -4.753 14.483 14.483 0 0 1 4.75 -3.181 14.516 14.516 0 0 1 5.604 -1.113c1.941 0 3.81 0.37 5.603 1.113a14.521 14.521 0 0 1 4.75 3.181 14.478 14.478 0 0 1 3.173 4.754 14.487 14.487 0 0 1 1.117 5.611c0 1.945 -0.371 3.814 -1.117 5.611a14.516 14.516 0 0 1 -3.173 4.754 14.51 14.51 0 0 1 -4.75 3.177 14.451 14.451 0 0 1 -5.603 1.116c-1.941 0 -3.811 -0.37 -5.604 -1.116a14.472 14.472 0 0 1 -4.75 -3.177 14.584 14.584 0 0 1 -3.177 -4.754 14.553 14.553 0 0 1 -1.113 -5.611Zm0 0" clip-rule="nonzero"/>
</clipPath>
<clipPath id="517677a75e">
    <path d="M760.564 13.3h29.45v20.752h-29.45Zm0 0" clip-rule="nonzero"/>
</clipPath>
<clipPath id="9f557d828d">
    <path d="M760.693 19.327c0 -1.945 0.371 -3.815 1.113 -5.612a14.544 14.544 0 0 1 3.177 -4.753 14.483 14.483 0 0 1 4.75 -3.181 14.516 14.516 0 0 1 5.604 -1.113c1.941 0 3.81 0.37 5.603 1.113a14.521 14.521 0 0 1 4.75 3.181 14.478 14.478 0 0 1 3.173 4.754 14.487 14.487 0 0 1 1.117 5.611c0 1.945 -0.371 3.814 -1.117 5.611a14.516 14.516 0 0 1 -3.173 4.754 14.51 14.51 0 0 1 -4.75 3.177 14.451 14.451 0 0 1 -5.603 1.116c-1.941 0 -3.811 -0.37 -5.604 -1.116a14.472 14.472 0 0 1 -4.75 -3.177 14.584 14.584 0 0 1 -3.177 -4.754 14.553 14.553 0 0 1 -1.113 -5.611Zm0 0" clip-rule="nonzero"/>
</clipPath>
<clipPath id="b8072266c1">
    <path d="M760.564 14.25h29.45v19.802h-29.45Zm0 0" clip-rule="nonzero"/>
</clipPath>
<clipPath id="82bfcc7cfd">
    <path d="M760.693 19.327c0 -1.945 0.371 -3.815 1.113 -5.612a14.544 14.544 0 0 1 3.177 -4.753 14.483 14.483 0 0 1 4.75 -3.181 14.516 14.516 0 0 1 5.604 -1.113c1.941 0 3.81 0.37 5.603 1.113a14.521 14.521 0 0 1 4.75 3.181 14.478 14.478 0 0 1 3.173 4.754 14.487 14.487 0 0 1 1.117 5.611c0 1.945 -0.371 3.814 -1.117 5.611a14.516 14.516 0 0 1 -3.173 4.754 14.51 14.51 0 0 1 -4.75 3.177 14.451 14.451 0 0 1 -5.603 1.116c-1.941 0 -3.811 -0.37 -5.604 -1.116a14.472 14.472 0 0 1 -4.75 -3.177 14.584 14.584 0 0 1 -3.177 -4.754 14.553 14.553 0 0 1 -1.113 -5.611Zm0 0" clip-rule="nonzero"/>
</clipPath>
<clipPath id="05de6b3cd0">
    <path d="M760.564 16.15h29.45v17.902h-29.45Zm0 0" clip-rule="nonzero"/>
</clipPath>
<clipPath id="d3fd040fe4">
    <path d="M760.693 19.327c0 -1.945 0.371 -3.815 1.113 -5.612a14.544 14.544 0 0 1 3.177 -4.753 14.483 14.483 0 0 1 4.75 -3.181 14.516 14.516 0 0 1 5.604 -1.113c1.941 0 3.81 0.37 5.603 1.113a14.521 14.521 0 0 1 4.75 3.181 14.478 14.478 0 0 1 3.173 4.754 14.487 14.487 0 0 1 1.117 5.611c0 1.945 -0.371 3.814 -1.117 5.611a14.516 14.516 0 0 1 -3.173 4.754 14.51 14.51 0 0 1 -4.75 3.177 14.451 14.451 0 0 1 -5.603 1.116c-1.941 0 -3.811 -0.37 -5.604 -1.116a14.472 14.472 0 0 1 -4.75 -3.177 14.584 14.584 0 0 1 -3.177 -4.754 14.553 14.553 0 0 1 -1.113 -5.611Zm0 0" clip-rule="nonzero"/>
</clipPath>
<clipPath id="02c3909e7f">
    <path d="M760.564 17.1h29.45v16.952h-29.45Zm0 0" clip-rule="nonzero"/>
</clipPath>
<clipPath id="032d1fcfc9">
    <path d="M760.693 19.327c0 -1.945 0.371 -3.815 1.113 -5.612a14.544 14.544 0 0 1 3.177 -4.753 14.483 14.483 0 0 1 4.75 -3.181 14.516 14.516 0 0 1 5.604 -1.113c1.941 0 3.81 0.37 5.603 1.113a14.521 14.521 0 0 1 4.75 3.181 14.478 14.478 0 0 1 3.173 4.754 14.487 14.487 0 0 1 1.117 5.611c0 1.945 -0.371 3.814 -1.117 5.611a14.516 14.516 0 0 1 -3.173 4.754 14.51 14.51 0 0 1 -4.75 3.177 14.451 14.451 0 0 1 -5.603 1.116c-1.941 0 -3.811 -0.37 -5.604 -1.116a14.472 14.472 0 0 1 -4.75 -3.177 14.584 14.584 0 0 1 -3.177 -4.754 14.553 14.553 0 0 1 -1.113 -5.611Zm0 0" clip-rule="nonzero"/>
</clipPath>
<clipPath id="6941e25110">
    <path d="M760.564 19h29.45v15.052h-29.45Zm0 0" clip-rule="nonzero"/>
</clipPath>
<clipPath id="90c2b01cec">
    <path d="M760.693 19.327c0 -1.945 0.371 -3.815 1.113 -5.612a14.544 14.544 0 0 1 3.177 -4.753 14.483 14.483 0 0 1 4.75 -3.181 14.516 14.516 0 0 1 5.604 -1.113c1.941 0 3.81 0.37 5.603 1.113a14.521 14.521 0 0 1 4.75 3.181 14.478 14.478 0 0 1 3.173 4.754 14.487 14.487 0 0 1 1.117 5.611c0 1.945 -0.371 3.814 -1.117 5.611a14.516 14.516 0 0 1 -3.173 4.754 14.51 14.51 0 0 1 -4.75 3.177 14.451 14.451 0 0 1 -5.603 1.116c-1.941 0 -3.811 -0.37 -5.604 -1.116a14.472 14.472 0 0 1 -4.75 -3.177 14.584 14.584 0 0 1 -3.177 -4.754 14.553 14.553 0 0 1 -1.113 -5.611Zm0 0" clip-rule="nonzero"/>
</clipPath>
<clipPath id="4bd1c765af">
    <path d="M0 0.022h254.6V147.25H0Zm0 0" clip-rule="nonzero"/>
</clipPath>
<clipPath id="34c5244b01">
    <path d="M213.758 -83.485 265.492 93.632 4.264 169.927 -47.467 -7.185Zm0 0" clip-rule="nonzero"/>
</clipPath>
<clipPath id="f10d38cc12">
    <path d="M213.758 -83.485 265.492 93.632 4.264 169.927 -47.467 -7.185Zm0 0" clip-rule="nonzero"/>
</clipPath>
<clipPath id="fe97f67b43">
    <path d="M0 229.9h160.55v126.328H0Zm0 0" clip-rule="nonzero"/>
</clipPath>
<clipPath id="ddfb814498">
    <path d="M4.75 0.022h274.55V119.7H4.75Zm0 0" clip-rule="nonzero"/>
</clipPath>
<clipPath id="b2e7704824">
    <path d="m238.465 -110.708 51.734 177.115 -261.228 76.297 -51.73 -177.116Zm0 0" clip-rule="nonzero"/>
</clipPath>
<clipPath id="8cb8a6e156">
    <path d="m238.465 -110.708 51.734 177.115 -261.228 76.297 -51.73 -177.116Zm0 0" clip-rule="nonzero"/>
</clipPath>
<clipPath id="8ae84b0741">
    <path d="M760.564 209h165.46v147.087H760.564Zm0 0" clip-rule="nonzero"/>

        </clipPath>
<clipPath id="c3c8a7d7db">
    <path d="M782.8 179.55h143.224v133H782.8Zm0 0" clip-rule="nonzero"/>

        </clipPath>
    </defs>
<g clip-path="url(#17009e8273)">
    <path fill="#00bf63" d="M923.526 54.28H819.869c-0.813 0 -1.625 -0.041 -2.435 -0.123a24.717 24.717 0 0 1 -7.077 -1.767 24.92 24.92 0 0 1 -6.26 -3.744 25.081 25.081 0 0 1 -1.806 -1.632 26.034 26.034 0 0 1 -1.641 -1.803 24.907 24.907 0 0 1 -5.165 -10.899 25.114 25.114 0 0 1 -0.356 -2.408 24.171 24.171 0 0 1 -0.119 -2.431c0 -0.812 0.037 -1.622 0.119 -2.43a24.387 24.387 0 0 1 0.95 -4.769 24.793 24.793 0 0 1 1.866 -4.494c0.383 -0.716 0.802 -1.414 1.254 -2.09 0.453 -0.674 0.936 -1.324 1.452 -1.955a26.034 26.034 0 0 1 1.641 -1.803 25.165 25.165 0 0 1 3.766 -3.084c0.679 -0.453 1.377 -0.869 2.094 -1.251 0.719 -0.382 1.454 -0.731 2.204 -1.043a26.482 26.482 0 0 1 2.301 -0.82 25.878 25.878 0 0 1 2.364 -0.589 24.141 24.141 0 0 1 2.416 -0.357 24.244 24.244 0 0 1 2.435 -0.119h103.657Zm0 0" fill-opacity="1" fill-rule="nonzero"/>
</g>
<g clip-path="url(#46014e66c5)">
    <path fill="#000000" d="M893.167 53.304c0 0.927 -0.045 1.852 -0.138 2.775a27.437 27.437 0 0 1 -0.408 2.75 28.029 28.029 0 0 1 -1.614 5.31 28.255 28.255 0 0 1 -4.282 7.129 28.047 28.047 0 0 1 -1.871 2.056 27.293 27.293 0 0 1 -2.062 1.866 26.378 26.378 0 0 1 -2.238 1.656 27.207 27.207 0 0 1 -2.385 1.429c-0.821 0.437 -1.659 0.834 -2.52 1.188 -0.857 0.356 -1.733 0.668 -2.619 0.939 -0.891 0.267 -1.793 0.494 -2.702 0.674 -0.913 0.179 -1.83 0.316 -2.758 0.408a28.973 28.973 0 0 1 -5.562 0 29.839 29.839 0 0 1 -2.753 -0.408c-0.913 -0.18 -1.814 -0.408 -2.702 -0.674a28.661 28.661 0 0 1 -5.139 -2.126 27.269 27.269 0 0 1 -2.39 -1.429 28.029 28.029 0 0 1 -4.301 -3.522 28.047 28.047 0 0 1 -3.529 -4.29 28.255 28.255 0 0 1 -2.624 -4.894 28.49 28.49 0 0 1 -0.935 -2.616 28.047 28.047 0 0 1 -1.226 -8.22c0 -0.927 0.048 -1.852 0.138 -2.776a28.047 28.047 0 0 1 1.088 -5.444 28.49 28.49 0 0 1 0.935 -2.616c0.356 -0.857 0.753 -1.692 1.191 -2.512 0.438 -0.817 0.917 -1.611 1.433 -2.383a27.776 27.776 0 0 1 1.659 -2.231 27.36 27.36 0 0 1 1.871 -2.06 28.029 28.029 0 0 1 4.301 -3.522 28.215 28.215 0 0 1 4.906 -2.616 28.661 28.661 0 0 1 2.624 -0.939c0.886 -0.267 1.789 -0.494 2.702 -0.675a28.617 28.617 0 0 1 5.537 -0.541 28.692 28.692 0 0 1 5.537 0.541c0.909 0.181 1.811 0.408 2.702 0.674 0.886 0.272 1.762 0.583 2.619 0.941a28.151 28.151 0 0 1 4.906 2.616 27.205 27.205 0 0 1 2.238 1.654c0.72 0.586 1.406 1.21 2.063 1.867a27.36 27.36 0 0 1 1.871 2.06 27.776 27.776 0 0 1 1.659 2.231 27.741 27.741 0 0 1 1.432 2.383 28.517 28.517 0 0 1 2.13 5.128c0.272 0.887 0.494 1.785 0.676 2.694 0.181 0.912 0.319 1.826 0.408 2.75 0.092 0.923 0.137 1.848 0.137 2.775Zm0 0" fill-opacity="1" fill-rule="nonzero"/>
</g>
<g clip-path="url(#6c868628d9)">
    <g clip-path="url(#749284fc61)">
        <path fill="#000000" d="M804.806 18.729 760.019 -3.915l0.259 -0.527 44.791 22.644Zm0 0" fill-opacity="1" fill-rule="nonzero"/>
    </g>
</g>
<g clip-path="url(#08a866b8ff)">
    <g clip-path="url(#ee8122e224)">
        <path fill="#000000" d="M803.83 20.213 759.042 -2.431l0.264 -0.522 44.791 22.644Zm0 0" fill-opacity="1" fill-rule="nonzero"/>
    </g>
</g>
<g clip-path="url(#df58af9a9d)">
    <g clip-path="url(#9d4f89e14c)">
        <path fill="#000000" d="M802.857 21.702 758.072 -0.946l0.263 -0.527 44.792 22.652Zm0 0" fill-opacity="1" fill-rule="nonzero"/>
    </g>
</g>
<g clip-path="url(#bd77ab7584)">
    <g clip-path="url(#6a4c284291)">
        <path fill="#000000" d="M801.889 23.182 757.098 0.538l0.264 -0.522 44.791 22.648Zm0 0" fill-opacity="1" fill-rule="nonzero"/>
    </g>
</g>
<g clip-path="url(#e59aa0309e)">
    <g clip-path="url(#b786dcc8db)">
        <path fill="#000000" d="M800.917 24.671 756.126 2.026l0.263 -0.523 44.792 22.644Zm0 0" fill-opacity="1" fill-rule="nonzero"/>
    </g>
</g>
<g clip-path="url(#9309911bee)">
    <g clip-path="url(#93f0094bb4)">
        <path fill="#000000" d="m799.945 26.154 -44.792 -22.648 0.264 -0.519 44.791 22.643Zm0 0" fill-opacity="1" fill-rule="nonzero"/>
    </g>
</g>
<g clip-path="url(#6024600fc2)">
    <g clip-path="url(#a5a23d25e4)">
        <path fill="#000000" d="m798.972 27.643 -44.791 -22.648 0.267 -0.523 44.788 22.648Zm0 0" fill-opacity="1" fill-rule="nonzero"/>
    </g>
</g>
<g clip-path="url(#192da822a0)">
    <g clip-path="url(#9bb72d2f4b)">
        <path fill="#000000" d="M798 29.123 753.209 6.479l0.263 -0.522 44.791 22.643Zm0 0" fill-opacity="1" fill-rule="nonzero"/>
    </g>
</g>
<g clip-path="url(#c9f902fb40)">
    <g clip-path="url(#0fe83029f9)">
        <path fill="#000000" d="M797.028 30.612 752.237 7.968l0.267 -0.523 44.788 22.644Zm0 0" fill-opacity="1" fill-rule="nonzero"/>
    </g>
</g>
<g clip-path="url(#2a6c5dbabe)">
    <g clip-path="url(#e14fff8757)">
        <path fill="#000000" d="m796.055 32.096 -44.791 -22.648 0.263 -0.52 44.788 22.644Zm0 0" fill-opacity="1" fill-rule="nonzero"/>
    </g>
</g>
<g clip-path="url(#cc02a8c72e)">
    <g clip-path="url(#0685891506)">
        <path fill="#000000" d="m795.083 33.584 -44.795 -22.648 0.268 -0.523 44.791 22.648Zm0 0" fill-opacity="1" fill-rule="nonzero"/>
    </g>
</g>
<g clip-path="url(#b27c167056)">
    <g clip-path="url(#3125847e30)">
        <path fill="#000000" d="m794.107 35.064 -44.787 -22.644 0.263 -0.522 44.792 22.643Zm0 0" fill-opacity="1" fill-rule="nonzero"/>
    </g>
</g>
<g clip-path="url(#517677a75e)">
    <g clip-path="url(#9f557d828d)">
        <path fill="#000000" d="M793.135 36.553 748.347 13.908l0.264 -0.523 44.791 22.644Zm0 0" fill-opacity="1" fill-rule="nonzero"/>
    </g>
</g>
<g clip-path="url(#b8072266c1)">
    <g clip-path="url(#82bfcc7cfd)">
        <path fill="#000000" d="M792.162 38.038 747.375 15.39l0.263 -0.521 44.792 22.644Zm0 0" fill-opacity="1" fill-rule="nonzero"/>
    </g>
</g>
<g clip-path="url(#05de6b3cd0)">
    <g clip-path="url(#d3fd040fe4)">
        <path fill="#000000" d="m791.194 39.522 -44.792 -22.644 0.264 -0.523 44.791 22.648Zm0 0" fill-opacity="1" fill-rule="nonzero"/>
    </g>
</g>
<g clip-path="url(#02c3909e7f)">
    <g clip-path="url(#032d1fcfc9)">
        <path fill="#000000" d="m790.222 41.006 -44.792 -22.644 0.263 -0.522 44.792 22.643Zm0 0" fill-opacity="1" fill-rule="nonzero"/>
    </g>
</g>
<g clip-path="url(#6941e25110)">
    <g clip-path="url(#90c2b01cec)">
        <path fill="#000000" d="m789.25 42.493 -44.792 -22.648 0.264 -0.519 44.791 22.644Zm0 0" fill-opacity="1" fill-rule="nonzero"/>
    </g>
</g>
<g clip-path="url(#4bd1c765af)">
    <g clip-path="url(#34c5244b01)">
        <g clip-path="url(#f10d38cc12)">
            <path fill="#000000" d="M253.517 67.814c-10.002 32.236 -34.227 32.304 -60.597 32.596 -9.942 0.027 -18.936 -2.397 -27.223 0.389 -9.467 3.173 -17.698 11.07 -25.743 16.959 -13.908 10.15 -35.273 22.029 -52.117 26.433 -7.807 2.023 -17.749 2.308 -26.305 2.153 -13.899 -0.405 -31.499 -7.429 -41.737 -14.357 -5.953 -3.979 -11.871 -6.71 -16.28 -11.582 -20.439 -23.049 -24.155 -57.475 -22.006 -92.506 0.361 -6.078 2.698 -14.984 5.322 -19.623l1.892 -6.008a51.23 51.23 0 0 1 15.367 -16.511c20.188 -13.897 59.367 2.424 87.322 2.004 10.573 -0.137 20.696 -2.946 29.769 -6.189 9.044 -3.229 16.116 -10.165 27.246 -9.912 15.982 0.349 33.331 14.97 42.344 21.854 9.452 7.266 18.013 14.502 26.378 21.315l12.298 5.259c5.507 4.104 13.364 13.718 17.464 19.308a43.021 43.021 0 0 1 7.014 17.567c0.37 3.543 -1.369 7.555 -0.408 10.851" fill-opacity="1" fill-rule="nonzero"/>
        </g>
    </g>
</g>
<g clip-path="url(#fe97f67b43)">
    <path fill="#00bf63" d="M-14.785 292.225c0.278 9.107 5.292 17.345 11.504 23.346 7.604 7.34 17.204 11.151 26.741 14.825 5.258 2.026 10.535 4.026 15.546 6.683a68.909 68.909 0 0 1 13.032 9.122c8.056 7.032 15.219 15.248 23.929 21.43 7.47 5.303 16.499 9.159 25.621 8.999a26.79 26.79 0 0 0 4.037 -0.382 51.319 51.319 0 0 0 9.941 0.757 43.423 43.423 0 0 0 12.7 -2.134 43.368 43.368 0 0 0 11.523 -5.745 49.502 49.502 0 0 0 16.15 -18.915c3.629 -7.563 5.168 -16.076 3.833 -24.478 -0.769 -4.851 -2.527 -9.679 -5.292 -13.656 -2.684 -3.86 -6.227 -6.769 -10.127 -9.158 -7.185 -4.409 -16.425 -7.248 -21.413 -14.734 -4.174 -6.271 -4.275 -14.264 -4.208 -21.634 0.071 -7.425 0.638 -15.367 -1.892 -22.451 -2.86 -8.005 -9.559 -13.214 -17.686 -13.615 -8.921 -0.437 -17.82 4.23 -24.488 10.165 -6.981 6.215 -12.291 14.26 -18.955 20.833 -3.277 3.231 -6.906 6.122 -11.022 8.066 -4.29 2.026 -8.992 2.831 -13.66 3.062 -9.697 0.475 -19.43 -1.396 -29.108 -0.208 -4.569 0.56 -9.378 1.97 -12.492 5.793 -3.113 3.819 -4.361 9.07 -4.212 14.027Zm0 0" fill-opacity="1" fill-rule="nonzero"/>
</g>
<path fill="#000000" d="M8.558 271.281c0.995 4.85 2.453 9.703 5.54 13.552 2.835 3.529 6.821 5.727 10.74 7.629 3.707 1.804 7.622 3.451 10.791 6.232 2.72 2.378 4.999 5.257 7.055 8.271 4.189 6.134 7.667 12.932 12.701 18.381 4.959 5.362 11.664 8.605 18.848 7.533 7.214 -1.076 13.274 -5.623 19.209 -9.764 3.012 -2.099 6.074 -4.208 9.38 -5.763 3.852 -1.781 7.894 -2.527 12.128 -2.242 9.459 0.513 18.484 4.498 28.044 4.094 4.431 -0.19 9.147 -1.258 12.81 -4.019a20.942 20.942 0 0 0 4.45 -4.513 21.066 21.066 0 0 0 2.901 -5.633c0.687 -2.001 0.95 -4.053 0.794 -6.165a15.335 15.335 0 0 0 -1.696 -5.978c-2.153 -3.997 -5.975 -6.468 -9.638 -8.709 -3.406 -2.082 -6.639 -4.22 -8.95 -7.671a24.919 24.919 0 0 1 -4.064 -10.754c-0.464 -3.674 0.138 -22.377 0.171 -25.84 0.089 -9.451 -1.347 -19.032 -7.099 -26.595 -5.317 -6.988 -13.463 -11.408 -21.928 -11.957 -14.791 -0.961 -26.915 9.734 -38.096 18.417 -5.756 4.473 -11.752 8.977 -18.499 11.618 -6.806 2.669 -14.127 3.237 -21.242 4.473 -6.824 1.184 -14.001 3.043 -19.148 8.246 -7.032 7.114 -7.135 17.753 -5.202 27.157Zm18.825 -28.656c6.806 -1.952 13.901 -2.375 20.796 -3.852 6.959 -1.492 13.305 -4.576 19.246 -8.628 5.963 -4.067 11.463 -8.828 17.256 -13.156 5.406 -4.041 11.162 -7.856 17.649 -9.585a24.801 24.801 0 0 1 5.444 -0.853 24.767 24.767 0 0 1 5.493 0.364c1.818 0.323 3.581 0.845 5.28 1.562a24.81 24.81 0 0 1 4.81 2.683c6.98 4.91 10.706 12.873 11.615 21.52 0.479 4.553 0.375 9.144 0.304 13.715 -0.037 2.386 -0.141 4.798 -0.156 7.207a30.95 30.95 0 0 0 -1.231 5.645c-0.234 1.919 -0.286 3.844 -0.156 5.774a30.59 30.59 0 0 0 0.927 5.7 30.305 30.305 0 0 0 1.974 5.425 26.934 26.934 0 0 0 7.381 9.571c3.18 2.583 6.935 4.228 10.104 6.802 2.657 2.156 4.446 5.132 3.893 8.747 -0.508 3.34 -2.523 6.416 -5.054 8.439 -6.798 5.433 -16.551 3.462 -24.248 1.889 -8.85 -1.811 -18.039 -3.555 -26.682 0.148 -6.65 2.854 -12.226 7.623 -18.35 11.46 -5.437 3.407 -11.653 5.86 -17.879 3.269 -5.838 -2.422 -9.723 -8.387 -13.093 -13.66 -3.922 -6.137 -7.626 -12.732 -12.991 -17.622 -3.147 -2.873 -6.769 -4.817 -10.532 -6.621 -3.671 -1.758 -7.592 -3.466 -10.488 -6.519 -3.158 -3.329 -4.326 -8.083 -5.228 -12.55 -0.94 -4.665 -1.399 -9.652 -0.167 -14.302 1.878 -7.084 7.738 -10.754 14.083 -12.569Zm0 0" fill-opacity="1" fill-rule="nonzero"/>
<path fill="#ffffff" d="M100.515 271.044c0.141 0.494 0.43 0.879 0.864 1.157a1.72 1.72 0 0 0 1.425 0.179c0.489 -0.152 0.857 -0.456 1.098 -0.909 0.257 -0.479 0.312 -0.983 0.171 -1.507a9.09 9.09 0 0 1 -0.286 -1.21 9.186 9.186 0 0 1 -0.033 -1.628c0.055 -0.434 0.141 -0.862 0.257 -1.281 0.281 -0.979 -0.389 -2.167 -1.339 -2.375a1.865 1.865 0 0 0 -0.731 -0.019 1.862 1.862 0 0 0 -1.218 0.765c-0.144 0.2 -0.244 0.423 -0.3 0.668a10.469 10.469 0 0 0 0.093 6.161Zm0 0" fill-opacity="1" fill-rule="nonzero"/>
<path fill="#ffffff" d="M87.567 256.927a14.668 14.668 0 0 0 0.742 5.718c0.144 0.494 0.43 0.88 0.861 1.158 0.453 0.266 0.928 0.326 1.429 0.178 0.49 -0.152 0.858 -0.456 1.098 -0.909a1.976 1.976 0 0 0 0.171 -1.507 11.196 11.196 0 0 1 -0.598 -4.717 1.96 1.96 0 0 0 -1.149 -1.774 1.762 1.762 0 0 0 -0.717 -0.141c-0.248 0 -0.485 0.051 -0.712 0.152a1.795 1.795 0 0 0 -0.594 0.43c-0.341 0.408 -0.519 0.876 -0.53 1.41Zm0 0" fill-opacity="1" fill-rule="nonzero"/>
<path fill="#ffffff" d="m90.053 281.842 0.063 2.014c-0.007 0.257 0.048 0.502 0.167 0.731 0.074 0.237 0.204 0.446 0.386 0.62 0.167 0.193 0.371 0.327 0.613 0.405a1.33 1.33 0 0 0 0.724 0.16l0.475 -0.079c0.312 -0.096 0.582 -0.263 0.805 -0.503l0.29 -0.406c0.171 -0.315 0.253 -0.649 0.245 -1.005l-0.067 -2.015c0.007 -0.257 -0.048 -0.502 -0.163 -0.728a1.474 1.474 0 0 0 -0.387 -0.623 1.329 1.329 0 0 0 -0.616 -0.405 1.322 1.322 0 0 0 -0.724 -0.16l-0.471 0.078a1.795 1.795 0 0 0 -0.808 0.504c-0.097 0.138 -0.194 0.272 -0.29 0.405a2.023 2.023 0 0 0 -0.241 1.006Zm0 0" fill-opacity="1" fill-rule="nonzero"/>
<path fill="#ffffff" d="M104.453 289.131c0.519 1.38 0.719 2.802 0.597 4.271 0.008 0.52 0.193 0.972 0.553 1.351 0.167 0.181 0.368 0.323 0.598 0.419 0.225 0.097 0.466 0.144 0.715 0.144 0.249 -0.004 0.486 -0.055 0.712 -0.156 0.226 -0.1 0.423 -0.244 0.59 -0.427 0.345 -0.408 0.52 -0.88 0.535 -1.41a12.94 12.94 0 0 0 -0.743 -5.273 2.019 2.019 0 0 0 -0.861 -1.158 1.729 1.729 0 0 0 -1.429 -0.178c-0.489 0.152 -0.853 0.456 -1.098 0.909a1.957 1.957 0 0 0 -0.171 1.507Zm0 0" fill-opacity="1" fill-rule="nonzero"/>
<path fill="#ffffff" d="M74.772 281.794c0.179 1.377 0.352 2.757 0.531 4.137 -0.008 0.257 0.048 0.502 0.166 0.731 0.075 0.237 0.204 0.446 0.387 0.619 0.171 0.182 0.367 0.323 0.598 0.42 0.226 0.096 0.467 0.144 0.715 0.144 0.249 -0.004 0.486 -0.055 0.712 -0.156 0.227 -0.1 0.424 -0.245 0.591 -0.427 0.374 -0.396 0.553 -0.867 0.534 -1.41 -0.178 -1.38 -0.352 -2.761 -0.531 -4.137a1.471 1.471 0 0 0 -0.166 -0.731 1.438 1.438 0 0 0 -0.387 -0.623 1.75 1.75 0 0 0 -1.314 -0.56 1.743 1.743 0 0 0 -1.302 0.583c-0.375 0.393 -0.553 0.864 -0.535 1.41Zm0 0" fill-opacity="1" fill-rule="nonzero"/>
<path fill="#ffffff" d="M-0.58 290.258c0.138 0.501 0.427 0.887 0.864 1.158 1.121 0.638 2.242 1.277 3.363 1.911 0.452 0.263 0.927 0.323 1.429 0.181A1.846 1.846 0 0 0 6.175 292.6a2.02 2.02 0 0 0 0.171 -1.51 1.931 1.931 0 0 0 -0.864 -1.158c-1.121 -0.635 -2.242 -1.273 -3.363 -1.91a1.788 1.788 0 0 0 -1.428 -0.179 1.846 1.846 0 0 0 -1.099 0.909 2.012 2.012 0 0 0 -0.171 1.507Zm0 0" fill-opacity="1" fill-rule="nonzero"/>
<g clip-path="url(#ddfb814498)">
    <g clip-path="url(#b2e7704824)">
        <g clip-path="url(#8cb8a6e156)">
            <path fill="#00bf63" d="M278.224 40.587C268.223 72.823 243.998 72.894 217.628 73.183c-9.942 0.029 -18.937 -2.394 -27.223 0.393 -9.467 3.169 -17.698 11.07 -25.743 16.959 -13.908 10.146 -35.273 22.028 -52.117 26.429 -7.807 2.026 -17.749 2.308 -26.305 2.153 -13.899 -0.401 -31.499 -7.429 -41.737 -14.358 -5.953 -3.974 -11.871 -6.709 -16.28 -11.578C7.781 70.129 4.067 35.707 6.216 0.674c0.36 -6.079 2.698 -14.985 5.322 -19.623l1.892 -6.009a51.23 51.23 0 0 1 15.366 -16.509c20.188 -13.899 59.368 2.422 87.322 2.004 10.574 -0.141 20.697 -2.951 29.769 -6.19 9.044 -3.228 16.117 -10.164 27.246 -9.911 15.983 0.349 33.332 14.97 42.341 21.85 9.456 7.269 18.017 14.502 26.381 21.315l12.294 5.258c5.511 4.109 13.367 13.724 17.468 19.312a43.021 43.021 0 0 1 7.014 17.568c0.37 3.543 -1.37 7.552 -0.408 10.847" fill-opacity="1" fill-rule="nonzero"/>
        </g>
    </g>
    </g>
<g clip-path="url(#8ae84b0741)">
    <path fill="#00bf63" d="M760.757 271.217c0.278 9.107 5.288 17.345 11.5 23.341 7.608 7.344 17.208 11.152 26.745 14.829 5.258 2.026 10.535 4.026 15.545 6.683a68.74 68.74 0 0 1 13.033 9.122c8.056 7.032 15.219 15.248 23.928 21.43 7.471 5.303 16.499 9.158 25.621 8.999a27.28 27.28 0 0 0 4.037 -0.382 51.319 51.319 0 0 0 9.942 0.756 43.423 43.423 0 0 0 12.699 -2.134 43.324 43.324 0 0 0 11.523 -5.747 49.096 49.096 0 0 0 9.284 -8.428 49.383 49.383 0 0 0 6.866 -10.483c3.629 -7.562 5.169 -16.076 3.833 -24.477 -0.769 -4.851 -2.527 -9.679 -5.292 -13.656 -2.683 -3.86 -6.227 -6.769 -10.127 -9.159 -7.185 -4.408 -16.425 -7.248 -21.413 -14.736 -4.174 -6.267 -4.275 -14.264 -4.208 -21.631 0.071 -7.425 0.639 -15.366 -1.891 -22.454 -2.861 -8.005 -9.56 -13.214 -17.687 -13.612 -8.924 -0.438 -17.819 4.23 -24.488 10.165 -6.981 6.215 -12.29 14.259 -18.955 20.833 -3.28 3.232 -6.906 6.123 -11.022 8.067 -4.289 2.026 -8.991 2.831 -13.659 3.062 -9.697 0.475 -19.431 -1.399 -29.109 -0.209 -4.572 0.56 -9.377 1.971 -12.492 5.794 -3.113 3.814 -4.363 9.069 -4.211 14.027Zm0 0" fill-opacity="1" fill-rule="nonzero"/>
</g>
<g clip-path="url(#c3c8a7d7db)">
    <path fill="#000000" d="M784.099 250.273c0.995 4.851 2.453 9.704 5.54 13.549 2.836 3.533 6.821 5.729 10.74 7.633 3.707 1.804 7.622 3.451 10.792 6.227 2.716 2.383 4.998 5.262 7.054 8.274 4.189 6.135 7.667 12.933 12.702 18.381 4.958 5.363 11.66 8.607 18.848 7.533 7.214 -1.076 13.274 -5.626 19.208 -9.763 3.013 -2.1 6.074 -4.208 9.381 -5.764 3.851 -1.781 7.893 -2.531 12.123 -2.241 9.463 0.513 18.484 4.497 28.048 4.094 4.431 -0.19 9.144 -1.259 12.81 -4.019a21.044 21.044 0 0 0 7.351 -10.146c0.687 -2.001 0.95 -4.056 0.795 -6.165a15.335 15.335 0 0 0 -1.697 -5.978c-2.152 -3.999 -5.975 -6.471 -9.641 -8.713 -3.403 -2.081 -6.635 -4.215 -8.947 -7.67a24.887 24.887 0 0 1 -4.063 -10.75c-0.465 -3.674 0.137 -22.377 0.166 -25.843 0.093 -9.449 -1.343 -19.03 -7.095 -26.593 -5.318 -6.991 -13.463 -11.407 -21.928 -11.957 -14.796 -0.96 -26.915 9.731 -38.097 18.418 -5.756 4.468 -11.752 8.977 -18.499 11.618 -6.806 2.669 -14.126 3.237 -21.241 4.473 -6.825 1.184 -14.001 3.043 -19.148 8.246 -7.033 7.11 -7.136 17.749 -5.203 27.156Zm18.826 -28.66c6.806 -1.947 13.9 -2.371 20.796 -3.851 6.954 -1.489 13.304 -4.572 19.245 -8.624 5.963 -4.068 11.463 -8.828 17.252 -13.156 5.411 -4.045 11.166 -7.856 17.653 -9.589a24.763 24.763 0 0 1 5.441 -0.849c1.848 -0.085 3.676 0.037 5.496 0.363 1.818 0.323 3.581 0.846 5.281 1.563a24.81 24.81 0 0 1 4.809 2.683c6.981 4.91 10.706 12.873 11.612 21.52 0.483 4.552 0.374 9.144 0.304 13.715 -0.033 2.386 -0.141 4.797 -0.152 7.207a30.882 30.882 0 0 0 -1.232 5.644c-0.234 1.919 -0.285 3.841 -0.156 5.771a30.628 30.628 0 0 0 0.927 5.703 30.41 30.41 0 0 0 1.975 5.425 26.934 26.934 0 0 0 7.381 9.571c3.18 2.582 6.935 4.227 10.104 6.798 2.657 2.159 4.446 5.136 3.892 8.747 -0.508 3.34 -2.523 6.42 -5.054 8.443 -6.802 5.432 -16.551 3.462 -24.251 1.889 -8.847 -1.811 -18.039 -3.555 -26.678 0.148 -6.65 2.85 -12.227 7.619 -18.351 11.46 -5.436 3.407 -11.652 5.86 -17.879 3.269 -5.837 -2.427 -9.722 -8.387 -13.092 -13.664 -3.926 -6.137 -7.627 -12.728 -12.992 -17.62 -3.146 -2.872 -6.769 -4.817 -10.532 -6.623 -3.67 -1.756 -7.592 -3.463 -10.491 -6.517 -3.154 -3.329 -4.322 -8.082 -5.225 -12.553 -0.939 -4.662 -1.398 -9.649 -0.167 -14.298 1.878 -7.084 7.738 -10.754 14.084 -12.573Zm0 0" fill-opacity="1" fill-rule="nonzero"/>

    </g>
<path fill="#ffffff" d="M876.056 250.035c0.142 0.494 0.43 0.88 0.861 1.159 0.453 0.266 0.928 0.326 1.429 0.178 0.49 -0.152 0.858 -0.456 1.098 -0.909 0.257 -0.479 0.313 -0.984 0.171 -1.507a9.09 9.09 0 0 1 -0.285 -1.21 9.193 9.193 0 0 1 -0.034 -1.629c0.056 -0.434 0.142 -0.861 0.257 -1.28 0.282 -0.98 -0.389 -2.168 -1.339 -2.375a1.796 1.796 0 0 0 -0.731 -0.019 1.862 1.862 0 0 0 -1.217 0.765c-0.145 0.199 -0.245 0.423 -0.301 0.664a10.481 10.481 0 0 0 0.093 6.164Zm0 0" fill-opacity="1" fill-rule="nonzero"/>
<path fill="#ffffff" d="M863.108 235.915a14.686 14.686 0 0 0 0.742 5.722c0.145 0.494 0.431 0.88 0.862 1.159 0.452 0.266 0.927 0.326 1.429 0.178 0.489 -0.152 0.857 -0.456 1.098 -0.909a1.976 1.976 0 0 0 0.171 -1.507 11.213 11.213 0 0 1 -0.598 -4.721 1.957 1.957 0 0 0 -0.552 -1.351c-0.171 -0.181 -0.371 -0.323 -0.598 -0.419a1.83 1.83 0 0 0 -0.715 -0.145 1.81 1.81 0 0 0 -1.306 0.583 2.213 2.213 0 0 0 -0.531 1.41Zm0 0" fill-opacity="1" fill-rule="nonzero"/>
<path fill="#ffffff" d="m865.591 260.835 0.067 2.014c-0.007 0.257 0.049 0.502 0.168 0.728 0.074 0.241 0.203 0.449 0.386 0.623 0.167 0.194 0.37 0.327 0.612 0.405a1.33 1.33 0 0 0 0.724 0.16l0.475 -0.078c0.312 -0.096 0.582 -0.267 0.806 -0.504l0.289 -0.405c0.171 -0.315 0.249 -0.649 0.245 -1.005l-0.067 -2.016c0.008 -0.257 -0.048 -0.501 -0.163 -0.731a1.523 1.523 0 0 0 -0.386 -0.618 1.348 1.348 0 0 0 -0.617 -0.405 1.33 1.33 0 0 0 -0.723 -0.16l-0.475 0.078a1.803 1.803 0 0 0 -0.806 0.504c-0.097 0.133 -0.193 0.271 -0.29 0.405 -0.171 0.315 -0.248 0.649 -0.245 1.005Zm0 0" fill-opacity="1" fill-rule="nonzero"/>
<path fill="#ffffff" d="M879.994 268.122c0.519 1.377 0.719 2.803 0.598 4.271 0.007 0.52 0.193 0.973 0.553 1.351a1.75 1.75 0 0 0 1.314 0.56 1.743 1.743 0 0 0 1.302 -0.582c0.346 -0.405 0.52 -0.876 0.535 -1.41a12.994 12.994 0 0 0 -0.742 -5.27 2.006 2.006 0 0 0 -0.862 -1.159 1.743 1.743 0 0 0 -1.428 -0.18 1.829 1.829 0 0 0 -1.099 0.912 1.957 1.957 0 0 0 -0.171 1.507Zm0 0" fill-opacity="1" fill-rule="nonzero"/>
<path fill="#ffffff" d="M850.313 260.783c0.179 1.38 0.352 2.761 0.531 4.142 -0.008 0.256 0.048 0.501 0.167 0.727 0.074 0.241 0.204 0.448 0.386 0.623 0.171 0.181 0.368 0.323 0.598 0.419 0.226 0.097 0.467 0.145 0.716 0.145 0.249 -0.004 0.486 -0.056 0.712 -0.156 0.226 -0.101 0.423 -0.245 0.589 -0.427 0.375 -0.396 0.554 -0.868 0.535 -1.41 -0.178 -1.38 -0.351 -2.761 -0.53 -4.142 0.008 -0.256 -0.048 -0.501 -0.167 -0.727a1.438 1.438 0 0 0 -0.386 -0.623 1.728 1.728 0 0 0 -0.598 -0.42 1.816 1.816 0 0 0 -0.715 -0.144 1.81 1.81 0 0 0 -0.712 0.156 1.77 1.77 0 0 0 -0.59 0.427 1.888 1.888 0 0 0 -0.535 1.41Zm0 0" fill-opacity="1" fill-rule="nonzero"/>
<path fill="#ffffff" d="M774.962 269.251c0.138 0.497 0.427 0.883 0.864 1.158 1.121 0.637 2.242 1.276 3.363 1.91 0.452 0.264 0.927 0.323 1.428 0.182a1.839 1.839 0 0 0 1.098 -0.913 2.008 2.008 0 0 0 0.171 -1.507 1.931 1.931 0 0 0 -0.864 -1.158c-1.121 -0.635 -2.242 -1.273 -3.363 -1.911a1.788 1.788 0 0 0 -1.428 -0.178 1.846 1.846 0 0 0 -1.098 0.909 2.01 2.01 0 0 0 -0.171 1.507Zm0 0" fill-opacity="1" fill-rule="nonzero"/>

</svg>
