<svg xmlns="http://www.w3.org/2000/svg" version="1.0" viewBox="0 0 1350 900">
    <defs>
        <clipPath id="a">
            <path d="M0 .152h723V407H0Zm0 0"/>
        </clipPath>
        <clipPath id="b">
            <path d="M312 121h9v10h-9Zm0 0"/>
        </clipPath>
        <clipPath id="c">
            <path d="M321 124.352c-.148 3.222-1.5 4.875-2.398 5.472-.676.375-1.426.528-2.176.375-1.051-.222-2.852-1.125-3.528-2.176-.671-1.046-.597-3.148-.296-4.199.222-.75.824-1.199 1.347-1.648.528-.45 1.2-.824 1.95-.903 1.05-.074 3.976 1.278 3.976 1.278"/>
        </clipPath>
    </defs>
    <g clip-path="url(#a)">
        <path fill="#00bf63" d="M525.781-50.805c116.567-19.508 219.64 32.356 192 142.426-27.636 110.067-282.715 110.23-379.933 181.442-97.22 71.21-304.5 233.304-388.715 45.359C-135.078 130.477-83.22-52.43 85.207-54.868c168.426-2.44 440.574 4.063 440.574 4.063Zm0 0"/>
    </g>
    <g clip-path="url(#b)">
        <g clip-path="url(#c)">
            <path fill="#e7191f" d="M309.602 118.273h14.25v15h-14.25Zm0 0"/>
        </g>
    </g>
</svg>