<svg xmlns="http://www.w3.org/2000/svg"
    xmlns:xlink="http://www.w3.org/1999/xlink" version="1.0" viewBox="0 0 1724.88 900">
    <defs>
        <path id="a" d="m952.164 357.383 65.027 259.715-349.195 87.433-65.027-259.715Zm0 0"/>
        <path id="h" d="m14.031-37.484.031-.032a1.94 1.94 0 0 1 .579-.375c.218-.093.46-.054.734.11.477.261.695.64.656 1.14a22.55 22.55 0 0 1-1.39 6.047A24.188 24.188 0 0 1 12-25.797a31.003 31.003 0 0 1-3.531 4.172c-1.719 1.656-3.824 2.39-6.313 2.203-.773-.039-1.558-.086-2.36-.14a98.82 98.82 0 0 1-2.39-.157c-.695-.031-1.086.328-1.172 1.078-.062.938-.023 1.868.11 2.782.136.906.32 1.804.547 2.687.043.094.086.188.125.281.03.325.101.668.203 1.032.199.48.336.968.406 1.468.125.813-.023 1.618-.453 2.407A4.273 4.273 0 0 1-4.61-6.188c-.602.243-1.18.247-1.735.016a35.976 35.976 0 0 1-5.593-3.406c-.915-.77-1.102-1.633-.563-2.594.594-1.144 1.484-1.578 2.672-1.297.18.055.375.14.594.266.23.117.468.21.718.281.25.074.528.055.829-.062-.008-.446-.016-.864-.016-1.25a439.7 439.7 0 0 0-.063-2.579c.012-.988.188-1.89.532-2.703a8.539 8.539 0 0 1 1.421-2.312c1.43-1.707 3.231-2.488 5.407-2.344.457.063.906.102 1.344.11 1.03.125 2.054.21 3.078.25 1.632.054 3.007-.547 4.125-1.797a16.994 16.994 0 0 0 2.796-4.078c.72-1.458 1.243-3 1.579-4.625a.73.73 0 0 0 .015-.25c.102-.57.258-1.11.469-1.61.207-.508.55-.945 1.031-1.312Zm0 0"/>
    </defs>
    <defs>
        <clipPath id="b">
            <path d="M618 415h308v266H618Zm0 0"/>
        </clipPath>
        <clipPath id="c">
            <use xlink:href="#a"/>
        </clipPath>
        <clipPath id="d">
            <use xlink:href="#a"/>
        </clipPath>
        <clipPath id="e">
            <path d="M889 357h72v81h-72Zm0 0"/>
        </clipPath>
        <clipPath id="f">
            <use xlink:href="#a"/>
        </clipPath>
        <clipPath id="g">
            <use xlink:href="#a"/>
        </clipPath>
    </defs>
    <g clip-path="url(#b)">
        <g clip-path="url(#c)">
            <g clip-path="url(#d)">
                <path fill="#00bf63" d="M622.715 525.594c-2.574-10.285-3.676-16.582-3.75-16.883-.371-2.125 1.043-4.063 3.078-4.492 2.125-.375 4.14 1.023 4.496 3.07.02.074 1.586 8.871 5.149 22.156.503 2.012-.633 4.121-2.704 4.72-2.09.519-4.12-.634-4.718-2.7-.578-1.996-1.082-4.008-1.551-5.871Zm8.117 27.988c-.484-1.941.598-3.953 2.5-4.59 2.055-.672 4.16.465 4.887 2.422 2.39 7.32 5.004 14.59 7.765 21.5.875 1.922-.132 4.23-2.164 4.977-1.941.804-4.234-.125-4.98-2.157-2.8-7.062-5.524-14.46-7.95-21.93l-.058-.222Zm17.148 42.832a3.851 3.851 0 0 1 2.07-4.398c1.903-.953 4.255-.118 5.13 1.804 3.433 7.059 7.11 13.825 10.86 19.934 1.081 1.789.487 4.156-1.286 5.312-1.793 1.082-4.16.485-5.317-1.285-3.898-6.386-7.613-13.3-11.175-20.566-.074-.297-.207-.504-.282-.8Zm24.106 39.27c-.356-1.414.129-2.961 1.379-3.989 1.66-1.289 4.105-1.027 5.394.63 4.868 6.148 9.98 11.679 15.223 16.464 1.547 1.434 1.68 3.86.242 5.406-1.437 1.547-3.863 1.68-5.41.246-5.539-5.03-10.969-10.879-16.008-17.379a2.773 2.773 0 0 1-.82-1.378Zm34.215 30.562c-.223-.894-.094-1.957.39-2.871 1.047-1.848 3.414-2.52 5.262-1.477 6.547 3.668 13.356 6.477 20.297 8.227 2.031.52 3.355 2.645 2.836 4.676-.524 2.031-2.574 3.336-4.684 2.836-7.609-1.899-15.109-4.93-22.234-9.008a3.68 3.68 0 0 1-1.867-2.383Zm44.043 10.91c-.074-.297-.13-.52-.11-.761a3.903 3.903 0 0 1 3.672-4.012c6.211-.207 12.63-1.18 19.121-2.805l2.688-.676c2.07-.597 4.12.633 4.719 2.703.316 2.215-.633 4.118-2.704 4.715l-2.91.727c-7.015 1.758-13.972 2.789-20.652 3.035-1.828-.02-3.395-1.21-3.824-2.926Zm44.433-11.281c-.449-1.79.485-3.766 2.293-4.457 7.035-2.95 13.899-6.25 20.371-9.852 1.883-1.027 4.176-.414 5.204 1.47 1.007 1.804.41 4.171-1.473 5.198a188.065 188.065 0 0 1-21.133 10.282c-1.941.804-4.234-.125-5.039-2.067-.055-.222-.168-.351-.223-.574Zm40.106-22.559c-.375-1.488.183-3.054 1.453-4.007 6.082-4.532 11.844-9.38 17.2-14.602a3.793 3.793 0 0 1 5.405.07c1.496 1.528 1.457 3.914-.07 5.407-5.543 5.425-11.64 10.515-17.984 15.273-1.66 1.285-4.14.879-5.352-.797-.262-.41-.543-.894-.652-1.344ZM812.047 439.38c-.074-.297-.094-.692-.113-1.082.296-10.848 5.539-19.684 13.242-22.485 1.96-.726 4.199.297 4.945 2.329.652 1.976-.297 4.191-2.332 4.941-4.644 1.715-7.926 7.926-8.168 15.508-.094 2.164-1.828 3.785-3.973 3.77a3.944 3.944 0 0 1-3.601-2.981Zm8.152 20.848c-.297-1.192 0-2.536.934-3.559 1.437-1.547 3.879-1.606 5.43-.172 3.917 3.613 9.14 5.473 15.48 5.469l3.34.035c2.144.02 3.824 1.656 3.898 3.855-.015 2.145-1.734 3.84-3.785 3.88l-3.414-.016c-8.262-.07-15.406-2.637-20.668-7.5a3.746 3.746 0 0 1-1.215-1.992Zm47.64 151c-.28-1.122-.093-2.278.692-3.262 4.606-5.988 8.801-12.344 12.344-18.778 1.047-1.843 3.34-2.496 5.242-1.546 1.848 1.039 2.52 3.406 1.551 5.234a156.592 156.592 0 0 1-12.98 19.723 3.88 3.88 0 0 1-5.375.715c-.782-.598-1.286-1.344-1.473-2.086Zm-24.362-183.442a3.908 3.908 0 0 1 .746-3.355 3.82 3.82 0 0 1 5.39-.637 170.33 170.33 0 0 1 17.446 15.832c1.492 1.527 1.453 3.91-.149 5.422-1.531 1.492-4.012 1.402-5.43-.145-5.035-5.234-10.671-10.32-16.714-15.14-.672-.465-1.082-1.157-1.29-1.977Zm46.464 143.133c-.168-.668-.132-1.469.094-2.16a128.63 128.63 0 0 0 5.52-21.66 3.868 3.868 0 0 1 4.437-3.168 3.864 3.864 0 0 1 3.172 4.433 137.445 137.445 0 0 1-5.816 23c-.692 1.992-2.891 3.02-4.887 2.332-1.324-.539-2.223-1.582-2.52-2.777Zm-25.27-105.035c-.054-.223-.109-.445-.073-.613-.13-2.106 1.379-3.989 3.562-4.141 2.406-.207 4.738-.395 6.883-.695a3.896 3.896 0 0 1 1.66-3.504c1.754-1.23 4.16-.801 5.317.968.28.485.617.875.894 1.36 2.426-.45 4.758-.953 6.996-1.516 2.09-.523 4.293.668 4.813 2.754.523 2.09-.559 4.102-2.649 4.625-1.566.39-3.133.785-4.793 1.121a141.5 141.5 0 0 1 6.399 12.258c.86 1.844.02 4.195-1.903 5.07-1.918.88-4.195.024-5.074-1.898a110.921 110.921 0 0 0-7.555-14.027c-3.3.43-6.773.824-10.503 1.125-1.844.226-3.524-1.098-3.973-2.887Zm32.337 59.785c-.078-.3-.133-.523-.133-.84-.281-7.453-1.25-14.816-2.988-22.062a3.766 3.766 0 0 1 2.894-4.606c2.012-.504 4.082.8 4.586 2.813l.02.074c1.847 7.695 2.875 15.598 3.117 23.535.058 2.125-1.567 3.875-3.692 3.934-1.792.132-3.378-1.133-3.804-2.848Zm11.164-72.895a3.873 3.873 0 0 1 1.25-3.875c5.297-4.496 8-10.164 8.281-17.28.02-2.145 1.828-3.786 3.973-3.77 2.164.093 3.785 1.824 3.77 3.968-.282 9.336-3.973 17.075-10.985 22.95-1.645 1.359-4.066 1.175-5.43-.465-.43-.446-.71-.93-.86-1.528Zm0 0"/>
            </g>
        </g>
    </g>
    <g clip-path="url(#e)">
        <g clip-path="url(#f)">
            <g clip-path="url(#g)">
                <path fill="#00bf63" d="m889.309 416.39 62.578-58.519 8.386 80.035-26.586-25.738Zm0 0"/>
            </g>
        </g>
    </g>
    <path d="M484.586 626.301c-.118-1.007.062-1.671.53-1.984.477-.32 1.005-.32 1.579 0 .582.313 1.015.922 1.297 1.828.5 1.805.816 4.008.953 6.61a36.75 36.75 0 0 1-.406 7.703c-.407 2.531-1.196 4.586-2.36 6.156-2.406 3.18-5.07 3.383-7.984.61a23.31 23.31 0 0 1-1.438-1.625 35.783 35.783 0 0 0-1.656-1.954c-.562-.601-1.023-.921-1.39-.953a1.31 1.31 0 0 0-.844.469c-.219.25-.426.543-.625.875-.196.387-.43.7-.703.938-1.414 1.343-2.832 1.468-4.25.374a17.494 17.494 0 0 1-4.563-5.64c-.332-.676-.316-1.406.047-2.188.367-.789.93-1.32 1.688-1.593.523-.164.96-.078 1.312.265.48.512.918 1.043 1.313 1.594.18.242.359.48.546.719 1.106 1.418 1.805 2.008 2.094 1.765.293-.25.461-1.175.5-2.78.094-1.145.543-2.114 1.344-2.907 1.074-1.063 2.11-.988 3.11.219.648.875 1.296 1.761 1.952 2.656a57.63 57.63 0 0 0 4.313 5.36c1.101 1.073 1.96 1.436 2.578 1.093.625-.344 1.078-1.117 1.36-2.328.288-1.219.46-2.61.515-4.172.063-1.563.04-3-.063-4.313-.105-1.32-.203-2.25-.296-2.78-.043-.27-.094-.66-.157-1.173a32.043 32.043 0 0 1-.156-1.562 29.555 29.555 0 0 0-.14-1.281Zm0 0"/>
    <path d="M489.781 623.716c-.02.024-.047.047-.078.078l.047-.046s.011-.008.031-.032Zm10.688-17.172c.039-.238.132-.586.28-1.047.157-.468.352-.875.595-1.218.25-.344.554-.469.921-.375.29.062.5.195.625.39.125.2.204.414.235.641.195 1.543.035 3.531-.485 5.969a58.376 58.376 0 0 1-2.046 7.234c-.836 2.387-1.653 4.262-2.454 5.625a19.366 19.366 0 0 1-3.343 4.328c-1.676 1.543-3.477 2.227-5.407 2.047-1.937-.176-3.586-.984-4.953-2.422-1.476-1.676-2.172-3.582-2.078-5.718.086-2.145.961-3.938 2.625-5.376a7.91 7.91 0 0 1 3.469-1.843c1.492-.29 2.672.011 3.547.906.867.898 1.117 2.078.75 3.547a6.635 6.635 0 0 1-1.016 2.187c-.488.711-1.14 1.477-1.953 2.297 0 0-.016.024-.047.063a1.176 1.176 0 0 0-.172.203 5.855 5.855 0 0 1-.265.281c-.22.274-.286.512-.204.719.086.2.262.355.532.469 1.605.523 3.031.105 4.281-1.25 1.238-1.352 2.313-3.172 3.219-5.454a52.892 52.892 0 0 0 2.203-6.828c.57-2.27.953-4.062 1.14-5.375Zm-14.33 14.172c-.02.356.043.664.188.922.137.262.273.461.406.594.137.137.242.183.313.14.086-.03.28-.175.593-.437.305-.27.594-.602.875-1 .274-.395.45-.766.532-1.11.086-.35-.067-.628-.454-.828-.593-.218-1.14-.144-1.64.22-.5.366-.77.866-.813 1.5Zm0 0"/>
    <path d="M528.396 572.907c.508-.394.977-.383 1.407.032.437.406.765.949.984 1.624.488 1.743.664 3.586.531 5.532-.125 1.949-.554 3.715-1.281 5.297-.719 1.586-1.781 2.726-3.188 3.422-1.406.699-3.152.683-5.234-.047a17.845 17.845 0 0 1-5.187-2.72c-.543-.382-1.844-1.425-3.907-3.124a1178.47 1178.47 0 0 0-6.468-5.344 679.32 679.32 0 0 1-5.079-4.219 49.518 49.518 0 0 1-.796-.672 207.273 207.273 0 0 1 6.89 10.829c2.294 3.843 3.778 6.464 4.454 7.859a83.992 83.992 0 0 1 3.266 8.094c.57 1.855.89 3.761.953 5.719.031 1.574-.402 3.058-1.297 4.453-.899 1.386-2.04 2.421-3.422 3.109-1.394.68-2.832.7-4.312.063-1.688-.82-3.094-1.876-4.219-3.157-1.133-1.289-1.898-2.863-2.297-4.718-.414-2.063-.27-3.899.438-5.516.71-1.625 1.886-3.047 3.531-4.266a13.79 13.79 0 0 1 1.703-1.047c.281-.156.578-.316.89-.484-.312-1.57-1.5-4.016-3.562-7.328a185.828 185.828 0 0 0-6.594-9.89c-2.332-3.282-4.054-5.626-5.171-7.032a215.625 215.625 0 0 0-10.11-12.375 591.16 591.16 0 0 1-6.593-7.89c-.688-.895-.833-1.833-.438-2.813.398-.988 1.133-1.61 2.203-1.86.531-.101.992.008 1.375.329a391.198 391.198 0 0 1 13.61 12.562 556.68 556.68 0 0 1 5.39 5.031 433.05 433.05 0 0 0 10.5 9.547 217.47 217.47 0 0 0 10.969 9.032c.133.117.285.242.453.374.719.618 1.633 1.282 2.75 2 1.125.72 2.21 1.18 3.266 1.376 1.05.187 1.832-.254 2.343-1.329.344-.851.551-1.843.625-2.968a48.11 48.11 0 0 0 .094-3.344 27.844 27.844 0 0 1 .047-2.64c.05-.739.21-1.239.484-1.5Zm-17 32.86a22.398 22.398 0 0 0-1.109-4.532 49.46 49.46 0 0 0-1.938-4.625c-.968.45-1.835.934-2.609 1.453-.781.524-1.312 1.211-1.594 2.063-.289.855-.195 1.977.282 3.36 1.011 2.656 2.855 4.484 5.53 5.484.606.18 1.024.078 1.25-.297.227-.383.333-.867.313-1.453a12.157 12.157 0 0 0-.125-1.454Zm0 0"/>
    <path d="M540.349 558.817c.258-.102.5-.047.719.172.226.219.39.469.484.75a35.206 35.206 0 0 1 1.203 6.5c.188 2.094-.011 4.058-.593 5.89-.586 1.836-1.75 3.524-3.5 5.063-1.164 1.031-2.306 1.59-3.422 1.672-1.125.074-2.375-.219-3.75-.875-2.157-1-4.055-2.414-5.703-4.25-.895-1.125-.895-2.266 0-3.422.843-1.008 1.765-1.172 2.765-.484.762.593 1.492 1.21 2.188 1.843.105.094.203.18.297.25 1.949 1.743 3.586 2.57 4.906 2.485 1.324-.094 2.285-.86 2.89-2.297.614-1.438.836-3.32.672-5.656a17.69 17.69 0 0 0-.14-1.141 17.9 17.9 0 0 1-.172-1.516 50.302 50.302 0 0 0-.219-1.906c-.125-1.457.332-2.484 1.375-3.078Zm-18 9.078c-.812.844-1.723.953-2.734.328a4.63 4.63 0 0 1-1.735-2.047c-.3-.75-.273-1.535.078-2.359.344-.82.922-1.395 1.735-1.719.305-.125.601-.14.89-.047.293.086.493.188.594.313 2.274 1.98 2.664 3.824 1.172 5.531Zm0 0"/>
    <use xlink:href="#h" transform="translate(549.178 570.552)"/>
    <path d="M580.624 510.533c.344-.207.68-.203 1.016.016.332.219.54.531.625.938.082.406.145.918.188 1.53.05.618.109 1.212.171 1.782-.023.461-.011.836.032 1.125a180.013 180.013 0 0 0 2.078 16.281c.07.68.226 1.313.469 1.907.25.586.624 1.136 1.124 1.656 2.102 2.18 4.594 5.012 7.47 8.5 2.874 3.488 5.5 7.129 7.874 10.922 2.383 3.8 3.942 7.195 4.672 10.187.438 2.133.008 4.102-1.281 5.907-2.156 2.687-4.715 3.113-7.672 1.28-2.781-1.898-5.188-4.53-7.219-7.905a55.902 55.902 0 0 1-4.984-10.813c-1.293-3.836-2.172-7.324-2.64-10.469-.407-1.656-1.61-3.883-3.61-6.687-2-2.813-3.875-5.086-5.625-6.828-.906-.895-1.488-1.282-1.75-1.157-.258.118-.442.563-.547 1.344-.133.649-.348 1.39-.64 2.235-.301.843-.844 1.703-1.626 2.578-1.156 1.124-2.367 1.632-3.639 1.514-1.27-.125-2.446-.629-3.532-1.515-1.093-.883-1.945-1.891-2.562-3.016a14.147 14.147 0 0 1-1.078-3.734 20.78 20.78 0 0 1-.203-3.985c.156-2.133 1.156-3.707 3-4.718.293-.133.59-.204.89-.204.293 0 .547.121.766.36.21.23.309.465.297.703-.02.242-.094.465-.219.672-.594 1.687-.64 3.414-.14 5.172.492 1.761 1.199 3.195 2.124 4.297.93 1.105 1.735 1.511 2.422 1.218.356-.289.57-.883.641-1.781.074-.906.055-1.836-.063-2.797a133 133 0 0 0-.265-2.125c-.363-1.508-.016-2.867 1.047-4.078 1.18-1.344 2.433-1.453 3.765-.328.883.805 1.786 1.73 2.704 2.781 1.13 1.263 2.194 2.314 3.186 3.158 1.02.688 1.61.391 1.766-.89.164-1.282.203-3.219.109-5.813a420.33 420.33 0 0 0-.14-4.093c-.055-1.282-.048-2.348.015-3.204.063-.851.39-1.492.984-1.922Zm19.907 52.283c-1.325-2.336-3.36-5.465-6.11-9.39-2.742-3.93-5.043-6.813-6.906-8.657.406 1.207.645 2.094.719 2.656.05.27.117.488.203.656a95.051 95.051 0 0 0 3.594 9.61c.988 2.195 2.093 4.164 3.312 5.906 1.227 1.75 2.781 3.383 4.656 4.906.739.625 1.344.992 1.813 1.11.469.125.672-.157.61-.844a17.375 17.375 0 0 0-1.891-5.953Zm0 0"/>
    <g transform="translate(589.871 522.255)"/>
    <use xlink:href="#h" transform="translate(604.43 504.976)"/>
    <path d="M636.094 444.207c.363-.613.66-.93.89-.953.239-.03.473.11.704.422.488.461.758 1.047.812 1.766.063.71-.015 1.496-.234 2.36-.555 2-1.355 3.734-2.406 5.202-1.043 1.461-2.375 2.797-4 4.016-.742.512-1.219 1.074-1.438 1.688-.219.605-.078 1.527.422 2.765 1.29 3.137.985 6.125-.922 8.969-1.449 2.117-3.023 3.25-4.734 3.406-1.707.156-3.383-.254-5.031-1.234-1.739-.969-3.082-2.203-4.032-3.703-.945-1.508-1.57-3.22-1.875-5.125-.175-1.407.262-2.602 1.313-3.594.43-.508.96-.75 1.594-.719.375.055.62.215.734.485.105.261.152.554.14.875.337 2.96 1.669 5.328 4 7.109a6.969 6.969 0 0 0 3.657 1.531c1.148.094 1.785-.457 1.922-1.656.05-1.219-.196-2.535-.735-3.953-.55-1.426-1.332-2.63-2.343-3.61-1.02-.988-2.227-1.5-3.625-1.53-.614.085-1.125.23-1.532.437a7.01 7.01 0 0 1-.609.218c-.195.063-.363.043-.5-.062-.758-.594-1.063-1.317-.906-2.172.148-.852.574-1.703 1.281-2.547a7.162 7.162 0 0 1 2.484-1.922c.938-.437 1.82-.5 2.641-.187a8.325 8.325 0 0 1 2.672 1.937c.68.606 1.46.762 2.36.469 2.1-.55 3.706-1.754 4.812-3.61.445-.8.797-1.578 1.047-2.328.25-.75.457-1.492.625-2.234.207-.957.476-1.797.812-2.515Zm0 0"/>
    <path d="M644.837 421.372c.855-1.113 1.8-1.234 2.844-.36a37.445 37.445 0 0 1 4.046 4.61c1.22 1.648 2.165 3.484 2.844 5.516.977 2.617.489 4.96-1.469 7.03-1.18 1.212-2.57 1.798-4.171 1.767-.97.011-1.516.14-1.641.39-.117.25-.063.633.156 1.14.082.282.172.602.266.954a7.53 7.53 0 0 1 .11 3.297c-.306 1.46-.951 2.531-1.939 3.219-1 .687-2.207.906-3.625.656a13.912 13.912 0 0 1-4.735-1.875 18.294 18.294 0 0 1-3.875-3.313c-.625-.758-.816-1.594-.578-2.5.242-.914.84-1.582 1.797-2 .656-.195 1.215-.004 1.672.578a10.179 10.179 0 0 0 2.469 2.391c.949.656 1.93 1.219 2.937 1.688.836.367 1.313.382 1.438.046.125-.332.078-.8-.14-1.406a22.166 22.166 0 0 0-.642-1.625 2.78 2.78 0 0 0-.109-.281 8.355 8.355 0 0 0-.562-1 31.53 31.53 0 0 1-.407-.969c-.468-.937-.625-1.734-.468-2.39.148-.665.601-1.364 1.359-2.094.773-.707 1.664-.907 2.672-.594a.625.625 0 0 1 .328.078c1.258.367 2.55.688 3.875.969.945.18 1.398-.102 1.36-.844-.032-.738-.325-1.644-.876-2.719a38.946 38.946 0 0 0-1.718-3.047c-.593-.957-1.007-1.553-1.235-1.795a7.384 7.384 0 0 0-.39-.5c-.52-.664-1.051-1.364-1.594-2.094-.781-1.02-.781-1.992 0-2.922Zm0 0"/>
</svg>
