<svg xmlns="http://www.w3.org/2000/svg" width="500" height="500" version="1.0" viewBox="0 0 375 375"><defs><clipPath id="a"><path d="M73.293 71.445h197.922v195.75H73.293Zm0 0"/></clipPath></defs><path fill="none" stroke="#44ab7a" stroke-linejoin="round" stroke-miterlimit="10" stroke-width="35.928" d="M4010.306 4176.762s-117.56-17.6-460.987 119.76c-299.415 119.761-646.682 610.8-1131.693 461.05-521.934-161.058-1059.916-760.45-2185.603-233.524m3896.828-513.653s-17.624-117.696 119.727-461.049c119.825-299.402 610.744-646.688 461.085-1131.728-161.08-521.913-760.5-1059.852-233.545-2185.583" transform="matrix(0 -.03967 -.03973 0 271.214 267.193)"/><g clip-path="url(#a)"><path fill="#00bf63" d="M97.797 233.547c-.004 0-.004-.004-.008-.004h.008s-.004 0 0 .004Zm-1.832 11.719s2.457 4.84 7.09 2.644c2.886-1.367 1.57-5.781-.774-9.457-.586-.922.293-2.074 1.336-1.75 4.215 1.297 8.922 1.41 9.465-1.773.797-4.649-3.656-5.91-4.367-6.082l.023-.008s2.832-4.637-1.476-7.414c-2.29-1.48-4.856.804-6.739 3.949-.566.938-1.98.68-2.171-.398-.657-3.633-2.258-6.723-4.942-6.137-4.613 1.012-4.113 5.61-4.004 6.328l-.02-.02s-5.363-.878-6.327 4.153c-.625 3.27 4.129 4.812 8.66 4.996 1.094.043 1.55 1.39.707 2.086-3.54 2.922-6.469 7.137-3.934 9.37 3.543 3.122 6.957 0 7.477-.515Zm-9.137-95.996.004-.004c0 .004 0 .004-.004.004Zm1.625 15.21c3.043-.613 2.934-4.968 1.66-9.007-.37-1.164.871-2.153 1.926-1.54 3.707 2.157 8.027 3.25 9.29.38 1.898-4.32-2.118-6.622-2.763-6.958l.028-.007s3.867-3.809.363-7.547c-1.809-1.93-4.73-.48-7.27 1.972-.847.825-2.28.18-2.222-1.003.18-3.555-.66-6.75-3.324-6.825-4.723-.136-5.348 4.446-5.418 5.172l-.016-.023s-4.988-2.153-7.144 2.496c-1.368 2.953 2.644 5.543 6.886 6.847 1.133.352 1.262 1.903.2 2.43-4.036 1.996-7.676 5.285-5.805 8 2.683 3.883 6.754 1.68 7.379 1.309l-.008.023s1.21 5.293 6.238 4.281Zm2.602 101.364c-.98-1.055-2.407-1.516-3.832-1.324-1.25.168-2.746-.118-4.016-1.75-2.754-3.543 6.05-8.95 9.988-9.18l-.043.125c2.97 2.66 6.563 12.176 2.246 13.3-2.078.54-3.464-.226-4.343-1.171Zm-3.676-52.117c-3.54-.86-4.356-3.54-4.469-5.422a2.313 2.313 0 0 0-1.875-2.13c-1.847-.359-4.39-1.456-4.941-4.734-.961-5.718 12.379-6.492 17.004-4.347l-.125.113c1.75 4.848.007 17.879-5.594 16.52Zm-1.484-33.247.289.004c3.558-8.203 21.28-22.613 26.746-14.238 3.332 5.098 1.441 9.328-.578 11.879a4.632 4.632 0 0 0-.18 5.5c1.828 2.672 3.484 6.926.398 11.55-5.593 8.376-23.382-6.488-26.675-14.695ZM237.52 95.91h-.004v-.004l.004.004Zm1.386 15.27c3.09-.528 3.078-4.965 1.887-9.07-.332-1.157.95-2.133 1.98-1.505 3.61 2.204 7.801 3.356 9.13.56 2.199-4.626-2.645-7.083-2.645-7.083l-.028.004c.512-.516 3.637-3.93.512-7.465-2.176-2.46-6.222.234-9.137 3.637-.785.918-2.285.41-2.351-.793-.254-4.41-1.8-8.875-4.984-8.27-5.04.965-4.157 6.317-4.157 6.317l.02.023c-.723-.11-5.328-.613-6.336 3.996-.57 2.586 2.293 4.168 5.766 4.864 1.183.234 1.468 1.8.445 2.44-2.973 1.86-5.055 4.325-3.625 6.532 2.785 4.301 7.422 1.477 7.422 1.477l.011-.028c.172.711 1.434 5.16 6.09 4.364Zm-85.773-26.22h-.008v-.003c.004.004.004.004.008.004Zm-1.922 11.72c.336.648 2.64 4.656 6.969 2.761 2.574-1.129 1.96-4.718.254-8.113-.735-1.457.601-3.121 2.187-2.726 3.637.898 7.191.699 7.738-2.02 1.012-5.02-4.285-6.23-4.285-6.23l-.027.011c.375-.629 2.582-4.691-1.309-7.37-2.449-1.688-5.367 1.1-7.383 4.616-.812 1.418-2.914 1.246-3.492-.285-1.398-3.722-3.765-6.84-6.422-5.613-4.656 2.152-2.504 7.137-2.504 7.137l.024.015c-.727.07-5.313.696-5.176 5.41.067 2.332 2.531 3.266 5.535 3.34 1.61.04 2.465 1.926 1.434 3.16-1.899 2.286-2.8 4.715-1.11 6.297 3.747 3.5 7.563-.363 7.563-.363Zm106.504-5.403-.125.043c.23-3.933 5.644-12.726 9.195-9.976 1.738 1.347 1.856 3.101 1.586 4.449-.23 1.14.192 2.344 1.113 3.055 1.102.847 2.164 2.316 1.551 4.668-1.125 4.312-10.656.726-13.32-2.239Zm-56.63-.226-.116.125c-2.121-4.633-1.27-17.95 4.453-16.953 3.203.554 4.312 2.996 4.687 4.828a2.524 2.524 0 0 0 2.278 2.023c1.875.156 4.453 1.028 5.27 4.485 1.327 5.605-11.731 7.265-16.571 5.492Zm-30.956 19.976c-8.387-5.46 6.043-23.156 14.258-26.71l-.004-.294c8.215 3.293 23.101 21.055 14.715 26.641-7.735 5.152-13.567-1.836-14.446-2.973v.055s-6.07 8.785-14.523 3.281Zm-64.277-6.09.027.024a3.77 3.77 0 0 0-.063.195l.036-.219Zm-.157-.128h.004l.051.046-.074.016Zm11.035 28.414c7.551-2.153 7.614-8.891 7.27-11.774-.086-.703 10.535-3.164 11.445-10.308.809-6.348-8.254-8.829-16.992-8.762-1.262.012-1.738-1.66-.66-2.317 7.406-4.527 13.703-11.34 9.703-16.277-4.937-6.101-11.172-3.523-13.695-2.078a1.26 1.26 0 0 1-1.735-.488c-1.398-2.531-5.3-7.957-12.242-6-6.879 1.937-4.515 13.304-.129 21.77.578 1.116-.675 2.292-1.757 1.648-8.188-4.88-19.372-7.918-21.731-1.188-2.578 7.356 2.848 11.281 5.438 12.684.636.344.843 1.156.457 1.765-1.622 2.555-4.247 8.415 1.378 13.555 5.516 5.047 14.497-3.937 19.262-12.488.613-1.094 2.29-.7 2.348.555.453 9.761 4.46 21.75 11.64 19.703"/></g><path fill="none" stroke="#236346" stroke-linecap="round" stroke-linejoin="round" stroke-miterlimit="10" stroke-width="11.976" d="M4086.612 941.651s23.926-35.888 95.801-59.88c71.876-23.893 119.727-11.996 119.727-11.996m191.602 155.748s-23.926 0-95.801-35.987c-55.236-27.63-82.214-83.675-91.666-107.962-2.855-7.276-4.135-11.799-4.135-11.799s12.012-59.88 35.938-131.756c23.925-71.778 12.012-131.658 12.012-131.658m-287.404 1568.786s119.727-59.88 251.466-47.885c131.739 11.996 131.739 83.872 263.477 59.88M622.612 4396.717s158.716-101.866 230.493-29.99c0 0 59.864 71.876 119.825 95.868 59.864 23.893 47.852 71.876 47.852 71.876m-83.79-395.27s-38.99 128.807-95.899 215.53m1317.388-251.418s59.863 155.65 35.937 323.295c-23.925 167.743-11.913 191.636-11.913 191.636m1556.84-862.217s83.79 59.88 167.579 179.64c83.887 119.761 167.676 251.42 167.676 251.42-11.914 95.867 0 227.525-23.926 347.384-23.925 119.76-83.887 167.645-83.887 167.645m586.917-682.675s-347.365 47.885-479.104 167.645" transform="matrix(0 -.03967 -.03973 0 271.214 267.193)"/></svg>