<svg xmlns="http://www.w3.org/2000/svg" width="500" viewBox="0 0 375 375" height="500" version="1.0">
    <defs>
        <clipPath id="a">
            <path d="M61.242 60.016h252.75v254.902H61.242Zm0 0"/>
        </clipPath>
    </defs>
    <path transform="matrix(.05123 0 0 -.05116 61.243 314.918)" fill="none" stroke-linejoin="round" d="M4010.314 4176.786s-117.585-17.636-461.037 119.712c-299.377 119.788-646.642 610.774-1131.7 461.058-521.889-161.091-1059.867-760.414-2185.619-233.545m3896.856-513.585s-17.614-117.65 119.72-461.134c119.797-299.356 610.803-646.658 461.114-1131.689-161.126-521.907-760.49-1059.846-233.492-2185.58" stroke="#44ab7a" stroke-width="35.928" stroke-miterlimit="10"/>
    <g clip-path="url(#a)">
        <path fill="#00bf63" d="m104.688 91.574.003-.004v.004h-.004Zm-15.133-2.36s-6.25 3.169-3.414 9.138c1.77 3.714 7.464 2.02 12.214-1 1.188-.754 2.672.378 2.258 1.722-1.675 5.426-1.82 11.489 2.285 12.192 6.008 1.023 7.633-4.715 7.856-5.625l.012.03s5.984 3.645 9.574-1.901c1.906-2.95-1.043-6.258-5.098-8.684-1.215-.727-.883-2.547.512-2.797 4.687-.84 8.68-2.906 7.922-6.363-1.305-5.942-7.242-5.293-8.172-5.153l.027-.027s1.133-6.906-5.363-8.148c-4.219-.805-6.211 5.312-6.45 11.152-.054 1.406-1.796 1.996-2.695.91-3.773-4.558-9.214-8.332-12.097-5.066-4.028 4.562 0 8.96.664 9.629Zm123.949-11.76s0-.005.004-.005v.004h-.004Zm-19.637 2.089c.79 3.922 6.414 3.781 11.63 2.137 1.5-.473 2.78 1.12 1.987 2.48-2.785 4.774-4.195 10.34-.488 11.969 5.574 2.441 8.547-2.73 8.98-3.563l.008.036s4.918 4.984 9.75.468c2.489-2.328.618-6.093-2.554-9.36-1.063-1.097-.227-2.937 1.297-2.862 4.593.23 8.718-.852 8.816-4.282.172-6.082-5.742-6.886-6.68-6.98l.032-.016s2.777-6.43-3.227-9.203c-3.809-1.762-7.152 3.403-8.84 8.867-.453 1.461-2.453 1.625-3.133.258-2.578-5.195-6.824-9.887-10.332-7.476-5.015 3.453-2.172 8.699-1.691 9.504l-.031-.012s-6.832 1.562-5.524 8.035ZM62.988 82.895c1.36-1.262 1.953-3.102 1.707-4.938-.218-1.605.149-3.535 2.258-5.168 4.578-3.55 11.559 7.793 11.856 12.863l-.16-.054c-3.438 3.824-15.723 8.449-17.172 2.89-.7-2.675.289-4.46 1.511-5.593Zm67.293-4.739c1.106-4.554 4.567-5.605 6.996-5.754a2.983 2.983 0 0 0 2.75-2.414c.465-2.379 1.883-5.652 6.114-6.36 7.386-1.241 8.382 15.942 5.613 21.895l-.149-.16c-6.253 2.254-23.082.012-21.324-7.207Zm42.922-1.91-.004.375c10.594 4.586 29.2 27.406 18.387 34.445-6.582 4.29-12.043 1.856-15.34-.746-2.066-1.629-4.926-1.71-7.101-.23-3.45 2.355-8.942 4.488-14.915.512-10.812-7.204 8.38-30.114 18.973-34.356Zm109.2 195.277v-.003h.003l-.004.003Zm-19.716 1.79c.68 3.976 6.407 3.964 11.708 2.43 1.496-.434 2.757 1.222 1.945 2.546-2.848 4.649-4.332 10.047-.723 11.758 5.973 2.836 9.145-3.406 9.145-3.406l-.008-.04c.672.665 5.074 4.688 9.64.665 3.18-2.801-.304-8.016-4.695-11.77-1.183-1.012-.531-2.941 1.024-3.027 5.695-.328 11.46-2.32 10.675-6.418-1.242-6.488-8.156-5.356-8.156-5.356l-.023.028c.136-.934.785-6.86-5.164-8.16-3.336-.735-5.383 2.953-6.282 7.425-.3 1.524-2.324 1.89-3.148.575-2.402-3.829-5.586-6.512-8.434-4.672-5.554 3.586-1.906 9.562-1.906 9.562l.035.012c-.918.223-6.66 1.848-5.632 7.848ZM296.54 162.84c-.004 0-.004-.004-.004-.004h.008c-.004 0-.004.004-.004.004Zm-15.133-2.473c-.832.434-6.011 3.403-3.566 8.973 1.46 3.32 6.094 2.527 10.476.328 1.883-.945 4.032.777 3.524 2.82-1.16 4.684-.906 9.262 2.605 9.965 6.48 1.305 8.043-5.52 8.043-5.52l-.011-.03c.808.48 6.058 3.32 9.515-1.688 2.18-3.156-1.422-6.91-5.96-9.508-1.833-1.05-1.61-3.754.366-4.5 4.809-1.8 8.832-4.848 7.247-8.27-2.778-5.996-9.211-3.226-9.211-3.226l-.02.035c-.09-.937-.898-6.848-6.988-6.672-3.012.086-4.215 3.262-4.313 7.133-.047 2.07-2.488 3.172-4.082 1.848-2.945-2.45-6.086-3.61-8.129-1.43-4.52 4.824.47 9.738.47 9.738Zm6.98 137.168-.058-.164c5.078.297 16.434 7.27 12.883 11.84-1.742 2.242-4.008 2.394-5.746 2.047-1.477-.301-3.024.246-3.945 1.433-1.098 1.418-2.989 2.786-6.028 1.997-5.566-1.45-.933-13.723 2.895-17.153Zm.29-72.933-.16-.153c5.98-2.73 23.175-1.633 21.89 5.738-.719 4.125-3.87 5.551-6.238 6.036a3.262 3.262 0 0 0-2.613 2.933c-.2 2.414-1.325 5.73-5.79 6.79-7.234 1.71-9.378-15.11-7.09-21.344Zm-25.793-39.872c7.05-10.796 29.898 7.786 34.488 18.364l.375-.004c-4.246 10.582-27.183 29.75-34.394 18.95-6.653-9.962 2.37-17.474 3.84-18.602h-.07s-11.349-7.82-4.24-18.708Zm7.86-82.78-.028.034c-.086-.027-.164-.054-.25-.082l.277.047Zm.167-.204v.008l-.055.066-.027-.097Zm-36.687 14.215c2.78 9.727 11.48 9.805 15.203 9.363.91-.11 4.086 13.567 13.312 14.739 8.192 1.042 11.399-10.63 11.309-21.88-.012-1.628 2.144-2.242 2.992-.855 5.848 9.54 14.64 17.649 21.02 12.496 7.878-6.355 4.546-14.387 2.683-17.637a1.621 1.621 0 0 1 .63-2.234c3.265-1.8 10.273-6.824 7.75-15.766-2.509-8.859-17.18-5.812-28.11-.167-1.446.746-2.965-.868-2.133-2.262 6.3-10.543 10.223-24.95 1.535-27.985-9.5-3.32-14.566 3.664-16.379 7.004a1.61 1.61 0 0 1-2.277.586c-3.301-2.086-10.863-5.468-17.504 1.774-6.516 7.11 5.086 18.668 16.125 24.812 1.414.785.902 2.946-.711 3.02-12.606.586-28.09 5.746-25.445 14.992"/>
    </g>
    <path stroke-linecap="round" transform="matrix(.05123 0 0 -.05116 61.243 314.918)" fill="none" stroke-linejoin="round" d="M4086.57 941.667s23.943-35.883 95.852-59.856c71.832-23.973 119.796-11.987 119.796-11.987m191.553 155.672s-23.944 0-95.777-35.883c-55.36-27.714-82.279-83.753-91.734-108.108-2.822-7.252-4.042-11.68-4.042-11.68s11.896-59.933 35.84-131.775c23.944-71.842 12.048-131.698 12.048-131.698m-287.48 1568.85s119.796-59.932 251.488-47.946c131.768 11.987 131.768 83.83 263.537 59.933M622.612 4396.665s158.687-101.77 230.519-29.928c0 0 59.86 71.842 119.796 95.815 59.86 23.973 47.888 71.843 47.888 71.843m-83.88-395.171s-38.89 128.72-95.776 215.527m1317.304-251.487s59.86 155.748 35.916 323.405c-23.944 167.658-11.896 191.554-11.896 191.554m1556.821-862.26s83.804 59.932 167.685 179.644c83.804 119.788 167.684 251.486 167.684 251.486-12.048 95.815 0 227.59-24.02 347.302-23.944 119.788-83.804 167.657-83.804 167.657m586.858-682.617s-347.341 47.946-479.034 167.658" stroke="#236346" stroke-width="11.976" stroke-miterlimit="10"/>
</svg>
