<svg xmlns="http://www.w3.org/2000/svg" width="500" viewBox="0 0 375 375" height="500" version="1.0">
    <defs>
        <clipPath id="a">
            <path d="M245 67h27.832v23H245Zm0 0"/>
        </clipPath>
        <clipPath id="b">
            <path d="M224 65.117h22V86h-22Zm0 0"/>
        </clipPath>
        <clipPath id="c">
            <path d="M152 289h26v20.617h-26Zm0 0"/>
        </clipPath>
    </defs>
    <path d="M253.188 80.543c-.125-.207-.395-.375-.645-.332-1.348.477-2.262 1.684-3.176 2.742a38.763 38.763 0 0 0-5.008 6.59c.125-.832-.082-1.621-.457-2.352-.351-1.058-.972-2.035-1.43-3.054-1.245-2.223-2.535-4.719-4.964-5.84-.25-.082-.477-.27-.77-.207-.351.101-.664.582-.414.933.125.188.313.293.477.418.168.188.394.313.625.457.601.602 1.39.997 1.93 1.684.914 1.04 1.62 2.266 2.18 3.531.374 1 .706 2.04 1.019 3.078.312 1.059.226 2.036-.23 3.036-.372.914-.766 1.87-1.454 2.617-.351.207-.164.52.043.77.102.206.25.355.414.5-.25.144-.164.538.145.519.086 0 .168-.063.21-.125.083-.063.184-.106.247-.188 1.539-1.351 2.37-3.261 3.43-4.968 1.077-1.536 2.035-3.18 3.175-4.676 1.184-1.309 2.45-2.535 3.719-3.762.351-.355 1.078-.914.934-1.371Zm-1.352 1.039c-1.492 1.54-3.195 2.91-4.379 4.719-.894 1.328-1.766 2.66-2.66 3.988-.914 1.54-1.703 3.223-3.031 4.469-.207-.164-.332-.352-.477-.559.477-.5.809-1.144 1.121-1.77.371-.808.727-1.64.871-2.511.168-1.438-.52-2.785-.914-4.137-.644-1.851-1.64-3.64-3.031-5.031-.395-.395-.895-.664-1.309-1.04-.375-.374-.851-.624-1.226-1 .023-.038.062-.1.105-.12h.04c.042.02.085.02.124.039 2.493 1.02 3.782 3.598 5.028 5.82.476 1.04 1.078 2.016 1.453 3.117.375.668.437 1.414.312 2.164-.02.145-.02.29-.02.434-.023.168-.085.356.04.5.187.23.457.043.539-.164 1.539-2.578 3.305-5.05 5.379-7.215.832-.976 1.664-2.035 2.867-2.555h.02c-.247.31-.579.602-.852.852Zm-81.781 73.621c.207 0 .437.063.625-.02.082-.023.144-.085.207-.085.125-.02.226.023.37-.04.087-.042.126-.105.188-.167.106-.082.125-.145.23-.27.102-.25.247-.437.395-.664 1.121-1.621 2.344-3.16 3.489-4.762.933-1.058 1.828-2.203 2.761-3.261 3.2-3.68 6.957-6.903 11.196-9.313 3.55-1.973 7.14-3.95 11.027-5.238.977-.395 1.95-.809 2.969-1.102 2.199-.851 4.422-1.664 6.726-2.222.48-.125.957-.27 1.414-.438.164-.043.332-.144.457-.27.332-.417-.25-.687-.562-.831a4.627 4.627 0 0 0-.953-.415c-.207-.125-.477-.062-.688 0-.765.122-1.535.29-2.281.52-1.914.52-3.887.852-5.773 1.473-2.579.793-4.985 2.02-7.415 3.183-1.207.664-2.472 1.14-3.656 1.828a17.044 17.044 0 0 1-2.886 1.54c-.583.206-1.204.496-1.872.519.149-.707.168-1.457 0-2.145v.043c-.101-.414-.164-.851-.27-1.265-.1-.438-.288-.895-.394-1.352-.394-1.558-.87-3.203-1.867-4.492-.52-.621-1.039-1.266-1.601-1.848-.602-.582-1.309-1.039-1.993-1.52-.933-.644-2.078-.831-3.175-1.015-.875-.105-1.766-.273-2.641-.168-.539.106-1.098.188-1.64.332-.622.25-1.266.457-1.91.645-.766.332-1.641.644-2.368 1.101-.332.207-1.766 1.246-.809 1.457.27.04.54 0 .77-.148.477-.227.996-.395 1.453-.684 1.016-.394 2.074-.687 3.137-.976 1.578-.25 3.219-.25 4.797.082.914.187 1.722.664 2.492 1.207.684.621 1.184 1.433 1.723 2.18.457.668.832 1.351 1.183 2.078.125.562.313 1.101.477 1.644.082.457.23.895.355 1.328.145.582.164 1.164.29 1.746.105.395.124.77.144 1.188.082.559.125 1.14.082 1.723 0 .043-.02.144-.02.207-.125.062-.226.187-.332.273-1.847 1.434-3.758 2.848-5.379 4.55-1.64 1.81-3.113 3.743-4.609 5.677-1.54 2.035-3.031 4.093-4.34 6.297-.25.394-.48.808-.726 1.207-.125.183-.356.457-.149.664.125.101.274.082.418 0 .082-.024.145.02.227.02.207-.02.457.042.707 0Zm-.727-.52c1.953-3.41 4.34-6.546 6.75-9.644 1.078-1.309 2.137-2.703 3.363-3.906 1.496-1.496 3.2-2.703 4.84-4.012.102-.125.29-.144.352-.293.105-.125.125-.375.144-.558.043-.52.043-1.063-.062-1.583a9.668 9.668 0 0 0-.227-1.746c-.105-1.078-.414-2.058-.683-3.117-.211-.52-.274-1.039-.5-1.539-.29-.496-.52-1.058-.852-1.535-.625-.875-1.183-1.809-1.953-2.578-.395-.395-.914-.645-1.41-.938-.75-.414-1.621-.582-2.473-.683-1.14-.168-2.304-.149-3.469 0-1.14.125-2.242.62-3.343.914-.371.101-.664.312-.996.5-.29.12-.582.207-.852.37.477-.456 1.102-.706 1.684-.976.62-.289 1.246-.539 1.91-.707.89-.375 1.828-.601 2.781-.726.77-.02 1.559.105 2.328.207.79.144 1.617.293 2.367.605.953.52 1.891 1.184 2.68 1.953.602.707 1.266 1.391 1.785 2.18.496.832.79 1.77 1.102 2.684.226.789.414 1.601.664 2.39.101.602.246 1.164.37 1.766.024.457.024.957-.081 1.394-.043.208-.164.477.062.602a.287.287 0 0 0 .23.02c.766.105 1.516-.29 2.243-.54 1.184-.457 2.305-1.164 3.406-1.808a686.037 686.037 0 0 1 4.133-2.016c1.617-.789 3.238-1.539 4.899-2.203a45.275 45.275 0 0 1 5.796-1.601c1.309-.313 2.575-.727 3.922-.934.48.04.914.332 1.352.559-1.516.52-3.094.832-4.633 1.37-2.219.794-4.465 1.583-6.664 2.454-3.242 1.125-6.356 2.62-9.348 4.324-.851.5-1.742.914-2.574 1.434a84.56 84.56 0 0 0-3.656 2.476c-3.653 2.742-6.645 6.192-9.55 9.684-1.145 1.558-2.33 3.078-3.427 4.656-.168.27-.375.5-.48.79-.04.105-.145.167-.207.25-.207 0-.371.042-.559.144-.394-.082-.789-.082-1.164-.082Zm46.77 45.563c-.875-1.164-1.746-2.348-2.68-3.492-.79-.852-1.352-1.79-1.91-2.828-.332-.582-.664-1.164-.875-1.785-.082-.211-.059-.5-.29-.606-.144-.082-.35-.082-.437.106-.27.062-.52.207-.746.375-.082.062-.207.125-.25.27 0 .288.145.519.23.788.165.48.54.832.704 1.29.562 1.038 1.062 2.12 1.746 3.077.707.871 1.308 1.848 2.035 2.723.914 1.203 1.871 2.453 2.93 3.512.394.394.789.77 1.222 1.12.106.106.23.188.395.188 1.871-.062 1.476-.5.5-1.664-.934-.914-1.746-1.992-2.574-3.074Zm2.136 4.238c-.02-.02-.062-.039-.082-.082-.062-.062-.125-.101-.187-.144-1.578-1.332-2.805-3.016-4.07-4.613-.395-.48-.747-1.02-1.102-1.54-.54-.664-1.059-1.308-1.43-2.078-.375-.73-.812-1.414-1.144-2.164-.29-.433-.582-.89-.727-1.414.188-.12.395-.246.625-.289.395 1.27 1.184 2.371 1.824 3.535.645.953 1.477 1.828 2.16 2.743.727.957 1.434 1.914 2.16 2.867.356.457.688.937 1.083 1.37.52.583 1.12 1.102 1.554 1.747-.226.062-.433.062-.664.062Zm14.789-34.504c.082-.144 0-.332-.148-.457-.352-.351-.703-.707-1.078-1.015-1.746-1.375-3.426-2.809-5.274-4.035a68.43 68.43 0 0 0-6.812-3.575c-2.848-1.246-5.61-2.722-8.64-3.511-5.774-1.54-11.774-2.059-17.735-1.953-3.344.164-6.688.308-9.969.914-2.66.414-5.297.996-7.953 1.496-.75.144-1.516.25-2.266.414a8.712 8.712 0 0 0-.683.168c-.063.02-.106.043-.125.082a.787.787 0 0 0-.25.27c-.207.331-.438.644-.582 1-.27.581-.559 1.1.375 1.058 1.39.105 2.762-.352 4.133-.54 3.82-.5 7.601-1.37 11.441-1.706 2.078-.27 4.176-.309 6.273-.457 2.637-.082 5.274.394 7.91.562.169.02.333.02.5.02-.105.832-.35 1.664-.35 2.496-.231 3.906-.27 7.879.456 11.742.332 2.14.54 4.367 1.473 6.34.168.293.332.625.539.852.207.125.418.25.625.355.187.043.37.043.558.102a.35.35 0 0 0 .375-.332c0-.188-.105-.352-.144-.54-.145-.476-.313-1.039-.457-1.539-.438-1.62-.625-3.304-.977-4.968-.23-1.391-.25-2.848-.437-4.239-.102-.707-.102-1.394-.082-2.097.02-1-.043-1.977.105-2.973.125-1.351.227-2.723.582-4.055.082-.312.332-.664.352-.976.164.02.332.043.539.062 2.68.332 5.254 1.121 7.766 2.035 4.863 1.708 9.367 4.243 13.769 6.883.563.332 1.059.727 1.559 1.14.351.27.726.481 1.039.794a15.6 15.6 0 0 0 1.308.976c.29.184.602.457.977.434.308-.02.601-.125.89-.125.458.063.583-.477.48-.828.063-.106 0-.211-.062-.274Zm-.418.606c-.289 0-.582.082-.89.125-.438-.063-.77-.438-1.121-.668-.832-.621-1.64-1.29-2.473-1.91-1.289-.938-2.68-1.727-4.09-2.473-3.824-2.246-7.832-4.222-12.066-5.594-2.203-.746-4.488-1.37-6.813-1.64-.25 0-.707-.168-.808.125-.106.062-.188.187-.149.312-.601 1.41-.765 2.973-.89 4.489-.106 1.02-.207 2.035-.145 3.054-.086 1.227.04 2.434.184 3.66a41.18 41.18 0 0 0 .75 5.508c.207.809.27 1.66.496 2.473.187.664.394 1.332.605 2.016-.23-.02-.418-.188-.625-.27a7.194 7.194 0 0 1-.664-1.246c-.851-2.164-.996-4.492-1.37-6.758-.583-3.492-.458-7.066-.27-10.598-.02-.77.25-1.5.312-2.265.063-.23.102-.606-.168-.645a.27.27 0 0 0-.289-.062c-2.492-.125-4.945-.5-7.437-.606-2.012.043-4.028.188-6.043.356-4.36.332-8.637 1.289-12.957 1.87-1.29.188-2.575.602-3.883.497.183-.352.308-.727.578-1.059.062-.144.21-.25.273-.394 4.36-.707 8.7-1.79 13.102-2.348 1.601-.25 3.242-.312 4.86-.394a46.102 46.102 0 0 1 5.921-.125c4.942.039 9.883.707 14.68 1.992 2.66.707 5.129 2.02 7.644 3.12 2.743 1.267 5.461 2.575 8.016 4.259 1.91 1.457 3.902 2.87 5.629 4.554 0 .063.039.102.082.145-.02.02-.02.043-.043.082-.04.125.105.25.062.418Zm0 0"/>
    <path d="M192.648 170.668c-.183-.54-.308-1.121-.664-1.578-2.367-3.887-4.195-5.488-8.761-6.32-1.516-.293-3.075-.458-4.614-.415-1.66.04-3.28.29-4.941.415-.645.062-1.328 0-1.973.02-.332 0-.683.062-1.015-.063-.23-.125-.582-.165-.582.187-.211.23-.332.543-.48.79-.063.124-.04.292-.083.417-.101.457.414.5.746.52 1.496.02 2.973-.043 4.469-.25 1.348-.168 2.719-.168 4.07-.125 1.39-.106 2.782-.125 4.133.27 2.95.788 4.629 2.058 6.5 4.448.559.914 1.184 1.852 1.535 2.891.645 1.348 1.14 2.785 1.309 4.258 0 .336.062.668.062 1-.043.746-.312 1.496-.375 2.246 0 .332.063.664.086 1.016-.062.25-.086.5.102.707.043.144.168.27.332.25.414-.02.644-.457.832-.79.332-1 .434-2.058.496-3.097.125-1.766.086-3.598-.539-5.281-.25-.496-.457-.996-.645-1.516Zm.582 7.336c-.062.668-.082 1.289-.312 1.934-.059.312-.164.605-.395.851 0-.02-.02-.02-.02-.039.083-.418-.019-.852-.038-1.29.039-.605.226-1.183.332-1.765.121-.562.02-1.144-.024-1.726-.164-1.559-.726-3.035-1.39-4.45-.207-.683-.602-1.308-.977-1.91a8.111 8.111 0 0 0-1.41-1.914c-1.039-1.164-2.266-2.222-3.719-2.847-1.226-.5-2.511-.957-3.843-1.082-1.036-.125-2.098.023-3.133 0-1.371-.04-2.742 0-4.113.187-1.372.168-2.762.25-4.133.168.02-.27.207-.5.332-.726.02-.024.02-.043.043-.063.082.02.187 0 .27-.062 2.655.25 5.273-.313 7.933-.395 1.496-.043 3.012.125 4.484.395 1.246.226 2.492.558 3.633 1.101 1.852.809 3.16 2.473 4.238 4.137.27.433.563.851.809 1.308.187.457.293.957.5 1.414.289.747.644 1.473.789 2.266.312 1.496.289 3.012.144 4.508Zm-57.835 40.742c.394.371.558.52.933.934.188.187.395.375.645.457.664.293.558-.582.601-.977.727-3.512 1.352-6.96 2.098-10.476.414-2.286 1.101-4.532 2.203-6.567.121-.23.246-.457.352-.687.082-.164.207-.332.101-.52-.101-.207-.371-.226-.578-.25-.332-.062-.668-.101-.977-.27-.144-.269-.539-.1-.5.188-.226-.043-.332.188-.394.356-.559 1.246-1.164 2.449-1.68 3.718-1.101 3.055-2.12 6.172-2.578 9.395-.164 1.332-.496 2.66-.351 4.031.042.211-.02.48.125.668Zm.62-3.617c.208-1.89.602-3.723 1.145-5.55.457-1.517.89-3.013 1.453-4.513.582-1.433 1.285-2.824 1.91-4.238.415.164.832.29 1.266.332-.871 1.559-1.598 3.242-2.055 4.969-.394 1.328-.625 2.703-.894 4.074-.496 2.117-.828 4.281-1.246 6.422-.207.977-.52 1.953-.559 2.973-.457-.332-.77-.832-1.226-1.164-.082-1.102 0-2.223.207-3.305Zm-14.038 1.019c.312.063.52-.25.601-.52.086-.25.23-.542.125-.812-.164-.27-.371-.5-.558-.77-1.207-1.35-2.348-2.847-2.993-4.573-.414-.871-.789-1.723-1.039-2.68-.515-1.809-.746-3.719-.726-5.613 0-1.516.062-3.118.332-4.633.187-.914.457-1.77.668-2.703.351-1.414.851-2.828 1.64-4.074.684-1.247 1.391-2.536 2.344-3.594.23.101.356-.149.438-.313.125-.27.27-.5.437-.75.309-.457.727-.957.914-1.496-.023-.5-.687-.226-.937-.062-.164.062-.352.125-.52.25-.246.27-.52.5-.828.707-1.059.683-1.934 1.664-2.7 2.68-.706.769-1 1.745-1.37 2.703-.457.914-.707 1.914-1.102 2.867-.457 1.101-.914 2.246-1.203 3.41-.23.957-.21 1.953-.375 2.91-.02.727 0 1.39-.105 2.121-.04 1.246.27 2.473.418 3.7.226 1.745.808 3.386 1.515 5.007.332.688.746 1.332 1.121 2.016 1.016 1.582 2.098 3.41 3.903 4.222Zm-4.88-7.234c-.687-1.539-1.081-3.242-1.265-4.906-.23-1.27-.394-2.535-.187-3.824-.063-1.059.187-2.121.25-3.18.183-1.309.703-2.559 1.183-3.785.477-1.14.828-2.367 1.371-3.492.246-.645.434-1.247.848-1.809a14.728 14.728 0 0 1 2.617-2.805c.25-.125.5-.312.727-.476.148-.086.273-.25.394-.375.086-.082.188-.106.293-.145-.644 1.016-1.476 1.91-2.203 2.867-.852 1.29-1.578 2.641-2.281 4.012-.582 1.27-.875 2.64-1.227 3.992-.25.871-.476 1.809-.539 2.723-.312 3.387-.27 6.879.852 10.121.351 1.02.828 1.914 1.222 2.91.457.832.977 1.64 1.559 2.39.437.626.996 1.165 1.434 1.79.039.062.125.082.082.164-.063.187-.102.375-.188.543-1.41-.813-2.406-2.184-3.258-3.555-.644-1.02-1.27-2.039-1.683-3.16Zm40.79 88.152-.024-.023c-.828-.395-1.765-.559-2.531-1.102-.812-.476-1.434-1.226-2.121-1.87-1.121-1.102-2.262-2.223-3.219-3.493-2.512-3.387-4.691-7.023-6.355-10.933-.664-1.516-1.328-3.055-2.219-4.47-1.29-2.077-2.91-3.948-3.95-6.171-.726-1.516-1.12-3.137-1.472-4.781-.5-2.18-.957-4.407-.996-6.672 0-1.371.207-2.742.352-4.113.043.183.105.351.144.539.125.52.356.996.582 1.476.395.953.852 1.953 1.414 2.848 1.203 1.847 2.637 3.554 4.403 4.902.644.48 1.12 1.106 1.785 1.54.562.394 1.308.726 2.015.769.434.062 1.598-.52.977-1.02-.895-.457-1.684-1.078-2.492-1.683-.606-.457-1.102-.997-1.64-1.536-.395-.336-.727-.75-1.06-1.144-2.16-2.328-3.699-5.195-4.675-8.23-.188-.626-.395-1.27-.582-1.891v-.063c.023-.937.21-1.894.394-2.808.086-.332.25-.79.106-1.14-.106-.274-.352-.419-.563-.626-.246-.25-.558-.539-.953-.539a.358.358 0 0 0-.27.188 6.23 6.23 0 0 1-.5.789v-.024c-.101.106-.082.274.024.375-1.082 2.434-1.477 5.113-1.684 7.774v-.02c-.187 1.727-.062 3.473.082 5.195.063 1.52.414 2.786-1.078 3.723-.77.727-1.765 1.184-2.699 1.684-1.184.457-2.492.582-3.738.558-.563-.101-1.207-.062-1.766-.246-.812-.437-1.664-.75-2.41-1.27-.168-.124-.352-.25-.5-.413-.371-.23-.828-.356-1.223-.168-.48.27.309 1.183.52 1.496 1.492 1.664 3.32 2.16 5.48 2.222 1.266.168 2.555-.183 3.758-.558.668-.145 1.246-.438 1.871-.727.832-.336 1.516-.875 2.242-1.394.27 1.101.477 2.246.832 3.324.313 1.082.829 2.12 1.223 3.16-.496 0-1.035.063-1.492.25-.79.145-1.559.5-2.246.957-.934.746-1.91 1.453-2.7 2.367a.41.41 0 0 0 .313.73c.293.02.563-.062.809-.187a1.02 1.02 0 0 0 .437-.293c.332-.25.707-.457 1.02-.746 1.308-.937 2.949-1.914 4.61-1.496.038.02.062.02.081.02.188.207.645.375.809.582a18.28 18.28 0 0 1 2.972 3.699c1.328 2.097 2.16 4.469 3.407 6.629 1.246 2.558 2.8 4.949 4.422 7.277 1.597 2.223 3.261 4.469 5.46 6.152.688.54 1.434 1.04 2.305 1.227.563.102 1.125.102 1.703.227h-.02c.415.085.895-.165 1.02-.56.04-.269-.23-.374-.394-.269Zm-11.672-10.144c-1.371-2.102-2.453-4.387-3.613-6.633-.75-1.598-1.477-3.219-2.473-4.695-.5-.79-1.04-1.52-1.703-2.203-.5-.543-.957-1.125-1.598-1.496-.062-.043-.187-.106-.25-.188-.043-.062-.125-.082-.187-.082-.02-.023-.043-.023-.063-.043-1.703-.5-3.426.395-4.816 1.328-.313.23-.606.48-.914.707-.188.106-.375.211-.52.375-.168.125-.394.188-.601.25.726-.851 1.68-1.515 2.574-2.222.582-.336 1.14-.645 1.828-.77a4.14 4.14 0 0 1 1.95-.25c.355-.105.167-.5.062-.707-.184-.5-.395-.977-.602-1.453-.394-.957-.726-1.914-.953-2.934-.149-.746-.356-1.496-.52-2.242-.023-.125-.086-.23-.187-.273-.082-.063-.207-.082-.356.023-.02.02-.058.04-.082.063-.644.433-1.265.953-1.972 1.289-.727.351-1.434.703-2.242.89-1.184.375-2.43.645-3.676.48-1.164-.042-2.305-.25-3.344-.769-.809-.52-1.578-1.101-2.016-1.996.168-.02.293.125.457.145.106.125.23.23.356.312.726.582 1.617.875 2.43 1.352.539.289 1.14.289 1.742.332 1.39.168 2.867-.02 4.195-.457 1.102-.52 2.203-1.059 3.094-1.89.664-.438 1.246-1.165 1.27-2.017.1-1.976-.356-3.93-.212-5.882.063-2.164.293-4.344.875-6.465.27-1.102.602-2.285 1.266-3.242a.18.18 0 0 0 .145-.063c.125.106.25.227.375.332.168.125.414.313.332.563-.227 1.164-.54 2.328-.54 3.511-.019.063-.019.106.02.168.895 3.493 2.39 6.899 4.715 9.664.976 1.121 1.973 2.246 3.094 3.2.851.668 1.703 1.351 2.636 1.851-.414.313-.914.125-1.347-.062-1.082-.356-1.766-1.352-2.66-2.016-1.743-1.309-3.137-2.992-4.32-4.824a25.17 25.17 0 0 1-1.868-4.012c-.168-.644-.351-1.266-.457-1.91a.26.26 0 0 0-.289-.23c-.063 0-.125.042-.168.085-.02 0-.02 0-.043.02-.125.062-.164.25-.082.375-.207 1.91-.52 3.824-.477 5.758.04 1.578.333 3.094.622 4.633.562 2.703 1.101 5.488 2.554 7.878 1.227 1.997 2.723 3.805 3.864 5.86.476.855.87 1.77 1.289 2.664a55.695 55.695 0 0 0 6.957 12.074c1.37 1.684 2.949 3.18 4.504 4.656.605.477 1.289.914 2.035 1.184.293.105.605.21.914.312a7.257 7.257 0 0 0-.703-.101c-3.739.082-8.352-7.297-10.301-10.207Zm122.715-94.887a70.87 70.87 0 0 1-2.285-5.113c-.52-1.328-.934-2.68-1.56-3.969-.913-2.039-2.405-3.742-3.839-5.426-.687-.851-1.351-1.703-2.18-2.41-.562-.48-1.207-.812-1.726-1.332 1.039-.746 2.16-1.351 3.2-2.12.87-.685 1.534-1.56 2.323-2.33 1.246-1.183 2.473-2.41 3.532-3.737.851-1.02 1.726-2.059 2.285-3.266.27-.789-.79-.621-1.266-.727-1.434-.082-2.848-.375-4.277-.437-1.457-.04-2.825-.332-4.282-.414-.976-.043-1.93-.02-2.906 0-2.554-.02-5.191.082-7.601 1.02.023-1.352.187-2.704.105-4.055-.187-1.309-.582-2.598-.996-3.867-.23-.477-.644-2.305-1.184-2.305-.21-.024-.355.144-.394.332-.125.226-.356.394-.543.559-.52.394-1.059.644-1.617 1.019-.938.602-1.809 1.29-2.7 1.953-2.785 2.14-5.296 4.719-6.937 7.836-.644 1.25-1.246 2.54-1.414 3.95-.102 1.124-.25 2.327.23 3.367-.933.062-1.87.187-2.761.542a20.18 20.18 0 0 0-4.258 2.079c-3.18 1.722-5.734 4.468-7.352 7.71-.52 1.04-.687 2.223-.75 3.368-.039.562-.039 1.101-.082 1.664 0 .351-.207.914.23 1.078.372.062.766.023 1.16 0 .376-.04.75-.063 1.102-.02 1.266.25 2.555.332 3.844.332 1.535.145 3.031-.207 4.485-.726.52-.145 1.039-.293 1.472-.602-.765 3.782-1.578 7.774-.496 11.575.29 1.082.809 2.082 1.328 3.058.563 1.102 1.266 2.098 2.18 2.91.543.477 1 1.39 1.809 1.434h.039a.692.692 0 0 0 .5-.25c.332-.375.644-.77.957-1.145 1.058-1.414 1.992-2.867 3.132-4.218 1.727-2.122 3.95-4.094 4.407-6.922.851.5 1.578 1.183 2.449 1.664.496.312 1.016.582 1.535.87.977.544 1.934 1.102 2.973 1.438 1.68.457 3.363.953 5.086 1.309 2.015.351 3.988.789 6.023 1.016 2.762.23 5.504-.04 8.246-.477.621-.105 2.156-.188 1.555-1.207-.914-1.64-1.992-3.242-2.781-5.008Zm0 0"/>
    <path d="M232.836 212.156c-.395-.914-.914-1.808-1.64-2.496a22.555 22.555 0 0 0-2.723-2.16c1.082-.727 1.703-1.953 2.367-3.035.332-.602.75-1.164 1.02-1.79.163-1.038-2.348-.87-3.032-.85-1.144.023-2.223.374-3.281.75-.043-1.02-.52-1.872-1.145-2.641-.351-.52-.664-1.082-.996-1.621-.101-.145-.164-.438-.351-.54-.293-.187-.602.063-.852.207-.418.27-.812.54-1.164.895-.621.707-1.203 1.434-1.578 2.328-.375 1.059-.5 2.223-.563 3.324-.558.106-1.035.395-1.535.645-.933.5-1.867 1.058-2.535 1.914-.457.559-.789 1.223-1.121 1.867-.27.606-.664 1.164-.809 1.809-.043.793 1.829.355 2.325.312 1.164-.207 2.367-.125 3.53-.414.126 1.246.106 2.516.54 3.719.23.625.605 1.207 1.039 1.726.313.313.54.747.938.958.039 0 .082.019.12.019.669 0 1.04-1.144 1.333-1.621.433-.77.789-1.578 1.058-2.434 1.184.688 2.555 1 3.883 1.227.645.148 1.309.312 1.973.418.996.164 1.992.394 3.011.476.27.02.727.188.915-.125.125-.187.062-.414.042-.62-.085-.794-.457-1.52-.77-2.247Zm-16.824-23.488c-.29-.477-.664-.914-.996-1.352-.727-1.039-1.348-2.16-2.325-3.035-1.226-1.226-2.699-2.16-4.238-2.949-.933-.52-1.93-.957-2.969-1.227-2.14-.562-4.422-.75-6.625-.625-2.16.083-4.382.375-6.336 1.395.211-5.844-3.445-10.5-8.843-12.43-2.473-.957-5.172-.976-7.77-1.394-1.308-.227-2.68-.125-3.988-.438-.207-.039-.453-.144-.64.024-.231.226-.063.582-.024.87.25 1.208.457 2.434.664 3.661.336 3.281.644 4.781 2.617 7.504h-.64c-.438 0-.876 0-1.29.062-.562.102-1.12.29-1.66.457-.726.227-1.476.371-2.203.621-1.121.375-2.055 1.102-3.05 1.684-1 .625-2.122 1.145-3.137 1.746-.957.582-1.809 1.332-2.762 1.914-.75.414-1.578.871-2.367 1.246-.293.082-.418.395-.25.645 1.41 1.433 3.074 2.617 4.547 3.992 1.87 1.434 3.945 2.598 6.066 3.617 1.305.664 2.738 1.059 4.152 1.41-.562 1.02-1.328 1.934-1.722 3.059-.645 1.785-1.102 3.637-1.477 5.484-.684 3.203-1.101 6.446-1.309 9.707-.207 4.243-1.101 8.442-1.246 12.7.02.355-.144.875.106 1.164a.85.85 0 0 0 .371.105c.437 0 .875-.332 1.289-.476.77-.332 1.559-.606 2.324-.957 2.473-1.27 4.926-2.536 7.188-4.157a64.246 64.246 0 0 0 4.383-3.347c.87-.707 1.742-1.414 2.492-2.246 1.203-1.391 2.324-2.868 3.633-4.157 1.351-1.62 2.492-3.43 3.656-5.175 1.058 2.703 3.594 3.636 5.918 4.949.957.476 1.828 1.058 2.742 1.597 1.184.625 2.41 1.145 3.426 2.016.664.668.808.25 1.14-.394a23.124 23.124 0 0 0 1.703-3.739c.481-1.187.708-2.433.915-3.68.457-2.476.687-5.03.27-7.527-.333-1.285-.727-2.597-1.368-3.781-.668-1.02-1.352-2.059-2.016-3.074 1.078.02 2.078-.293 3.051-.73 1.063-.395 1.996-1.079 3.035-1.56.703-.288 1.41-.6 2.137-.87.976-.332 1.996-.52 2.992-.77 1.266-.082.871-.875.434-1.539Zm-25.875-86.012c.27.23.539.438.789.688 1.039 1.02 1.722 2.347 2.43 3.597 2.304 4.008 4.382 8.168 7.312 11.762 1.848 2.328 3.84 4.617 6.332 6.258 2.242 1.434 4.879 1.973 7.29 3.012-.29.23-.54.5-.79.75-.54.625-1.184 1.207-1.621 1.914-.516.87-.809 1.867-1.285 2.761-.871 1.54-.895 3.348-1.516 4.989-.437 1.312-.394 2.703-.5 4.054-.082.602-.25 1.184-.375 1.766-.27 1.04.938.52 1.477.457.976-.101 2.054-.25 3.05-.144 1.372.207 2.743.476 4.133.355a35.587 35.587 0 0 0 3.95-.398c.953-.165 1.847-.52 2.78-.727a21.798 21.798 0 0 0 5.087-1.621c.793-.375 1.644-.664 2.39-1.121.707-.418 1.29-.977 2.035-1.332.29 1.476.852 2.992 1.993 4.035.957.871 2.035 1.598 3.136 2.305.54.332 1.102.582 1.66.875.395.207.727.52 1.122.707a.522.522 0 0 0 .23.062c.477 0 .871-.707 1.203-1 .727-.726 1.207-1.664 1.664-2.578.664-1.227 1.371-2.453 1.66-3.844.457-1.996.727-4.054.582-6.09-.02-1.914-.707-3.68-1.414-5.425-.558-1.559-1.058-3.16-1.992-4.551-.351-.5-.664-1-1.058-1.457-.438-.438-.977-.77-1.516-1.121 2.137-.168 4.234-.875 6.168-1.809 1.223-.687 2.43-1.457 3.527-2.328 3.47-3.41 4.903-8.418 5.442-13.137.148-1.414.312-2.804.543-4.199.101-.644.226-1.289.308-1.933.024-.31.168-.684-.02-.954-.124-.148-.35-.148-.538-.086-.395.106-.79.188-1.207.25-1.618.145-3.239.293-4.797.79-1.016.25-1.973.644-2.906 1.101-1.141.52-2.286 1.04-3.446 1.496-.062-1.558-.418-3.137-1.164-4.508a24.624 24.624 0 0 0-2.472-3.367 46.882 46.882 0 0 0-5.692-4.656c-1.617-1.207-3.344-2.223-5.043-3.305a11.65 11.65 0 0 0-1.64-.894c-.293-.106-.645-.457-.958-.23-.125.105-.144.25-.144.398-.063.433-.188.851-.313 1.265-.644 1.852-1.12 3.742-1.62 5.633a39.561 39.561 0 0 0-.954 5.133c-.125 1.476.082 2.953.434 4.367-2.801-1.332-5.895-1.953-8.969-2.246-3.094-.063-6.148.48-9.18.977-2.035.273-4.05.73-6.086 1.02-2.699.394-5.484.85-8.16 1.456-.457.121-.937.145-1.37.29-.188.081-.169.394.019.538Zm0 0"/>
    <g clip-path="url(#a)">
        <path d="M248.824 80.086c1 1.246 2.453 1.309 3.824.684-.144.52-.125 1.039-.207 1.558-.25 1.207-.21 2.578.352 3.703.664 1.285 1.121 2.969 2.598 3.551.039 0 .058.023.101.023.188 0 .352-.148.438-.312.187-.27.37-.54.558-.79 1.02-1.226 2.098-2.597 2.16-4.26.625.25 1.122.726 1.723 1.038.52.25 1.063.477 1.621.625.852.207 1.766.184 2.66.246.621-.039 3.508.043 3.426-.808-.062-.356-.27-.664-.375-.996-.476-1.313-.707-2.727-1.371-3.953-.371-.602-1.016-.954-1.578-1.348.687-.5 1.414-.918 2.058-1.457.497-.438.934-.934 1.368-1.453.437-.52.812-1.082 1.207-1.645.496-.664 1.058-1.246 1.515-1.933.375-.582.645-1.204.953-1.805.188-.461.957-1.688.125-1.852-2.406.25-4.753.5-7.14.957-1.246.27-2.473.664-3.637 1.204-.664.312-1.265.769-1.953 1-.246-.645-.766-1.126-1.14-1.684-.376-.52-.727-1.063-1.122-1.582-.207-.27-.414-.52-.625-.79-.207-.288-.558-.85-.933-.476-.746 1.246-1.598 2.473-2.387 3.719-.707 1.227-1.29 2.684-1.164 4.117-1.746-.082-3.55.145-5.191.77-.477.125-1.02.332-.583.89.645 1.207 1.786 2.04 2.72 3.059Zm0 0"/>
    </g>
    <g clip-path="url(#b)">
        <path d="M225.129 68.3c.875 2.391 1.516 5.009 3.45 6.798-.563.539-1.29.953-1.892 1.496-.558.414-.976.996-1.39 1.535-.23.312-1.246 1.832-.727 2.082 1.285.394 2.68.582 4.028.434 1.082-.082 2.12-.145 3.156-.457.043 1.62.418 3.16 1.059 4.636.125.227.125.54.375.707.042.02.105.04.144.04.23 0 .395-.247.543-.415a9.194 9.194 0 0 0 1.39-2.097c.747-1.395 1.497-2.891 1.598-4.493a6.9 6.9 0 0 0 1.621.145c.602 0 1.203.125 1.805.062.5-.039.977-.207 1.477-.27.62-.1 1.246-.206 1.847-.394.29-.125.54-.332.832-.52 1.41-.581.477-1.1-.207-1.827-.73-.602-1.414-1.27-2.222-1.746-.664-.313-1.414-.54-2.16-.54.601-1.601 1.078-3.304.644-5.011a18.528 18.528 0 0 0-.543-1.828c-.164-.375-.289-.852-.664-1.059-.25-.086-.434.145-.645.27-.515.351-1.058.707-1.472 1.164-.809.851-1.371 1.953-1.66 3.097-1.973-1.933-3.825-3.097-6.563-3.68a22.886 22.886 0 0 1-1.871-.581c-.852-.27-1.723-.73-2.617-.668-.352.125-.227.52-.125.793.25.789.52 1.535.789 2.328Zm0 0"/>
    </g>
    <path d="M144.512 139.7c1.66.038 3.343.144 5.004.038 1.164.024 2.386.168 3.55.024 1.309-.063 2.536-.543 3.782-.875 1.285-.332 2.593-.707 3.757-1.352.02 1.52.063 3.078.958 4.387.808 1.308 1.246 2.848 2.156 4.094.105.082.21.105.312.105.332 0 .688-.332.977-.48 1.101-.621 1.992-1.578 2.742-2.575.852-1.125 1.684-2.308 1.973-3.722.375-1.828.52-3.742.539-5.614 1.164.938 2.66.98 4.05 1.313.747.187 1.473.434 2.243.477.394-.043.414-.563.5-.872.101-.707.101-1.457.062-2.183-.062-.75-.062-1.52-.332-2.227-.25-.726-.75-1.308-1.183-1.91-.582-.957-1.434-1.683-2.247-2.41-1.617-1.332-3.8-1.227-5.75-1.434.641-.644.852-1.582.997-2.433.351-1.852.062-3.742-.727-5.446-.582-1.476-1.766-2.558-2.867-3.66-1.016-1.14-2.223-2.078-3.508-2.886-.457-.332-.895-.52-1 .226-.664 2.016-.809 4.156-.684 6.258-1.203-.75-2.597-1.063-4.027-1.063a31.934 31.934 0 0 0-4.445.211 50.202 50.202 0 0 0-3.864.582c-.207.04-.437.063-.539.27-.086.164-.023.352.082.5.227.371.457.727.684 1.102.5.808.914 1.66 1.434 2.472.957 1.29 2.015 2.555 3.343 3.492-1.308.77-2.054 2.098-2.863 3.344-1.851 2.516-2.848 5.512-4.195 8.297-.457.953-.79 1.93-1.227 2.887-.082.187-.187.375-.27.562-.144.332.27.52.583.5Zm-33.395 41.175c1.121.79 2.41 1.266 3.633 1.828 1.723.79 3.574 1.328 5.484 1.414 1.141.102 2.344.227 3.426-.293-1.433 1.477-1.992 3.516-2.555 5.446-.457 1.789-.832 3.597-.746 5.445.063 1.87.207 3.785.829 5.574 1.101 2.742 2.636 5.383 4.921 7.274 1.559 1.351 3.368 2.328 4.883 3.718a.61.61 0 0 0 .29.106c.562 0 .913-1.082 1.183-1.477.25-.414.52-.832.789-1.246a24.986 24.986 0 0 0 2.16-4.012c.79-1.515 1.516-3.14 1.516-4.863.87.227 1.683.727 2.574.895 2.16.539 4.344.976 6.543 1.203 1.289.086 2.555.312 3.844.355 1.804-.023 3.59-.023 5.379-.332 1.246-.168 2.53-.293 3.757-.582.582-.125 1.266-.23.77-.957-1.207-3.035-2.348-6.113-3.676-9.105-.644-1.328-1.226-2.723-1.996-3.989-.746-1.101-1.535-2.265-2.45-3.246.684-.37 1.348-.683 1.973-1.183.832-.664 1.579-1.414 2.43-2.059 2.906-2.39 5.586-5.09 7.914-8.043 1.016-1.414 2.074-2.785 3.133-4.176 1.457-2.144 2.93-4.285 3.95-6.675.765-1.66 1.554-3.305 2.323-4.989.375-.828.872-1.683.977-2.597-.02-.645-.75-.371-1.145-.25-1.824.605-3.777.5-5.648.812-2.344.27-4.629.934-6.996 1.102-2.39.187-4.777.207-7.168.476-2.242.25-4.465.75-6.707 1.082-1.867.332-3.777.54-5.629 1.02-1.035.312-2.035.707-3.07 1.039-.168-1.914-.563-3.805-.957-5.676-.582-2.598-1.29-5.277-3.012-7.379-.684-.894-1.328-1.828-2.055-2.703-.25-.246-.437-.684-.832-.684-.164.02-.27.125-.351.25-.27.415-.563.832-.871 1.247a70.786 70.786 0 0 1-3.2 4.18c-1.765 2.077-3.406 4.257-4.82 6.609-1.867 2.742-3.465 5.714-4.316 8.937-1.977-.707-4.051-1.101-6.149-1.25-1.515-.062-3.031.106-4.527.274a151.1 151.1 0 0 0-3.469.52c-.394.1-.871.144-1.183.433-.415.543.476 1.27.746 1.746.832 1.187 1.144 2.64 1.578 3.992 1.37 3.992 3.16 8.148 6.523 10.789Zm36.426 66.825c1.39-.25 2.7-.876 4.008-1.372 1.14-.52 2.265-1.062 3.324-1.726.52-.313 1.059-.582 1.555-.934.148-.106.293-.211.355-.375.102-.356-.207-.625-.437-.852-.52-.562-1.102-1.062-1.559-1.664-.828-1.144-3.176-4.011-4.484-4.3 1.078-1.727 2.16-3.536 2.906-5.45.644-1.953 1.309-3.949 1.453-6.004.043-.914-.059-1.832-.121-2.746-.063-.375.062-1.015-.356-1.203-.164-.062-.351.02-.519.082-.52.207-1.059.29-1.598.395-.726.187-1.476.332-2.203.457-1.222.312-2.512.52-3.652 1.082-1.727.601-3.387 1.496-4.676 2.824-.726-1.203-1.555-2.348-2.387-3.488-1.433-2.102-3.218-3.973-5.129-5.656-2.449-2.223-5.378-3.805-8.203-5.508-.808-.563-1.539-1.184-2.367-1.766-.664-.543-1.039-.355-.957.477-.02 4.656-1.266 9.207-1.558 13.843-.145 1.996-.27 4.012-.04 5.985.082.875.395 1.726.52 2.601-1.973-.21-3.945.125-5.879.457-1.41.352-2.781.895-4.133 1.473-.62.25-1.285.523-1.91.813-.312.167-.851.187-.914.601.02.395.395.625.645.875.77.77 1.472 1.621 2.18 2.453 2.39 3.137 4.859 6.817 8.91 7.875-.477 1.621-.977 3.285-.833 4.988.024.438.086.875.168 1.313.02.164 0 .352.102.52a.604.604 0 0 0 .437.187c.727 0 1.809-1.039 2.41-1.207 1.04-.438 2.137-.645 3.176-1.082.934-.395 1.828-.895 2.743-1.371 1.785-.852 3.511-1.848 5.09-3.074a5.507 5.507 0 0 0 1.722-1.852c1.04.332 1.992.934 2.988 1.371 1.246.293 2.309.895 3.555 1.164 1.887.418 3.797.168 5.668-.207Zm29.074 17.542c-1.867-1.789-3.883-3.472-6.336-4.406-1.367-.582-2.719-1.227-4.172-1.602-1.183-.332-2.449-.52-3.656-.808.457-.668.664-1.457.871-2.227.5-1.996.688-4.074 1.477-6.008.125-.457-.313-.539-.664-.539-1.059-.164-2.14-.125-3.2 0-2.285.313-4.507 1.082-6.437 2.328-.5.293-1.02.645-1.496 1.02-.52.395-.914.977-1.309 1.477-.187-1.188-1.183-1.997-1.953-2.872-.332-.351-.64-.746-1.035-1.039-.148-.125-.312-.289-.52-.27-.292.044-.457.333-.644.52-1.352 1.145-2.387 2.766-2.7 4.532-.374 1.89-.144 3.824.333 5.675.457 1.266.851 2.536 1.328 3.782-1.867.394-3.238 2.433-3.508 4.242-.21 2.453.434 4.883.54 7.316.081.582.081 3.887.663 3.887.168.04.29-.063.414-.168.707-.582 1.496-1.059 2.16-1.684.79-.789 1.665-1.476 2.305-2.39.25-.332.543-.645.727-.996 1.414 2.367 3.636 4.093 6.023 5.425 1.766.997 3.738 1.454 5.711 1.786.664-.02.375-1.309.438-1.766 0-.77.02-1.559-.02-2.328-.168-1.766-.086-3.574-.332-5.34a11.47 11.47 0 0 0 2.2-.023c1.019-.164 1.972-.559 2.929-.895a40.24 40.24 0 0 0 3.363-1.348c2.574-1.02 5.317-1.562 8.016-2.183 1.289-.23 1.082-.645.312-1.414a17.784 17.784 0 0 1-1.828-1.684Zm0 0"/>
    <path d="M111.055 259.922c-.125.187 0 .394.144.539.977 1.496 2.762 1.914 4.403 2.285-.332 1.04-.645 2.184-.102 3.203.164.27 0 .746.395.832h.062c.164 0 .309-.148.434-.23a7.42 7.42 0 0 1 .851-.559c.5-.312.996-.625 1.371-1.062.352-.414.54-.957.809-1.434a.236.236 0 0 0 .168.063c.289-.02.582-.063.87-.082.958-.149 1.935-.293 2.825-.645.563-.27 2.16-.75 2.266-1.371 0-.399-.457-.524-.688-.77-.683-.707-1.12-1.87-2.285-1.894.582-1.434 1.102-3.012.543-4.531-.043-.164-.144-.371-.332-.414-.332-.02-.664.168-.937.332-.934.539-1.848 1.183-2.532 2.039-.914-1.29-2.117-2.328-3.343-3.305-.688-.5-1.477-.75-2.266-1-.27-.082-.559-.313-.828-.145-.25.165-.125.457-.043.684.25 2.309-.063 4.43 1.765 6.215-.976.312-1.972.5-2.906.918-.27.062-.52.144-.644.332Zm28.535 17.668c-.707-1.29-1.578-2.621-2.992-3.203-1.246-.52-2.657-.559-3.989-.477-1.183.04-2.304.227-3.464.457-.106-2.89-2.122-5.55-4.676-6.777-1.516-.621-3.196-.602-4.797-.52-.664.043-1.328.086-2.016.106-.289 0-.765-.082-.765.351.789 1.582 1.347 3.41 2.742 4.594-2.617-.207-5.258.48-7.457 1.89-1.266.833-2.574 1.563-3.864 2.372-.414.375.126.851.352 1.164.668.996 1.559 1.765 2.578 2.39 1.535 1.06 3.363 1.579 5.192 1.915-1.766 2.597-1.871 5.859-2.493 8.851-.437 2.078-.437 4.2-.5 6.32-.02.52-.02 1.02-.039 1.54-.023.164.063.351.227.414.062.02.125.043.187.043.082 0 .164-.024.25-.043.664-.145 1.286-.414 1.91-.664 1.266-.583 2.532-1.247 3.758-1.891.914-.543 1.766-1.188 2.66-1.77.829-.62 1.516-1.39 2.305-2.078.52-.476.934-1.058 1.348-1.66.664-1 1.371-1.996 1.89-3.098 1.02 1.622 2.907 2.266 4.528 3.098.601.332 1.183.684 1.808.977.582.246 1.122.62 1.743.746.394.02.418-.438.48-.727.121-.687.227-1.37.27-2.058.27-3.118-.75-6.133-2.41-8.75 1.37.332 2.78.437 4.175.289.89-.102 1.785-.145 2.656-.371.395-.149.25-.625.083-.895-.52-.875-1.141-1.684-1.68-2.535Zm0 0"/>
    <g clip-path="url(#c)">
        <path d="M176.078 302.531c-1.476-2.722-4.195-4.469-6.98-5.613 1.062-1.246 1.289-2.93 1.37-4.508.024-.187.087-.457.15-.668a.514.514 0 0 0 0-.457c-.15-.207-.458-.187-.688-.226-.852-.145-1.766-.024-2.637.187-1.453.309-2.887.77-4.133 1.578-.23-.808-.707-1.515-1.203-2.16-.355-.375-.707-1.559-1.309-1.375-.52.211-1.02.48-1.351.938-.645.77-1.266 1.601-1.559 2.554a7.027 7.027 0 0 0-.27 2.848c.106.562.294 1.125.395 1.683-1.41.024-2.43.336-3.445 1.375-.914.934-1.79 2.036-2.184 3.305-.246.684.645.77 1.125.852 1.328.27 2.7.394 4.047.226-.25 1.145-.082 2.29.438 3.328.27.622.582 1.204.953 1.766.336.5.644 1.04 1.144 1.395a.353.353 0 0 0 .188.058c.25 0 .457-.308.621-.496.438-.52.79-1.062 1.164-1.621.707-.914.996-2.059 1.266-3.16 1.27.332 2.492.789 3.82.914 1.809.293 3.656.125 5.484.105.977 0 1.993-.023 2.993-.023.457 0 .933 0 1.43-.02.21 0 .5.043.605-.187a.431.431 0 0 0 0-.313c-.332-.832-.957-1.515-1.434-2.285Zm0 0"/>
    </g>
    <path fill="#c1ff72" d="M174.332 303.156c-.207-.105-.394-.21-.621-.312-.957-.457-1.828-1.102-2.824-1.52-2.285-1.015-4.715-1.535-7.125-2.16-1.39-.312-2.805-.582-4.153-1.039a15.029 15.029 0 0 0 4.547-1.164c1.164-.414 2.223-1.082 3.137-1.89.332-.395.684-.79.953-1.25.063-.122 0-.29-.121-.352-.332-.125-.438.375-.668.539-1.473 2.101-4.672 3.058-7.102 3.492-.496.086-1.015.125-1.535.148.29-.25.559-.5.79-.832.519-.668.933-1.414 1.038-2.265.125-.645.372-1.371.184-2.04-.164-.269-.602-.038-.453.25.039.458-.063.938-.168 1.395-.125.54-.207 1.078-.5 1.598-.332.5-.664 1.02-1.14 1.414-.106.105-.25.168-.376.27-.062-.02-.144 0-.207.023a.265.265 0 0 0-.25.187.33.33 0 0 0 .024.207c-.356.727-.895 1.391-1.395 2.036-.558.48-1.203.789-1.847 1.144.023 0 .023-.02.042-.02-.125.04-.207.184-.167.31.042.105.148.187.25.187.105 0 .187-.082.292-.125.56-.227 1.06-.582 1.555-.914.5-.375.813-.977 1.184-1.477.148-.183.27-.394.394-.601.457.851.977 1.683 1.332 2.578.29.851.496 1.808.641 2.722a10.41 10.41 0 0 1-.102 2.535.287.287 0 0 0 0 .356c.164.207.477.039.496-.211a9.014 9.014 0 0 0 .149-1.516c.062-1.37-.27-2.722-.688-4.011-.351-.895-.851-1.746-1.308-2.598 1.64.645 3.344.996 5.09 1.371 1.015.27 2.054.54 3.074.79 1.348.394 2.738.788 4.027 1.394 1.164.52 2.203 1.246 3.344 1.785.207.105.438-.125.352-.332a.416.416 0 0 0-.145-.102Zm-36.965-24.715c-1.785.102-3.55-.437-5.152-1.207-.559-.289-1.16-.539-1.66-.957-.52-.332-1.016-.703-1.41-1.164-.086-.082-.149-.207-.23-.289.062-.062.105-.125.167-.187.082-.227-.168-.438-.375-.313-.437-.414-1.102-.496-1.64-.77a13.98 13.98 0 0 1-1.227-.683c-.559-.355-1.14-.664-1.723-1-1.058-.664-1.953-1.558-2.742-2.535-.102-.082-.164-.25-.313-.27-.226-.062-.394.207-.269.395.914 1.101 1.89 2.184 3.137 2.91.77.418 1.496.875 2.265 1.309.578.375 1.246.562 1.868.832-3.72-.227-7.125 1.726-10.758 2.265-1.203.188-2.41.375-3.633.293-.418-.043-.832-.105-1.246-.125-.27 0-.852-.168-.852.27.063.332.457.187.707.25.621.062 1.242.164 1.867.164 2.18-.04 4.36-.477 6.457-1.078 1.997-.543 3.907-1.352 5.985-1.477.457-.02.914-.062 1.367-.043h.106c-.352.418-.684.832-.958 1.29-2.55 3.491-4.027 7.585-6.02 11.41-1.038 1.933-2.515 3.554-3.675 5.386-.148.29-1.082 1.246-.582 1.473.164.062.332-.063.375-.227a40.86 40.86 0 0 1 2.676-3.804c2.598-3.43 3.824-7.63 5.984-11.329.766-1.246 1.535-2.492 2.45-3.636-.02.394-.02.77 0 1.164.144 2.12.351 4.281 1.101 6.297.52 1.27 1.203 2.453 1.973 3.574.62.894 1.515 1.558 2.343 2.226.125.063.293-.023.336-.148.059-.144-.023-.289-.148-.394-.29-.227-.602-.458-.914-.684-.89-.75-1.555-1.727-2.117-2.746-.438-.746-.852-1.535-1.14-2.348-.458-1.539-.79-3.098-.852-4.695-.063-.75-.149-1.52-.086-2.29.105.106.21.208.312.313.375.395.832.645 1.266.957.668.5 1.476.832 2.246 1.203 1.41.606 2.887 1 4.422 1 .25-.02.601.04.746-.207.086-.293-.227-.562-.434-.375ZM121.48 256.95c.082-.169.352-.208.352-.419 0-.183-.207-.332-.375-.246-.414.29-.684.746-.914 1.203-.578 1.145-.809 2.41-.973 3.66 0 .063-.023.102-.023.164-.227-.62-.434-1.246-.727-1.847-1.101-2.04-2.367-4.055-4.05-5.656-.27-.227-.602.187-.332.394 1.64 1.563 2.867 3.516 3.925 5.488.332.664.563 1.395.813 2.122a3.334 3.334 0 0 1-.438-.333c-1.265-.894-3.781-1.953-5.254-1.164-.062.125-.043.29.082.352.168.105.375-.04.54-.04 1.703-.23 3.367.54 4.714 1.579a2.795 2.795 0 0 0-.89.27c-.606.293-1.102.77-1.352 1.394-.105.145-.187.375 0 .496.414.188.477-.457.684-.664.48-.683 1.351-1.058 2.183-.957.02.024.063.043.082.063.043.086.063.148.106.23.101.332.578.188.496-.125-.02-.082-.063-.144-.082-.23a.26.26 0 0 0-.043-.122c-.02-.042-.02-.062-.04-.105.622-.625 1.493-.977 2.345-1.144.355-.063.707.085 1.062.085.352 0 .332-.52 0-.52-.293-.023-.562-.105-.851-.105-.48.02-.957.188-1.415.332-.375.125-.726.356-1.058.602.02-.102.02-.207.02-.309.167-1.52.417-3.183 1.413-4.449Zm28.555-30.825s0-.023.02-.023c0 .023 0 .023-.02.023Zm0 0"/>
    <path fill="#c1ff72" d="M148.895 242.668c.64.043 1.285.105 1.91.25.101.02.183.062.289.043.27-.063.23-.48-.02-.5-.812-.207-1.664-.27-2.492-.313-.832-.082-1.664-.187-2.492-.187-2.492.043-4.922.77-7.29 1.476-.706.188-1.394.5-2.077.75-.145.04-.313.102-.477.165a24.417 24.417 0 0 0 1.93-2.18c1.996-2.266 3.676-4.805 4.758-7.629a21.811 21.811 0 0 1 3.363-5.113c1.121-1.25 2.594-2.121 3.758-3.305.168-.23-.145-.52-.371-.355a2.362 2.362 0 0 1-.313.312c-.996.832-2.059 1.621-2.992 2.516-1.14 1.12-2.035 2.453-2.887 3.78-.808 1.313-1.347 2.724-1.972 4.118-1.391 2.617-3.282 4.926-5.254 7.11-.313.312-.602.62-.914.914-.082-.25-.188-.5-.25-.75a143.233 143.233 0 0 1-1.309-4.137c-.64-2.16-1.535-4.219-2.367-6.297-.64-1.664-1.203-3.305-1.848-4.969-1.66-3.926-2.805-8.062-3.57-12.281-.063-.438-.207-.938-.313-1.375-.043-.125-.187-.227-.312-.188a.274.274 0 0 0-.188.293c.438 1.602.668 3.262 1.063 4.883a49.558 49.558 0 0 0 2.324 7.465c1.227 3.117 2.305 6.297 3.594 9.395.644 1.558 1.12 3.18 1.617 4.8.332 1.082.707 2.16 1.039 3.243a51.658 51.658 0 0 1-3.594-2.391c-2.035-1.477-4.172-2.848-6.5-3.824-1.992-.957-4.172-1.621-6.394-1.621-.957.043-1.91.355-2.844.582-.21.02-.48.105-.418.355.125.332.5.121.75.082.828-.23 1.68-.48 2.555-.52 2.261 0 4.484.77 6.52 1.747 1.66.726 3.218 1.64 4.714 2.68 1.41 1 2.824 2.038 4.297 2.953-3.031-.563-6.27.312-8.66 2.285a9.373 9.373 0 0 0-2.2 2.472c-.144.23-.456.5-.23.77.149.168.438.062.438-.145.375-.52.644-1.039 1.058-1.52 1.871-2.116 4.57-3.366 7.395-3.53.683-.02 1.39.164 2.074.164.355.023.707.25 1.062.273.06.04.122.04.184.04 0 .023.024.042.024.062.082.187.37.207.457.023.062-.105.02-.21 0-.312a.14.14 0 0 0 0-.125c.101.144.37.144.457-.063 2.656-1.184 5.585-1.976 8.472-2.453 1.473-.23 2.969-.063 4.446.082Zm-.832 12.285-.02.02s0-.02.02-.02Zm0 0"/>
    <path fill="#c1ff72" d="M156.578 274.719c.414.73.809 1.496 1.16 2.289.149.351.293.726.418 1.078.04.105.082.21.188.273.246.164.515-.21.308-.398a21.743 21.743 0 0 0-1.515-3.305c-.582-1.078-1.496-1.93-2.41-2.722-1.247-1.122-2.637-2.016-4.008-2.95-1.035-.726-2.098-1.414-2.95-2.351a15.741 15.741 0 0 0-.64-.934c.394.106.809.145 1.223.188 1.601.27 3.218.25 4.84.164 2.324-.082 4.59-.559 6.874-.953 2.512-.27 5.086-.332 7.602.039 1.93.394 3.8 1.082 5.625 1.808a.32.32 0 0 0 .148.024c.29.039.395-.418.102-.5-.602-.125-1.121-.5-1.723-.664-1.082-.356-2.16-.73-3.238-1-2.805-.645-5.754-.52-8.598-.227-3.222.602-6.48 1.14-9.785.977a31.504 31.504 0 0 1-2.449-.27c.625-.312 1.246-.668 1.91-.918a22.98 22.98 0 0 0 6.149-3.387c.87-.644 1.703-1.37 2.41-2.203.476-.644.914-1.351 1.265-2.097.25-.668.352-1.457.54-2.164.019-.27-.376-.375-.497-.145-.086.23-.086.457-.168.688-.125.496-.187.996-.394 1.472-.52 1.063-1.227 2.164-2.16 2.934-1.516 1.414-3.301 2.555-5.172 3.469-.703.375-1.473.687-2.223.957-.578.23-1.14.539-1.703.812.23-.312.457-.625.645-.957 1.101-2.246 1.351-4.887.644-7.277-.164-.477-.27-.977-.476-1.434-.063-.187-.333-.25-.458-.082a.227.227 0 0 0-.042.25c.312.727.52 1.477.707 2.266.437 2.578 0 5.488-1.848 7.46a.271.271 0 0 0-.207.169c-.149-.043-.293.02-.332.187a.51.51 0 0 0 .082.352c0 .02-.02.02-.02.043-.187.476-.105.996-.062 1.472.082 1.082.308 2.121.351 3.203.082 1.829-.082 3.762-1.183 5.301-.145.063-.188.25-.106.375.5.664 1.246-1.476 1.414-1.832.52-1.558.438-3.242.332-4.84-.082-1.062-.394-2.12-.312-3.203.125.168.23.313.332.5.812 1.121 2.059 1.848 3.156 2.66 1.352.914 2.723 1.809 3.926 2.891.871.746 1.746 1.516 2.328 2.512Zm0 0"/>
    <path fill="#c1ff72" d="M158.363 278.379s0-.02 0 0l-.02-.02.02.02Zm-39.832-103.844c1.453 1.434 2.7 3.035 3.801 4.719a37.127 37.127 0 0 1 2.285 3.531c-.023.063-.023.145-.043.207v.024c-.02.039-.043.082-.062.125v.082a.25.25 0 0 0-.106.105c0 .02-.02.04-.02.059-.019 0-.019.023-.042.023-.332-.082-.52.457-.164.54a.84.84 0 0 0 .332-.063c.082.207.144.418.27.605.788 1.535 1.929 2.867 2.511 4.508.437.852.75 1.746 1.02 2.684.312 1.039.726 2.054.996 3.117.27 1.476.476 2.972.562 4.469.02 1.039-.062 2.078-.148 3.117 0 .27-.082.562 0 .789.086.125.23.144.355.082.145-.082.145-.27.125-.414.082-1.39.246-2.805.125-4.219-.21-1.664-.293-3.367-.851-4.969-.48-1.289-.813-2.64-1.309-3.93-.23-.496-.48-.996-.688-1.515-.644-1.602-1.89-2.91-2.511-4.531.125.082.25.168.394.23.684.352 1.39.54 2.117.79 2.95 1.12 6.043 1.745 9.055 2.64 2.059.539 3.988 1.472 5.918 2.367.125.063.25.125.395.207 0 0-.02 0-.02-.02 2.16 1.102 4.238 2.372 6.024 4.012a98.076 98.076 0 0 1 2.035 1.996c.414.414.808.895 1.347 1.141.336.125.5-.352.211-.477a.592.592 0 0 1-.21-.105c-1.536-1.371-2.864-2.969-4.528-4.195-1.64-1.27-3.445-2.266-5.293-3.184-1.082-.52-2.18-.977-3.281-1.434-2.203-.87-4.528-1.37-6.793-1.996-1.578-.476-3.195-.851-4.735-1.472-.726-.25-1.535-.48-2.222-.875v-.082l.023-.02c.91-.687 1.91-1.207 2.844-1.851 1.328-.957 2.781-1.747 4.195-2.555 1.246-.645 2.45-1.395 3.758-1.957 2.762-1.246 5.61-2.305 8.434-3.387 1.703-.644 3.343-1.453 5.023-2.121 2.117-.852 4.156-1.91 6.168-2.973 2.492-1.289 4.902-2.699 7.227-4.3a13.34 13.34 0 0 0 3.156-2.766c.273-.313.582-.707.851-1.04.106-.1.063-.288-.039-.374-.23-.164-.394.062-.52.25-.23.293-.456.562-.687.832-.851 1.039-1.91 1.934-3.03 2.66l.023-.02c-3.325 2.286-6.899 4.157-10.489 5.985-1.558.77-3.261 1.414-4.882 2.121-1.68.79-3.426 1.414-5.149 2.098-2.512 1-5.09 1.933-7.496 3.16-2.492 1.332-4.945 2.683-7.27 4.262-.625.418-1.246.789-1.89 1.207-.168.101-.29.207-.438.312-.02-.023-.02-.043-.039-.062.04-.356.082-.707.145-1.04.25-1.042.457-2.082.683-3.12.293-1.372.75-2.68 1.246-4.012.5-1.578 1.063-3.137 1.641-4.696.375-1.082.707-2.164 1.063-3.242.37-1.082.808-2.164 1.14-3.265 1.102-3.762 1.848-7.836.645-11.637-.106-.25-.23-.77-.602-.563a.268.268 0 0 0-.086.313c.125.25.23.496.293.77.582 1.992.54 4.113.332 6.152-.394 2.617-1.12 5.176-2.058 7.625-.414 1.226-.766 2.453-1.203 3.68-.333.976-.77 1.933-1.079 2.933-.375 1.285-.875 2.574-1.332 3.863-.476 1.559-.726 3.18-1.12 4.762-.063.25-.102.477-.145.727-.352-.625-.746-1.227-1.14-1.829-1.415-2.015-2.806-4.117-4.59-5.84-1.165-1.226-2.536-2.245-3.989-3.12-1.559-1.06-3.281-1.872-5.11-2.348-.35-.29-.706.082-.394.375.457.25.957.27 1.434.5 1.101.351 2.18.851 3.156 1.496 1.598.977 3.156 2.035 4.445 3.367Zm29.739-37.437c.207.043.375-.102.457-.29.332-.5.77-.995 1.164-1.456 1.742-1.954 3.964-3.305 6.125-4.778 1.578-1.039 3.261-1.894 4.984-2.64 1.227-.5 2.512-.938 3.633-1.645.394-.227.832-.457 1.246-.703-.309.684-.559 1.41-.79 2.117-.538 1.27-.87 2.598-1.202 3.95-.645 2.39-.832 4.988.125 7.316.187.418.457.812.582 1.27.062.206.351.25.476.062.082-.106.043-.25 0-.375-.207-.5-.476-.934-.664-1.434-.808-2.328-.539-4.8.125-7.129.313-1.183.621-2.39 1.102-3.511.27-.793.539-1.582.89-2.329.043.125.106.27.168.395.54 1.078 1.204 2.16 2.055 3.035.645.54 1.227 1.121 1.871 1.64.395.333.934.583 1.41.833.602.312 1.184.746 1.848.851.355 0 .355-.539 0-.52-.871-.292-1.617-.85-2.45-1.226-.894-.582-1.64-1.414-2.448-2.097-.852-1.02-1.684-2.164-2.079-3.454v-.02c.063-.042.145-.105.207-.144.125-.125.063-.293-.042-.375 0-.02.023-.043.023-.062.02-.207-.188-.332-.356-.27-.062-.062-.101-.144-.144-.207-.145-.355-.375-.687-.602-1-.87-1.058-1.683-2.183-2.265-3.43-.453-.913-.828-1.847-.973-2.867-.21-.851-.148-1.746-.293-2.62a2.7 2.7 0 0 1-.039-.395c.04-.125-.043-.27-.168-.313-.144-.039-.27.043-.332.168-.062.313.063.625.082.934.082.5.082 1.02.125 1.52.188 1.558.707 3.035 1.453 4.406.54.933 1.121 1.87 1.848 2.68.375.437.582.937.894 1.394-.332-.145-.644-.332-.976-.457-1.91-.664-3.988-.852-5.918-1.477-2.266-.625-4.34-1.828-6.125-3.324-.168-.148-.606-.293-.707.02-.043.144.039.293.164.332.086.02.168.02.23.082.332.293.684.582 1.059.832 1.352.937 2.762 1.789 4.32 2.289 1.621.558 3.32.87 4.985 1.265.953.188 1.89.48 2.742.938 0 .02 0 .039.02.062-.231.145-.477.29-.727.414-.813.415-1.559.934-2.41 1.27-1.66.707-3.364 1.328-4.942 2.223-1.765.914-3.406 2.097-5.047 3.222-1.765 1.266-3.449 2.7-4.672 4.508-.375.024-.375.48-.042.52Zm62.218 50.738c-.082-.04-.187-.04-.25 0-.539.043-1.058.082-1.597.144a10.801 10.801 0 0 1-3.075.086c-1.742-.086-3.425-.625-5.046-1.27a18.23 18.23 0 0 1-5.274-2.929c-.5-.457-1.039-.875-1.496-1.37-.313-.333-.602-.688-.953-.938-.086-.04-.211-.125-.332-.207v-.063c.02-.105-.024-.226-.125-.27 0-.144-.125-.292-.356-.25-.828-.167-1.597-.394-2.386-.769-1.453-.375-2.868-.957-4.196-1.64-2.843-1.602-5.273-3.887-7.351-6.423-.293-.335-.477-.792-.809-1.082-.23-.105-.457.165-.336.375 2.203 3.075 5.028 5.778 8.352 7.63 1.328.663 2.699 1.245 4.152 1.62.621.29 1.266.52 1.953.665-3.18.808-5.86 2.93-8.89 4.175-3.051 1.375-6.375 2.02-9.7 2.309-1.867.105-3.714-.125-5.585-.332a26.515 26.515 0 0 0-1.247-.168c-.125 0-.246 0-.351.086a.27.27 0 0 0-.063.246c.063.23.27.168.457.187 1.703.23 3.426.457 5.172.52 3.344.062 6.688-.664 9.864-1.684 1.289-.52 2.597-1.039 3.8-1.703a53.97 53.97 0 0 1 2.325-1.289h-.02c1.434-.77 2.93-1.539 4.527-1.89 0 .02.02.02.02.043v.02c-1.098 2.222-2.18 4.468-3.07 6.796-1.082 2.703-2.016 5.465-3.118 8.148-1.722 4.262-3.656 8.457-5.96 12.45-1.618 2.992-3.614 5.777-5.856 8.336a74.449 74.449 0 0 1-1.66 1.91c-.25.355-1.828 1.746-1.246 2.101.226.125.394-.125.433-.312 1.309-1.684 2.825-3.223 4.157-4.883 3.8-4.617 6.418-10.02 8.93-15.402 2.741-6.032 4.566-12.41 7.558-18.336.27 1.289.457 2.601.644 3.91.207 2.804.25 5.652.852 8.418.601 2.992 1.66 5.945 3.219 8.562.457.707.789 1.496 1.328 2.121.851.957 1.808 1.828 2.969 2.41.312.168.543-.289.25-.457a3.92 3.92 0 0 1-.747-.437 10.351 10.351 0 0 1-2.328-2.16c-.558-.914-1.097-1.852-1.64-2.785a30.18 30.18 0 0 1-2.989-9.832c-.062-.895-.187-1.809-.25-2.703-.082-1.372-.082-2.723-.312-4.075-.188-1.203-.352-2.43-.645-3.636.52.332.938.789 1.352 1.246.684.644 1.352 1.25 2.14 1.789 1.493 1.144 3.22 1.914 4.962 2.554 1.746.707 3.593 1.145 5.484 1.207.828.063 1.68-.02 2.492-.144.559-.063 1.121-.106 1.68-.168.312.043.418-.332.187-.457Zm19.649 24.301c-1.934-1.684-4.094-3.14-6.254-4.512-.934-.563-1.867-1.145-2.801-1.703.64.101 1.309.144 1.973.183 2.285-.02 3.011-.27 4.898-1.515.211-.02.313-.313.149-.438-.168-.164-.375-.039-.543.063-.477.25-.914.625-1.41.851-1.329.625-2.868.563-4.301.438a12.08 12.08 0 0 1-1.43-.227c.27-.148.516-.336.766-.48 1.101-.852 1.578-2.305 1.558-3.656-.043-.25.063-.563-.125-.75-.125-.082-.312-.063-.375.082-.062.48.063 1.02-.062 1.5-.145.746-.395 1.472-.91 2.054-.458.438-1.02.856-1.641 1.02h-.043c-.043-.02-.063-.02-.106-.043-.039-.02-.082-.04-.125-.063a.255.255 0 0 0-.37.168v.106c-.044.082-.063.207-.087.308-.308 1.102-.89 2.145-1.761 2.91-.418.356-.957.583-1.434.833-.312-.02-.394.437-.062.52.144.042.289-.04.414-.102h-.02c.746-.332 1.434-.75 1.973-1.395.601-.644 1.015-1.453 1.285-2.305.293.496.644.977.852 1.536.5 1.144.894 2.351 1.039 3.597.023.727.062 1.434-.04 2.16-.023.168-.042.356.083.48.164.165.476 0 .437-.25 0-.331.082-.667.059-1 .105-1.683-.352-3.304-.953-4.862-.23-.665-.625-1.247-.977-1.848.457.246.934.476 1.371.77 1.39.933 2.887 1.703 4.234 2.68 1.497 1.038 2.993 2.034 4.364 3.26.105.106.226.212.375.212.308-.043.37-.563 0-.582Zm35.406-18.043a21.374 21.374 0 0 1-1.516-.313c-2.43-.808-4.691-2.097-6.937-3.324-2.531-1.375-4.86-3.098-7.02-5.012-1.554-1.39-3.175-2.699-4.648-4.199-2.723-2.68-5.234-5.57-8.164-8.043-.914-.789-1.867-1.516-2.95-2.098a6.075 6.075 0 0 1 1.247-.062c1.02-.043 2.035-.043 3.03.082 1.997.332 4.052.54 6.067.582 1.453.043 2.907 0 4.34-.25.871-.082 1.703-.25 2.574-.5 1.414-.394 2.805-.871 4.114-1.578.914-.5 1.91-.914 2.617-1.703.52-.582 1.015-1.164 1.515-1.727.227-.27-.167-.582-.394-.351-.852.89-1.54 2.015-2.66 2.617-2.219 1.27-4.61 2.246-7.14 2.66-3.098.5-6.192.395-9.286-.02-1.598-.25-3.2-.457-4.816-.332-.356-.023-.707 0-1.063.04.024-.02.043-.04.063-.04.48-.48.976-.851 1.601-1.125 1.41-.765 2.926-1.433 4.09-2.554.625-.645 1.266-1.395 1.746-2.184.559-1.058 1.121-2.097 1.516-3.242.476-1.145.476-2.39.726-3.574.164-.25-.082-.563-.351-.418-.25.25-.188.668-.274.98-.12.664-.144 1.348-.308 1.992-.23.793-.543 1.52-.875 2.29-.309.582-.602 1.183-.914 1.765-.621.895-1.328 1.809-2.18 2.516-1.328.957-2.824 1.601-4.234 2.43-.48.335-.875.73-1.29 1.124h-.062c-.125 0-.207.063-.289.165-.188-.04-.332.023-.332.292 0 .04.02.063.039.083-.27.332-.559.644-.746 1.058-.563.957-.957 1.996-1.496 2.953-.52.875-1.059 1.809-1.66 2.66-1.102 1.27-2.036 2.723-3.407 3.743-.707.562-1.539 1.02-2.347 1.39-.602.23-1.227.399-1.848.582-.105-.02-.25.024-.293.125-.121.168 0 .418.211.418 1.95-.418 3.777-1.308 5.274-2.66.62-.52 1.12-1.187 1.62-1.809 1.122-1.246 2.036-2.64 2.864-4.093.726-1.29 1.207-2.746 2.14-3.91-.144.832.165 1.664.333 2.496.207.976.332 1.972.664 2.91.687 1.87 1.351 3.738 1.933 5.633.64 2.554.953 5.195.871 7.836 0 1.414-.168 2.785-.601 4.156-.207.808-.543 1.601-.875 2.37-.145.31-.29.602-.434.892-.105.167-.125.417.102.5.187.062.332-.125.375-.29.187-.375.375-.77.539-1.144.937-2.059 1.453-4.281 1.414-6.547.101-2.516-.207-5.012-.77-7.465-.62-2.222-1.472-4.383-2.199-6.566-.25-.914-.375-1.852-.605-2.766-.145-.664-.332-1.328-.227-2.015.227.125.477.27.707.394 1.035.606 1.93 1.414 2.844 2.184 2.992 2.66 5.629 5.695 8.535 8.48 3.2 2.805 6.293 5.8 10.012 7.899 1.91 1.039 3.8 2.16 5.793 3.035 1.265.582 2.554 1.039 3.945 1.183l.02.02c.187.125.457-.059.394-.27-.102-.351-.434-.308-.664-.351Zm-47.203-60.508c1.183-1.352 2.41-2.66 3.8-3.805a49.595 49.595 0 0 1 3.614-2.511 40.107 40.107 0 0 1 5.46-2.747c.934-.332 1.891-.601 2.825-.933.54-.149 1.102-.27 1.64-.457.977-.274 1.954-.563 2.887-.938.332-.144.664-.312.934-.558-.145.332-.29.664-.434 1.015-.293.77-.75 1.477-1.039 2.246-.707 1.872-.976 3.868-1.058 5.84-.106 1.125 0 2.266.226 3.367.145.833.457 1.645.707 2.454.23.812.414 1.64.746 2.41.395.937.957 1.789 1.309 2.746.023.144.148.25.293.226.371-.082.188-.52.063-.746-.188-.394-.375-.77-.583-1.187-.644-1.121-1.02-2.348-1.351-3.594-.54-1.582-.977-3.203-.953-4.887.082-2.117.27-4.28.996-6.297.207-.582.539-1.164.808-1.726.293-.664.563-1.328.852-1.992a.294.294 0 0 0 .125-.313c.063-.082.106-.168.145-.23.457-.664.851-1.371 1.226-2.078.625-1.184.957-2.493 1.39-3.762.313-.727.602-1.434.895-2.16.54-1.207 1.164-2.352 1.973-3.41 1.39-2.016 3.031-3.868 4.965-5.403.27-.23.62-.437.828-.73.187-.332-.29-.559-.457-.25-1.91 1.539-3.738 3.222-5.149 5.261-.996 1.31-1.933 2.7-2.574 4.22a38.259 38.259 0 0 0-1.703 4.593c-.418 1.102-.976 2.14-1.621 3.137-.063-1.64-.395-3.262-.79-4.864-.476-1.64-1.058-3.261-1.827-4.78-.5-.934-1.04-1.829-1.453-2.805-.977-2.04-1.934-4.075-2.762-6.172a30.032 30.032 0 0 1-1.414-5.883c-.082-.5-.102-1.02-.207-1.496a.257.257 0 0 0-.29-.23c-.148.019-.25.167-.21.292.105.395.125.79.168 1.184.27 1.996.683 3.969 1.328 5.883.789 2.117 1.746 4.199 2.742 6.234.727 1.746 1.828 3.305 2.473 5.094.664 1.66 1.203 3.344 1.472 5.152.145.938.356 1.871.27 2.828l-.02.02c-.02.023-.042.043-.062.062-.27-.25-.582-.476-.852-.707-1.535-1.496-2.93-3.18-4.691-4.406-1.54-1.266-3.223-2.285-4.922-3.305-1.101-.746-2.285-1.328-3.45-1.953-.913-.5-1.784-.957-2.76-1.328-2.036-.75-4.032-1.684-6.126-2.266-1.765-.48-3.531-.957-5.32-1.394a49.884 49.884 0 0 0-8.387-1.207c-1.601-.063-3.18.086-4.777.086-.645-.063-.438.707.02.52 1.745-.024 3.488-.169 5.234-.063 3.031.25 6 .664 8.949 1.453 1.746.48 3.512.875 5.234 1.434 1.227.418 2.43.957 3.657 1.414 1.222.457 2.449.937 3.593 1.582 1.473.765 2.97 1.515 4.34 2.472 1.703.957 3.3 2.098 4.836 3.305.582.394 1.082.871 1.559 1.39.687.669 1.39 1.333 2.035 2.04.394.5.976.87 1.453 1.328a.859.859 0 0 1-.246.187c-1 .543-2.098.832-3.2 1.145-2.39.687-4.82 1.39-7.038 2.515-1.829.895-3.575 1.91-5.215 3.098-1.078.746-2.14 1.535-3.074 2.473-1.536 1.476-2.95 3.074-4.133 4.844-.996 1.246-1.805 2.617-2.7 3.925l-.019.024c-.043.062-.063.101-.043.187 0 .145.145.246.293.227.144-.02.227-.145.309-.25.207-.332.418-.664.625-.996.664-1.125 1.453-2.102 2.242-3.18.414-.668.87-1.332 1.37-1.914Zm49.469-61.484a.306.306 0 0 0-.27.023c-.625.164-1.27.313-1.89.54-1.29.394-2.618.788-3.782 1.456a44.984 44.984 0 0 0-6 4.344c-.52.414-1.082.789-1.664 1.14.274-.476.48-.976.563-1.12.27-.77.539-1.54.77-2.31.163-.644.187-1.308.35-1.952.126-.727-.081-1.477-.062-2.203.082-.438-.582-.438-.52 0-.019.664.126 1.308.087 1.976-.125.645-.211 1.309-.336 1.953-.352 1.121-.664 2.266-1.246 3.285-.121.246-.29.52-.454.746-.125-.25-.25-.52-.417-.789-.497-.77-1.329-1.246-2.137-1.62-.457-.169-1.52-.419-1.914-.126-.207.227.148.602.375.395 1.082-.063 2.117.476 2.906 1.207.375.332.5.808.77 1.226v.04l-.02.023c-.25.039-.395.394-.168.539.105.063.207.043.313 0 .082.102.207.188.292.29.684.437 1.266.976 1.66 1.706.352.707.52 1.434.583 2.223.02.27.02.52-.024.789-.039.23-.125.457-.039.668.145.289.582.101.477-.188.082-.48.144-.976.062-1.457-.062-1.12-.457-2.246-1.164-3.117-.351-.375-.726-.75-1.183-.996-.063-.043-.102-.106-.165-.168.063 0 .125-.02.188-.082.746-.168 1.473-.332 2.242-.418.996-.102 2.012 0 3.012.125.996.145 1.992.293 2.863.813.375.187.77.351 1.121.601.48.395.914.875 1.227 1.414.043.063.144.106.207.082.789-.144-.602-1.37-.828-1.64-.5-.5-1.207-.75-1.828-1.082-.977-.54-2.141-.622-3.243-.77-1.246-.188-2.468-.125-3.695.105 1.078-.707 2.078-1.558 3.094-2.39 1.351-.996 2.723-1.996 4.152-2.848 1.684-.914 3.617-1.414 5.465-1.914.332.063.602-.332.27-.52Zm-39.957-2.723c.207.27.394.562.62.812.52.809 1.06 1.664 1.727 2.391.602.559 1.121 1.184 1.68 1.785.375.336.726.668 1.082 1a76.78 76.78 0 0 0 2.035 1.66c-.77-.101-1.539-.12-2.305-.164-1.082-.043-2.16.043-3.199.332-.437.168-.789.5-1.207.688a.263.263 0 0 0 0 .37c.274.25.793-.245 1.04-.394.312-.207.706-.27 1.081-.351 1.016-.207 2.074-.145 3.094-.106.809.063 1.64.106 2.43.356.02.02.043.02.062.039a2.33 2.33 0 0 0-.87.687c-.563.457-.958 1.04-1.333 1.664a9.516 9.516 0 0 0-.476 1.473c-.043.211-.106.461 0 .645.167.312.644.062.457-.246.187-1.125.664-2.227 1.558-2.997.313-.332.645-.683 1.102-.832.02 0 .039-.02.058-.02.043.02.086.063.125.083.125.023.211-.04.274-.125.058-.059.101-.164.058-.27 0-.02-.02-.062-.02-.082.188-.144.356-.289.52-.437.934-.621 2.055-1.04 3.176-1.102.48-.039.957-.101 1.414.086.29.121.5-.312.227-.46-.496-.227-1.078-.208-1.64-.145-1.368.105-2.763.562-3.798 1.476-.043-.312-.043-.644-.043-.957-.062-1.476-.02-2.949.477-4.363.105-.375.23-.727.375-1.082.164-.438.312-.957.644-1.328.27-.086.188-.52-.105-.5-.664.082-1.246 2.265-1.453 2.91-.414 1.145-.5 2.367-.477 3.574.02.645 0 1.29.082 1.934-.043-.02-.062-.02-.105-.043-.727-.559-1.473-1.121-2.18-1.723-.914-.812-1.867-1.601-2.656-2.558-.52-.52-1.02-.996-1.457-1.621-.621-.81-1.078-1.747-1.785-2.493-.04-.375-.582-.312-.52.063-.02.12.106.246.23.37Zm0 0"/>
</svg>