<svg xmlns="http://www.w3.org/2000/svg" width="940" viewBox="0 0 705 591" height="788" version="1.0">
    <defs>
        <clipPath id="a">
            <path d="M352 387h347.473v81H352Zm0 0"/>
        </clipPath>
        <clipPath id="b">
            <path d="M5.395 339h694.078v149H5.395Zm0 0"/>
        </clipPath>
        <clipPath id="c">
            <path d="M148 392h551.473v103H148Zm0 0"/>
        </clipPath>
    </defs>
    <g clip-path="url(#a)">
        <path fill="#00bf63" d="M699.508 402.488v-14.777c-87.418 35.012-232.414 57.336-347.059 14.101 58.309 27.47 116.563 54.665 174.84 66.016 56.363.281 115.844-21.887 172.219-65.34Zm0 0"/>
    </g>
    <g clip-path="url(#b)">
        <path fill="#00bf63" d="M699.508 440.844V426.46C468.137 572.074 236.766 230.613 5.395 376.23v64.613c231.37-162.356 462.742 162.363 694.113 0Zm0 0"/>
    </g>
    <g clip-path="url(#c)">
        <path d="M699.508 440.844v-38.356C515.773 544.23 332.035 378.762 148.3 394c189.61 15.04 442.87 184.645 551.207 46.844Zm0 0"/>
    </g>
</svg>