<svg xmlns="http://www.w3.org/2000/svg" width="500" viewBox="0 0 375 375" height="500" version="1.0">
    <path fill="#fff" d="M-37.5-37.5h450v450h-450z"/>
    <path fill="#fff" d="M-37.5-37.5h450v450h-450z"/>
    <path d="M-37.5-37.5h450v450h-450z"/>
    <path fill="#00bf63" d="M129.691 29.59s-2.242 33.32-16.773 48.484c-17.816-18.156-7.875-44.84 4.207-61.691 6.27-8.742 15.176-16.39 15.176-16.39s38.172 70.41-11.64 84.097c0 0 16.151-20.906 9.03-54.5m168.711 158.008c4.895 56.894-37.199 106.988-94.02 111.902-56.82 4.902-106.862-37.238-111.76-94.137-1.474-17.16 1.327-33.699 7.507-48.566-9.188 17.676-13.637 38.086-11.8 59.402 5.148 59.762 57.706 104.035 117.394 98.88 59.691-5.153 103.902-57.782 98.754-117.54-1.832-21.32-9.711-40.668-21.786-56.504 8.633 13.586 14.227 29.403 15.711 46.563"/>
    <path fill="#00bf63" d="M66.035 225.86c-9.648-66.755 36.574-128.704 103.25-138.364 10.906-1.582 39.543-4.148 61.137 13.176-32.414-13.39-73.102-2.387-80.8.055 8.062 30.703 52.91 32.605 78.714 31.128 31.098-1.78 44.66 9.18 44.66 9.18s-6.125-47.32-50.941-66.722c-39.473-17.094-65.828 8.851-65.828 8.851-70.032 10.148-118.59 75.219-108.454 145.344 10.133 70.125 75.125 118.742 145.16 108.594 24.985-3.618 47.235-14.235 65.06-29.567-15.415 11.121-33.657 18.797-53.766 21.715-66.676 9.656-128.543-36.629-138.192-103.39"/>
    <path fill="#39b54a" d="M181.629 266.297c-3.703-8.524-9.203-25.117-3.797-42.836 8.863-29.07 43.648-49.914 85.512-47.211 5.562 35.465-8.14 68.688-33.953 83.512-17.387 9.984-35.399 8.82-43.93 7.633A209.31 209.31 0 0 0 213.8 241.5c15.129-16.621 25.226-33.113 31.91-46.273a429.288 429.288 0 0 1-34.926 42.64 427.856 427.856 0 0 1-29.156 28.43Zm-11.16.926c-6.531 1.976-19.106 4.574-31.57-.875-20.45-8.946-32.692-36.098-27.153-66.403 26.344-1.035 49.41 11.79 58.024 31.883 5.804 13.535 3.421 26.574 1.824 32.695a153.504 153.504 0 0 0-16.473-22.878 154.09 154.09 0 0 0-31.035-27.22 314.33 314.33 0 0 1 28.129 29.11 314.806 314.806 0 0 1 18.254 23.688Zm0 0"/>
</svg>
