<svg xmlns="http://www.w3.org/2000/svg"
    xmlns:xlink="http://www.w3.org/1999/xlink" width="1300" zoomAndPan="magnify" viewBox="0 0 974.88 374.999991" height="500" preserveAspectRatio="xMidYMid meet" version="1.0">
    <defs>
        <clipPath id="7b324be887">
            <path d="M 839 0.0234375 L 974.761719 0.0234375 L 974.761719 50 L 839 50 Z M 839 0.0234375 " clip-rule="nonzero"/>
        </clipPath>
        <clipPath id="12098445cd">
            <path d="M 883 18 L 944 18 L 944 78 L 883 78 Z M 883 18 " clip-rule="nonzero"/>
        </clipPath>
        <clipPath id="a9152c449d">
            <path d="M 803.503906 0.0234375 L 834.503906 0.0234375 L 834.503906 12 L 803.503906 12 Z M 803.503906 0.0234375 " clip-rule="nonzero"/>
        </clipPath>
        <clipPath id="d382564971">
            <path d="M 803.644531 12.460938 C 803.644531 10.414062 804.035156 8.445312 804.816406 6.554688 C 805.597656 4.664062 806.710938 2.996094 808.15625 1.546875 C 809.601562 0.101562 811.269531 -1.011719 813.160156 -1.796875 C 815.046875 -2.578125 817.011719 -2.972656 819.058594 -2.972656 C 821.101562 -2.972656 823.066406 -2.578125 824.957031 -1.796875 C 826.84375 -1.011719 828.511719 0.101562 829.957031 1.546875 C 831.402344 2.996094 832.515625 4.664062 833.296875 6.554688 C 834.078125 8.445312 834.472656 10.414062 834.472656 12.460938 C 834.472656 14.507812 834.078125 16.472656 833.296875 18.363281 C 832.515625 20.253906 831.402344 21.925781 829.957031 23.371094 C 828.511719 24.816406 826.84375 25.933594 824.957031 26.714844 C 823.066406 27.5 821.101562 27.890625 819.058594 27.890625 C 817.011719 27.890625 815.046875 27.5 813.160156 26.714844 C 811.269531 25.933594 809.601562 24.816406 808.15625 23.371094 C 806.710938 21.925781 805.597656 20.253906 804.816406 18.363281 C 804.035156 16.472656 803.644531 14.507812 803.644531 12.460938 Z M 803.644531 12.460938 " clip-rule="nonzero"/>
        </clipPath>
        <clipPath id="f8dd9dc719">
            <path d="M 803.503906 0.0234375 L 834.503906 0.0234375 L 834.503906 14 L 803.503906 14 Z M 803.503906 0.0234375 " clip-rule="nonzero"/>
        </clipPath>
        <clipPath id="d273ad92e2">
            <path d="M 803.644531 12.460938 C 803.644531 10.414062 804.035156 8.445312 804.816406 6.554688 C 805.597656 4.664062 806.710938 2.996094 808.15625 1.546875 C 809.601562 0.101562 811.269531 -1.011719 813.160156 -1.796875 C 815.046875 -2.578125 817.011719 -2.972656 819.058594 -2.972656 C 821.101562 -2.972656 823.066406 -2.578125 824.957031 -1.796875 C 826.84375 -1.011719 828.511719 0.101562 829.957031 1.546875 C 831.402344 2.996094 832.515625 4.664062 833.296875 6.554688 C 834.078125 8.445312 834.472656 10.414062 834.472656 12.460938 C 834.472656 14.507812 834.078125 16.472656 833.296875 18.363281 C 832.515625 20.253906 831.402344 21.925781 829.957031 23.371094 C 828.511719 24.816406 826.84375 25.933594 824.957031 26.714844 C 823.066406 27.5 821.101562 27.890625 819.058594 27.890625 C 817.011719 27.890625 815.046875 27.5 813.160156 26.714844 C 811.269531 25.933594 809.601562 24.816406 808.15625 23.371094 C 806.710938 21.925781 805.597656 20.253906 804.816406 18.363281 C 804.035156 16.472656 803.644531 14.507812 803.644531 12.460938 Z M 803.644531 12.460938 " clip-rule="nonzero"/>
        </clipPath>
        <clipPath id="90c1f139d8">
            <path d="M 803.503906 0.0234375 L 834.503906 0.0234375 L 834.503906 15 L 803.503906 15 Z M 803.503906 0.0234375 " clip-rule="nonzero"/>
        </clipPath>
        <clipPath id="21cbbdfb36">
            <path d="M 803.644531 12.460938 C 803.644531 10.414062 804.035156 8.445312 804.816406 6.554688 C 805.597656 4.664062 806.710938 2.996094 808.15625 1.546875 C 809.601562 0.101562 811.269531 -1.011719 813.160156 -1.796875 C 815.046875 -2.578125 817.011719 -2.972656 819.058594 -2.972656 C 821.101562 -2.972656 823.066406 -2.578125 824.957031 -1.796875 C 826.84375 -1.011719 828.511719 0.101562 829.957031 1.546875 C 831.402344 2.996094 832.515625 4.664062 833.296875 6.554688 C 834.078125 8.445312 834.472656 10.414062 834.472656 12.460938 C 834.472656 14.507812 834.078125 16.472656 833.296875 18.363281 C 832.515625 20.253906 831.402344 21.925781 829.957031 23.371094 C 828.511719 24.816406 826.84375 25.933594 824.957031 26.714844 C 823.066406 27.5 821.101562 27.890625 819.058594 27.890625 C 817.011719 27.890625 815.046875 27.5 813.160156 26.714844 C 811.269531 25.933594 809.601562 24.816406 808.15625 23.371094 C 806.710938 21.925781 805.597656 20.253906 804.816406 18.363281 C 804.035156 16.472656 803.644531 14.507812 803.644531 12.460938 Z M 803.644531 12.460938 " clip-rule="nonzero"/>
        </clipPath>
        <clipPath id="47726fb8c0">
            <path d="M 803.503906 0.0234375 L 834.503906 0.0234375 L 834.503906 17 L 803.503906 17 Z M 803.503906 0.0234375 " clip-rule="nonzero"/>
        </clipPath>
        <clipPath id="bb98c25cad">
            <path d="M 803.644531 12.460938 C 803.644531 10.414062 804.035156 8.445312 804.816406 6.554688 C 805.597656 4.664062 806.710938 2.996094 808.15625 1.546875 C 809.601562 0.101562 811.269531 -1.011719 813.160156 -1.796875 C 815.046875 -2.578125 817.011719 -2.972656 819.058594 -2.972656 C 821.101562 -2.972656 823.066406 -2.578125 824.957031 -1.796875 C 826.84375 -1.011719 828.511719 0.101562 829.957031 1.546875 C 831.402344 2.996094 832.515625 4.664062 833.296875 6.554688 C 834.078125 8.445312 834.472656 10.414062 834.472656 12.460938 C 834.472656 14.507812 834.078125 16.472656 833.296875 18.363281 C 832.515625 20.253906 831.402344 21.925781 829.957031 23.371094 C 828.511719 24.816406 826.84375 25.933594 824.957031 26.714844 C 823.066406 27.5 821.101562 27.890625 819.058594 27.890625 C 817.011719 27.890625 815.046875 27.5 813.160156 26.714844 C 811.269531 25.933594 809.601562 24.816406 808.15625 23.371094 C 806.710938 21.925781 805.597656 20.253906 804.816406 18.363281 C 804.035156 16.472656 803.644531 14.507812 803.644531 12.460938 Z M 803.644531 12.460938 " clip-rule="nonzero"/>
        </clipPath>
        <clipPath id="f7810f2a8a">
            <path d="M 803.503906 0.0234375 L 834.503906 0.0234375 L 834.503906 19 L 803.503906 19 Z M 803.503906 0.0234375 " clip-rule="nonzero"/>
        </clipPath>
        <clipPath id="9060aeddd3">
            <path d="M 803.644531 12.460938 C 803.644531 10.414062 804.035156 8.445312 804.816406 6.554688 C 805.597656 4.664062 806.710938 2.996094 808.15625 1.546875 C 809.601562 0.101562 811.269531 -1.011719 813.160156 -1.796875 C 815.046875 -2.578125 817.011719 -2.972656 819.058594 -2.972656 C 821.101562 -2.972656 823.066406 -2.578125 824.957031 -1.796875 C 826.84375 -1.011719 828.511719 0.101562 829.957031 1.546875 C 831.402344 2.996094 832.515625 4.664062 833.296875 6.554688 C 834.078125 8.445312 834.472656 10.414062 834.472656 12.460938 C 834.472656 14.507812 834.078125 16.472656 833.296875 18.363281 C 832.515625 20.253906 831.402344 21.925781 829.957031 23.371094 C 828.511719 24.816406 826.84375 25.933594 824.957031 26.714844 C 823.066406 27.5 821.101562 27.890625 819.058594 27.890625 C 817.011719 27.890625 815.046875 27.5 813.160156 26.714844 C 811.269531 25.933594 809.601562 24.816406 808.15625 23.371094 C 806.710938 21.925781 805.597656 20.253906 804.816406 18.363281 C 804.035156 16.472656 803.644531 14.507812 803.644531 12.460938 Z M 803.644531 12.460938 " clip-rule="nonzero"/>
        </clipPath>
        <clipPath id="50aa23c644">
            <path d="M 803.503906 0.0234375 L 834.503906 0.0234375 L 834.503906 20 L 803.503906 20 Z M 803.503906 0.0234375 " clip-rule="nonzero"/>
        </clipPath>
        <clipPath id="46c46bffb1">
            <path d="M 803.644531 12.460938 C 803.644531 10.414062 804.035156 8.445312 804.816406 6.554688 C 805.597656 4.664062 806.710938 2.996094 808.15625 1.546875 C 809.601562 0.101562 811.269531 -1.011719 813.160156 -1.796875 C 815.046875 -2.578125 817.011719 -2.972656 819.058594 -2.972656 C 821.101562 -2.972656 823.066406 -2.578125 824.957031 -1.796875 C 826.84375 -1.011719 828.511719 0.101562 829.957031 1.546875 C 831.402344 2.996094 832.515625 4.664062 833.296875 6.554688 C 834.078125 8.445312 834.472656 10.414062 834.472656 12.460938 C 834.472656 14.507812 834.078125 16.472656 833.296875 18.363281 C 832.515625 20.253906 831.402344 21.925781 829.957031 23.371094 C 828.511719 24.816406 826.84375 25.933594 824.957031 26.714844 C 823.066406 27.5 821.101562 27.890625 819.058594 27.890625 C 817.011719 27.890625 815.046875 27.5 813.160156 26.714844 C 811.269531 25.933594 809.601562 24.816406 808.15625 23.371094 C 806.710938 21.925781 805.597656 20.253906 804.816406 18.363281 C 804.035156 16.472656 803.644531 14.507812 803.644531 12.460938 Z M 803.644531 12.460938 " clip-rule="nonzero"/>
        </clipPath>
        <clipPath id="fe24d6f5ad">
            <path d="M 803.503906 0.0234375 L 834.503906 0.0234375 L 834.503906 22 L 803.503906 22 Z M 803.503906 0.0234375 " clip-rule="nonzero"/>
        </clipPath>
        <clipPath id="5c79e478de">
            <path d="M 803.644531 12.460938 C 803.644531 10.414062 804.035156 8.445312 804.816406 6.554688 C 805.597656 4.664062 806.710938 2.996094 808.15625 1.546875 C 809.601562 0.101562 811.269531 -1.011719 813.160156 -1.796875 C 815.046875 -2.578125 817.011719 -2.972656 819.058594 -2.972656 C 821.101562 -2.972656 823.066406 -2.578125 824.957031 -1.796875 C 826.84375 -1.011719 828.511719 0.101562 829.957031 1.546875 C 831.402344 2.996094 832.515625 4.664062 833.296875 6.554688 C 834.078125 8.445312 834.472656 10.414062 834.472656 12.460938 C 834.472656 14.507812 834.078125 16.472656 833.296875 18.363281 C 832.515625 20.253906 831.402344 21.925781 829.957031 23.371094 C 828.511719 24.816406 826.84375 25.933594 824.957031 26.714844 C 823.066406 27.5 821.101562 27.890625 819.058594 27.890625 C 817.011719 27.890625 815.046875 27.5 813.160156 26.714844 C 811.269531 25.933594 809.601562 24.816406 808.15625 23.371094 C 806.710938 21.925781 805.597656 20.253906 804.816406 18.363281 C 804.035156 16.472656 803.644531 14.507812 803.644531 12.460938 Z M 803.644531 12.460938 " clip-rule="nonzero"/>
        </clipPath>
        <clipPath id="009fcaad73">
            <path d="M 803.503906 0.0234375 L 834.503906 0.0234375 L 834.503906 23 L 803.503906 23 Z M 803.503906 0.0234375 " clip-rule="nonzero"/>
        </clipPath>
        <clipPath id="e35fa051ea">
            <path d="M 803.644531 12.460938 C 803.644531 10.414062 804.035156 8.445312 804.816406 6.554688 C 805.597656 4.664062 806.710938 2.996094 808.15625 1.546875 C 809.601562 0.101562 811.269531 -1.011719 813.160156 -1.796875 C 815.046875 -2.578125 817.011719 -2.972656 819.058594 -2.972656 C 821.101562 -2.972656 823.066406 -2.578125 824.957031 -1.796875 C 826.84375 -1.011719 828.511719 0.101562 829.957031 1.546875 C 831.402344 2.996094 832.515625 4.664062 833.296875 6.554688 C 834.078125 8.445312 834.472656 10.414062 834.472656 12.460938 C 834.472656 14.507812 834.078125 16.472656 833.296875 18.363281 C 832.515625 20.253906 831.402344 21.925781 829.957031 23.371094 C 828.511719 24.816406 826.84375 25.933594 824.957031 26.714844 C 823.066406 27.5 821.101562 27.890625 819.058594 27.890625 C 817.011719 27.890625 815.046875 27.5 813.160156 26.714844 C 811.269531 25.933594 809.601562 24.816406 808.15625 23.371094 C 806.710938 21.925781 805.597656 20.253906 804.816406 18.363281 C 804.035156 16.472656 803.644531 14.507812 803.644531 12.460938 Z M 803.644531 12.460938 " clip-rule="nonzero"/>
        </clipPath>
        <clipPath id="fed3b1ed1b">
            <path d="M 803.503906 0.0234375 L 834.503906 0.0234375 L 834.503906 25 L 803.503906 25 Z M 803.503906 0.0234375 " clip-rule="nonzero"/>
        </clipPath>
        <clipPath id="acaa00b6ae">
            <path d="M 803.644531 12.460938 C 803.644531 10.414062 804.035156 8.445312 804.816406 6.554688 C 805.597656 4.664062 806.710938 2.996094 808.15625 1.546875 C 809.601562 0.101562 811.269531 -1.011719 813.160156 -1.796875 C 815.046875 -2.578125 817.011719 -2.972656 819.058594 -2.972656 C 821.101562 -2.972656 823.066406 -2.578125 824.957031 -1.796875 C 826.84375 -1.011719 828.511719 0.101562 829.957031 1.546875 C 831.402344 2.996094 832.515625 4.664062 833.296875 6.554688 C 834.078125 8.445312 834.472656 10.414062 834.472656 12.460938 C 834.472656 14.507812 834.078125 16.472656 833.296875 18.363281 C 832.515625 20.253906 831.402344 21.925781 829.957031 23.371094 C 828.511719 24.816406 826.84375 25.933594 824.957031 26.714844 C 823.066406 27.5 821.101562 27.890625 819.058594 27.890625 C 817.011719 27.890625 815.046875 27.5 813.160156 26.714844 C 811.269531 25.933594 809.601562 24.816406 808.15625 23.371094 C 806.710938 21.925781 805.597656 20.253906 804.816406 18.363281 C 804.035156 16.472656 803.644531 14.507812 803.644531 12.460938 Z M 803.644531 12.460938 " clip-rule="nonzero"/>
        </clipPath>
        <clipPath id="37acda7127">
            <path d="M 803.503906 1 L 834.503906 1 L 834.503906 26 L 803.503906 26 Z M 803.503906 1 " clip-rule="nonzero"/>
        </clipPath>
        <clipPath id="2ff15f1066">
            <path d="M 803.644531 12.460938 C 803.644531 10.414062 804.035156 8.445312 804.816406 6.554688 C 805.597656 4.664062 806.710938 2.996094 808.15625 1.546875 C 809.601562 0.101562 811.269531 -1.011719 813.160156 -1.796875 C 815.046875 -2.578125 817.011719 -2.972656 819.058594 -2.972656 C 821.101562 -2.972656 823.066406 -2.578125 824.957031 -1.796875 C 826.84375 -1.011719 828.511719 0.101562 829.957031 1.546875 C 831.402344 2.996094 832.515625 4.664062 833.296875 6.554688 C 834.078125 8.445312 834.472656 10.414062 834.472656 12.460938 C 834.472656 14.507812 834.078125 16.472656 833.296875 18.363281 C 832.515625 20.253906 831.402344 21.925781 829.957031 23.371094 C 828.511719 24.816406 826.84375 25.933594 824.957031 26.714844 C 823.066406 27.5 821.101562 27.890625 819.058594 27.890625 C 817.011719 27.890625 815.046875 27.5 813.160156 26.714844 C 811.269531 25.933594 809.601562 24.816406 808.15625 23.371094 C 806.710938 21.925781 805.597656 20.253906 804.816406 18.363281 C 804.035156 16.472656 803.644531 14.507812 803.644531 12.460938 Z M 803.644531 12.460938 " clip-rule="nonzero"/>
        </clipPath>
        <clipPath id="06df2a3fa8">
            <path d="M 803.503906 3 L 834.503906 3 L 834.503906 27.960938 L 803.503906 27.960938 Z M 803.503906 3 " clip-rule="nonzero"/>
        </clipPath>
        <clipPath id="03861efa59">
            <path d="M 803.644531 12.460938 C 803.644531 10.414062 804.035156 8.445312 804.816406 6.554688 C 805.597656 4.664062 806.710938 2.996094 808.15625 1.546875 C 809.601562 0.101562 811.269531 -1.011719 813.160156 -1.796875 C 815.046875 -2.578125 817.011719 -2.972656 819.058594 -2.972656 C 821.101562 -2.972656 823.066406 -2.578125 824.957031 -1.796875 C 826.84375 -1.011719 828.511719 0.101562 829.957031 1.546875 C 831.402344 2.996094 832.515625 4.664062 833.296875 6.554688 C 834.078125 8.445312 834.472656 10.414062 834.472656 12.460938 C 834.472656 14.507812 834.078125 16.472656 833.296875 18.363281 C 832.515625 20.253906 831.402344 21.925781 829.957031 23.371094 C 828.511719 24.816406 826.84375 25.933594 824.957031 26.714844 C 823.066406 27.5 821.101562 27.890625 819.058594 27.890625 C 817.011719 27.890625 815.046875 27.5 813.160156 26.714844 C 811.269531 25.933594 809.601562 24.816406 808.15625 23.371094 C 806.710938 21.925781 805.597656 20.253906 804.816406 18.363281 C 804.035156 16.472656 803.644531 14.507812 803.644531 12.460938 Z M 803.644531 12.460938 " clip-rule="nonzero"/>
        </clipPath>
        <clipPath id="72f40cc21e">
            <path d="M 803.503906 4 L 834.503906 4 L 834.503906 27.960938 L 803.503906 27.960938 Z M 803.503906 4 " clip-rule="nonzero"/>
        </clipPath>
        <clipPath id="f962d1eb7f">
            <path d="M 803.644531 12.460938 C 803.644531 10.414062 804.035156 8.445312 804.816406 6.554688 C 805.597656 4.664062 806.710938 2.996094 808.15625 1.546875 C 809.601562 0.101562 811.269531 -1.011719 813.160156 -1.796875 C 815.046875 -2.578125 817.011719 -2.972656 819.058594 -2.972656 C 821.101562 -2.972656 823.066406 -2.578125 824.957031 -1.796875 C 826.84375 -1.011719 828.511719 0.101562 829.957031 1.546875 C 831.402344 2.996094 832.515625 4.664062 833.296875 6.554688 C 834.078125 8.445312 834.472656 10.414062 834.472656 12.460938 C 834.472656 14.507812 834.078125 16.472656 833.296875 18.363281 C 832.515625 20.253906 831.402344 21.925781 829.957031 23.371094 C 828.511719 24.816406 826.84375 25.933594 824.957031 26.714844 C 823.066406 27.5 821.101562 27.890625 819.058594 27.890625 C 817.011719 27.890625 815.046875 27.5 813.160156 26.714844 C 811.269531 25.933594 809.601562 24.816406 808.15625 23.371094 C 806.710938 21.925781 805.597656 20.253906 804.816406 18.363281 C 804.035156 16.472656 803.644531 14.507812 803.644531 12.460938 Z M 803.644531 12.460938 " clip-rule="nonzero"/>
        </clipPath>
        <clipPath id="4b69436b3e">
            <path d="M 803.503906 6 L 834.503906 6 L 834.503906 27.960938 L 803.503906 27.960938 Z M 803.503906 6 " clip-rule="nonzero"/>
        </clipPath>
        <clipPath id="e0479af62b">
            <path d="M 803.644531 12.460938 C 803.644531 10.414062 804.035156 8.445312 804.816406 6.554688 C 805.597656 4.664062 806.710938 2.996094 808.15625 1.546875 C 809.601562 0.101562 811.269531 -1.011719 813.160156 -1.796875 C 815.046875 -2.578125 817.011719 -2.972656 819.058594 -2.972656 C 821.101562 -2.972656 823.066406 -2.578125 824.957031 -1.796875 C 826.84375 -1.011719 828.511719 0.101562 829.957031 1.546875 C 831.402344 2.996094 832.515625 4.664062 833.296875 6.554688 C 834.078125 8.445312 834.472656 10.414062 834.472656 12.460938 C 834.472656 14.507812 834.078125 16.472656 833.296875 18.363281 C 832.515625 20.253906 831.402344 21.925781 829.957031 23.371094 C 828.511719 24.816406 826.84375 25.933594 824.957031 26.714844 C 823.066406 27.5 821.101562 27.890625 819.058594 27.890625 C 817.011719 27.890625 815.046875 27.5 813.160156 26.714844 C 811.269531 25.933594 809.601562 24.816406 808.15625 23.371094 C 806.710938 21.925781 805.597656 20.253906 804.816406 18.363281 C 804.035156 16.472656 803.644531 14.507812 803.644531 12.460938 Z M 803.644531 12.460938 " clip-rule="nonzero"/>
        </clipPath>
        <clipPath id="700e2c071b">
            <path d="M 803.503906 7 L 834.503906 7 L 834.503906 27.960938 L 803.503906 27.960938 Z M 803.503906 7 " clip-rule="nonzero"/>
        </clipPath>
        <clipPath id="f3ff19c640">
            <path d="M 803.644531 12.460938 C 803.644531 10.414062 804.035156 8.445312 804.816406 6.554688 C 805.597656 4.664062 806.710938 2.996094 808.15625 1.546875 C 809.601562 0.101562 811.269531 -1.011719 813.160156 -1.796875 C 815.046875 -2.578125 817.011719 -2.972656 819.058594 -2.972656 C 821.101562 -2.972656 823.066406 -2.578125 824.957031 -1.796875 C 826.84375 -1.011719 828.511719 0.101562 829.957031 1.546875 C 831.402344 2.996094 832.515625 4.664062 833.296875 6.554688 C 834.078125 8.445312 834.472656 10.414062 834.472656 12.460938 C 834.472656 14.507812 834.078125 16.472656 833.296875 18.363281 C 832.515625 20.253906 831.402344 21.925781 829.957031 23.371094 C 828.511719 24.816406 826.84375 25.933594 824.957031 26.714844 C 823.066406 27.5 821.101562 27.890625 819.058594 27.890625 C 817.011719 27.890625 815.046875 27.5 813.160156 26.714844 C 811.269531 25.933594 809.601562 24.816406 808.15625 23.371094 C 806.710938 21.925781 805.597656 20.253906 804.816406 18.363281 C 804.035156 16.472656 803.644531 14.507812 803.644531 12.460938 Z M 803.644531 12.460938 " clip-rule="nonzero"/>
        </clipPath>
        <clipPath id="d5b33aeec4">
            <path d="M 803.503906 9 L 834.503906 9 L 834.503906 27.960938 L 803.503906 27.960938 Z M 803.503906 9 " clip-rule="nonzero"/>
        </clipPath>
        <clipPath id="80db0f7a6e">
            <path d="M 803.644531 12.460938 C 803.644531 10.414062 804.035156 8.445312 804.816406 6.554688 C 805.597656 4.664062 806.710938 2.996094 808.15625 1.546875 C 809.601562 0.101562 811.269531 -1.011719 813.160156 -1.796875 C 815.046875 -2.578125 817.011719 -2.972656 819.058594 -2.972656 C 821.101562 -2.972656 823.066406 -2.578125 824.957031 -1.796875 C 826.84375 -1.011719 828.511719 0.101562 829.957031 1.546875 C 831.402344 2.996094 832.515625 4.664062 833.296875 6.554688 C 834.078125 8.445312 834.472656 10.414062 834.472656 12.460938 C 834.472656 14.507812 834.078125 16.472656 833.296875 18.363281 C 832.515625 20.253906 831.402344 21.925781 829.957031 23.371094 C 828.511719 24.816406 826.84375 25.933594 824.957031 26.714844 C 823.066406 27.5 821.101562 27.890625 819.058594 27.890625 C 817.011719 27.890625 815.046875 27.5 813.160156 26.714844 C 811.269531 25.933594 809.601562 24.816406 808.15625 23.371094 C 806.710938 21.925781 805.597656 20.253906 804.816406 18.363281 C 804.035156 16.472656 803.644531 14.507812 803.644531 12.460938 Z M 803.644531 12.460938 " clip-rule="nonzero"/>
        </clipPath>
        <clipPath id="8248e81c11">
            <path d="M 803.503906 10 L 834.503906 10 L 834.503906 27.960938 L 803.503906 27.960938 Z M 803.503906 10 " clip-rule="nonzero"/>
        </clipPath>
        <clipPath id="5df029f96a">
            <path d="M 803.644531 12.460938 C 803.644531 10.414062 804.035156 8.445312 804.816406 6.554688 C 805.597656 4.664062 806.710938 2.996094 808.15625 1.546875 C 809.601562 0.101562 811.269531 -1.011719 813.160156 -1.796875 C 815.046875 -2.578125 817.011719 -2.972656 819.058594 -2.972656 C 821.101562 -2.972656 823.066406 -2.578125 824.957031 -1.796875 C 826.84375 -1.011719 828.511719 0.101562 829.957031 1.546875 C 831.402344 2.996094 832.515625 4.664062 833.296875 6.554688 C 834.078125 8.445312 834.472656 10.414062 834.472656 12.460938 C 834.472656 14.507812 834.078125 16.472656 833.296875 18.363281 C 832.515625 20.253906 831.402344 21.925781 829.957031 23.371094 C 828.511719 24.816406 826.84375 25.933594 824.957031 26.714844 C 823.066406 27.5 821.101562 27.890625 819.058594 27.890625 C 817.011719 27.890625 815.046875 27.5 813.160156 26.714844 C 811.269531 25.933594 809.601562 24.816406 808.15625 23.371094 C 806.710938 21.925781 805.597656 20.253906 804.816406 18.363281 C 804.035156 16.472656 803.644531 14.507812 803.644531 12.460938 Z M 803.644531 12.460938 " clip-rule="nonzero"/>
        </clipPath>
        <clipPath id="d7a8c4f0f3">
            <path d="M 803.503906 12 L 834 12 L 834 27.960938 L 803.503906 27.960938 Z M 803.503906 12 " clip-rule="nonzero"/>
        </clipPath>
        <clipPath id="e781db84fe">
            <path d="M 803.644531 12.460938 C 803.644531 10.414062 804.035156 8.445312 804.816406 6.554688 C 805.597656 4.664062 806.710938 2.996094 808.15625 1.546875 C 809.601562 0.101562 811.269531 -1.011719 813.160156 -1.796875 C 815.046875 -2.578125 817.011719 -2.972656 819.058594 -2.972656 C 821.101562 -2.972656 823.066406 -2.578125 824.957031 -1.796875 C 826.84375 -1.011719 828.511719 0.101562 829.957031 1.546875 C 831.402344 2.996094 832.515625 4.664062 833.296875 6.554688 C 834.078125 8.445312 834.472656 10.414062 834.472656 12.460938 C 834.472656 14.507812 834.078125 16.472656 833.296875 18.363281 C 832.515625 20.253906 831.402344 21.925781 829.957031 23.371094 C 828.511719 24.816406 826.84375 25.933594 824.957031 26.714844 C 823.066406 27.5 821.101562 27.890625 819.058594 27.890625 C 817.011719 27.890625 815.046875 27.5 813.160156 26.714844 C 811.269531 25.933594 809.601562 24.816406 808.15625 23.371094 C 806.710938 21.925781 805.597656 20.253906 804.816406 18.363281 C 804.035156 16.472656 803.644531 14.507812 803.644531 12.460938 Z M 803.644531 12.460938 " clip-rule="nonzero"/>
        </clipPath>
        <clipPath id="4b5cce1891">
            <path d="M 67 0.0234375 L 355 0.0234375 L 355 147 L 67 147 Z M 67 0.0234375 " clip-rule="nonzero"/>
        </clipPath>
        <clipPath id="2f50602cac">
            <path d="M 312.414062 -95.761719 L 366.867188 90.675781 L 91.894531 170.988281 L 37.4375 -15.445312 Z M 312.414062 -95.761719 " clip-rule="nonzero"/>
        </clipPath>
        <clipPath id="3d28fab0ce">
            <path d="M 312.414062 -95.761719 L 366.867188 90.675781 L 91.894531 170.988281 L 37.4375 -15.445312 Z M 312.414062 -95.761719 " clip-rule="nonzero"/>
        </clipPath>
        <clipPath id="b0a12e8803">
            <path d="M 5 0.0234375 L 294 0.0234375 L 294 126 L 5 126 Z M 5 0.0234375 " clip-rule="nonzero"/>
        </clipPath>
        <clipPath id="99d5ed53df">
            <path d="M 251.015625 -116.535156 L 305.472656 69.902344 L 30.496094 150.214844 L -23.957031 -36.222656 Z M 251.015625 -116.535156 " clip-rule="nonzero"/>
        </clipPath>
        <clipPath id="2df484be2a">
            <path d="M 251.015625 -116.535156 L 305.472656 69.902344 L 30.496094 150.214844 L -23.957031 -36.222656 Z M 251.015625 -116.535156 " clip-rule="nonzero"/>
        </clipPath>
    </defs>
    <g clip-path="url(#7b324be887)">
        <path fill="#00bf63" d="M 975.042969 49.253906 L 865.933594 49.253906 C 865.078125 49.253906 864.222656 49.210938 863.367188 49.125 C 862.515625 49.042969 861.667969 48.917969 860.828125 48.75 C 859.988281 48.582031 859.15625 48.375 858.335938 48.128906 C 857.515625 47.878906 856.710938 47.59375 855.917969 47.265625 C 855.125 46.9375 854.351562 46.570312 853.597656 46.167969 C 852.839844 45.765625 852.105469 45.328125 851.394531 44.851562 C 850.679688 44.375 849.992188 43.867188 849.332031 43.324219 C 848.667969 42.78125 848.035156 42.210938 847.429688 41.605469 C 846.820312 41 846.246094 40.367188 845.703125 39.707031 C 845.160156 39.042969 844.648438 38.359375 844.171875 37.648438 C 843.699219 36.9375 843.257812 36.203125 842.851562 35.449219 C 842.449219 34.695312 842.082031 33.921875 841.753906 33.132812 C 841.425781 32.34375 841.136719 31.539062 840.890625 30.71875 C 840.640625 29.902344 840.433594 29.074219 840.265625 28.234375 C 840.097656 27.394531 839.972656 26.550781 839.890625 25.699219 C 839.804688 24.847656 839.761719 23.996094 839.761719 23.140625 C 839.761719 22.285156 839.804688 21.433594 839.890625 20.582031 C 839.972656 19.730469 840.097656 18.886719 840.265625 18.046875 C 840.433594 17.207031 840.640625 16.378906 840.890625 15.5625 C 841.136719 14.742188 841.425781 13.9375 841.753906 13.148438 C 842.082031 12.359375 842.449219 11.585938 842.851562 10.832031 C 843.257812 10.078125 843.695312 9.34375 844.171875 8.632812 C 844.648438 7.921875 845.160156 7.238281 845.703125 6.574219 C 846.246094 5.914062 846.820312 5.28125 847.429688 4.675781 C 848.035156 4.070312 848.667969 3.5 849.332031 2.957031 C 849.992188 2.414062 850.679688 1.90625 851.394531 1.429688 C 852.105469 0.953125 852.839844 0.515625 853.597656 0.113281 C 854.351562 -0.289062 855.125 -0.65625 855.917969 -0.984375 C 856.710938 -1.3125 857.515625 -1.597656 858.335938 -1.847656 C 859.15625 -2.09375 859.988281 -2.300781 860.828125 -2.46875 C 861.667969 -2.636719 862.515625 -2.761719 863.367188 -2.84375 C 864.222656 -2.929688 865.078125 -2.972656 865.933594 -2.972656 L 975.042969 -2.972656 Z M 975.042969 49.253906 " fill-opacity="1" fill-rule="nonzero"/>
    </g>
    <g clip-path="url(#12098445cd)">
        <path fill="#000000" d="M 943.089844 48.226562 C 943.089844 49.203125 943.042969 50.175781 942.945312 51.148438 C 942.851562 52.121094 942.707031 53.082031 942.515625 54.042969 C 942.324219 55 942.085938 55.945312 941.804688 56.878906 C 941.519531 57.8125 941.191406 58.730469 940.816406 59.632812 C 940.441406 60.535156 940.023438 61.414062 939.5625 62.277344 C 939.101562 63.136719 938.597656 63.972656 938.054688 64.785156 C 937.511719 65.597656 936.929688 66.378906 936.308594 67.136719 C 935.6875 67.890625 935.03125 68.613281 934.339844 69.300781 C 933.648438 69.992188 932.925781 70.648438 932.167969 71.265625 C 931.410156 71.886719 930.625 72.464844 929.8125 73.007812 C 929 73.550781 928.160156 74.050781 927.296875 74.511719 C 926.4375 74.972656 925.550781 75.390625 924.648438 75.761719 C 923.746094 76.136719 922.824219 76.464844 921.886719 76.75 C 920.953125 77.03125 920.003906 77.269531 919.042969 77.460938 C 918.085938 77.648438 917.117188 77.792969 916.144531 77.886719 C 915.171875 77.984375 914.195312 78.03125 913.214844 78.03125 C 912.238281 78.03125 911.261719 77.984375 910.289062 77.886719 C 909.316406 77.792969 908.347656 77.648438 907.386719 77.460938 C 906.429688 77.269531 905.480469 77.03125 904.542969 76.75 C 903.609375 76.464844 902.6875 76.136719 901.785156 75.761719 C 900.878906 75.390625 899.996094 74.972656 899.132812 74.511719 C 898.273438 74.050781 897.433594 73.550781 896.621094 73.007812 C 895.804688 72.464844 895.023438 71.886719 894.265625 71.265625 C 893.507812 70.648438 892.785156 69.992188 892.09375 69.300781 C 891.402344 68.613281 890.746094 67.890625 890.125 67.136719 C 889.503906 66.378906 888.921875 65.597656 888.378906 64.785156 C 887.835938 63.972656 887.332031 63.136719 886.871094 62.277344 C 886.410156 61.414062 885.992188 60.535156 885.617188 59.632812 C 885.242188 58.730469 884.914062 57.8125 884.628906 56.878906 C 884.347656 55.945312 884.109375 55 883.917969 54.042969 C 883.726562 53.082031 883.582031 52.121094 883.488281 51.148438 C 883.390625 50.175781 883.34375 49.203125 883.34375 48.226562 C 883.34375 47.25 883.390625 46.277344 883.488281 45.304688 C 883.582031 44.332031 883.726562 43.367188 883.917969 42.410156 C 884.109375 41.453125 884.347656 40.507812 884.628906 39.574219 C 884.914062 38.640625 885.242188 37.722656 885.617188 36.820312 C 885.992188 35.917969 886.410156 35.035156 886.871094 34.175781 C 887.332031 33.316406 887.835938 32.480469 888.378906 31.667969 C 888.921875 30.855469 889.503906 30.074219 890.125 29.316406 C 890.746094 28.5625 891.402344 27.839844 892.09375 27.152344 C 892.785156 26.460938 893.507812 25.804688 894.265625 25.1875 C 895.023438 24.566406 895.804688 23.988281 896.621094 23.445312 C 897.433594 22.902344 898.273438 22.402344 899.132812 21.941406 C 899.996094 21.480469 900.878906 21.0625 901.785156 20.691406 C 902.6875 20.316406 903.609375 19.988281 904.542969 19.703125 C 905.480469 19.421875 906.429688 19.183594 907.386719 18.992188 C 908.347656 18.804688 909.316406 18.660156 910.289062 18.5625 C 911.261719 18.46875 912.238281 18.421875 913.214844 18.421875 C 914.195312 18.421875 915.171875 18.46875 916.144531 18.5625 C 917.117188 18.660156 918.085938 18.804688 919.042969 18.992188 C 920.003906 19.183594 920.953125 19.421875 921.886719 19.703125 C 922.824219 19.988281 923.746094 20.316406 924.648438 20.691406 C 925.550781 21.0625 926.4375 21.480469 927.296875 21.941406 C 928.160156 22.402344 929 22.902344 929.8125 23.445312 C 930.625 23.988281 931.410156 24.566406 932.167969 25.1875 C 932.925781 25.804688 933.648438 26.460938 934.339844 27.152344 C 935.03125 27.839844 935.6875 28.5625 936.308594 29.316406 C 936.929688 30.074219 937.511719 30.855469 938.054688 31.667969 C 938.597656 32.480469 939.101562 33.316406 939.5625 34.175781 C 940.023438 35.035156 940.441406 35.917969 940.816406 36.820312 C 941.191406 37.722656 941.519531 38.640625 941.804688 39.574219 C 942.085938 40.507812 942.324219 41.453125 942.515625 42.410156 C 942.707031 43.367188 942.851562 44.332031 942.945312 45.304688 C 943.042969 46.277344 943.089844 47.25 943.089844 48.226562 Z M 943.089844 48.226562 " fill-opacity="1" fill-rule="nonzero"/>
    </g>
    <g clip-path="url(#a9152c449d)">
        <g clip-path="url(#d382564971)">
            <path fill="#000000" d="M 850.074219 11.832031 L 802.929688 -12.003906 L 803.207031 -12.558594 L 850.355469 11.277344 Z M 850.074219 11.832031 " fill-opacity="1" fill-rule="nonzero"/>
        </g>
    </g>
    <g clip-path="url(#f8dd9dc719)">
        <g clip-path="url(#d273ad92e2)">
            <path fill="#000000" d="M 849.050781 13.394531 L 801.90625 -10.441406 L 802.183594 -10.992188 L 849.332031 12.84375 Z M 849.050781 13.394531 " fill-opacity="1" fill-rule="nonzero"/>
        </g>
    </g>
    <g clip-path="url(#90c1f139d8)">
        <g clip-path="url(#21cbbdfb36)">
            <path fill="#000000" d="M 848.027344 14.960938 L 800.882812 -8.878906 L 801.160156 -9.433594 L 848.308594 14.40625 Z M 848.027344 14.960938 " fill-opacity="1" fill-rule="nonzero"/>
        </g>
    </g>
    <g clip-path="url(#47726fb8c0)">
        <g clip-path="url(#bb98c25cad)">
            <path fill="#000000" d="M 847.007812 16.519531 L 799.859375 -7.316406 L 800.136719 -7.867188 L 847.285156 15.972656 Z M 847.007812 16.519531 " fill-opacity="1" fill-rule="nonzero"/>
        </g>
    </g>
    <g clip-path="url(#f7810f2a8a)">
        <g clip-path="url(#9060aeddd3)">
            <path fill="#000000" d="M 845.984375 18.085938 L 798.835938 -5.75 L 799.113281 -6.304688 L 846.261719 17.53125 Z M 845.984375 18.085938 " fill-opacity="1" fill-rule="nonzero"/>
        </g>
    </g>
    <g clip-path="url(#50aa23c644)">
        <g clip-path="url(#46c46bffb1)">
            <path fill="#000000" d="M 844.960938 19.648438 L 797.8125 -4.191406 L 798.085938 -4.738281 L 845.238281 19.097656 Z M 844.960938 19.648438 " fill-opacity="1" fill-rule="nonzero"/>
        </g>
    </g>
    <g clip-path="url(#fe24d6f5ad)">
        <g clip-path="url(#5c79e478de)">
            <path fill="#000000" d="M 843.9375 21.214844 L 796.789062 -2.625 L 797.066406 -3.179688 L 844.210938 20.664062 Z M 843.9375 21.214844 " fill-opacity="1" fill-rule="nonzero"/>
        </g>
    </g>
    <g clip-path="url(#009fcaad73)">
        <g clip-path="url(#e35fa051ea)">
            <path fill="#000000" d="M 842.914062 22.773438 L 795.761719 -1.0625 L 796.039062 -1.613281 L 843.1875 22.222656 Z M 842.914062 22.773438 " fill-opacity="1" fill-rule="nonzero"/>
        </g>
    </g>
    <g clip-path="url(#fed3b1ed1b)">
        <g clip-path="url(#acaa00b6ae)">
            <path fill="#000000" d="M 841.886719 24.339844 L 794.738281 0.503906 L 795.019531 -0.046875 L 842.164062 23.789062 Z M 841.886719 24.339844 " fill-opacity="1" fill-rule="nonzero"/>
        </g>
    </g>
    <g clip-path="url(#37acda7127)">
        <g clip-path="url(#2ff15f1066)">
            <path fill="#000000" d="M 840.863281 25.902344 L 793.714844 2.0625 L 793.996094 1.515625 L 841.140625 25.351562 Z M 840.863281 25.902344 " fill-opacity="1" fill-rule="nonzero"/>
        </g>
    </g>
    <g clip-path="url(#06df2a3fa8)">
        <g clip-path="url(#03861efa59)">
            <path fill="#000000" d="M 839.839844 27.46875 L 792.691406 3.628906 L 792.972656 3.078125 L 840.121094 26.917969 Z M 839.839844 27.46875 " fill-opacity="1" fill-rule="nonzero"/>
        </g>
    </g>
    <g clip-path="url(#72f40cc21e)">
        <g clip-path="url(#f962d1eb7f)">
            <path fill="#000000" d="M 838.816406 29.027344 L 791.671875 5.191406 L 791.949219 4.640625 L 839.097656 28.476562 Z M 838.816406 29.027344 " fill-opacity="1" fill-rule="nonzero"/>
        </g>
    </g>
    <g clip-path="url(#4b69436b3e)">
        <g clip-path="url(#e0479af62b)">
            <path fill="#000000" d="M 837.792969 30.59375 L 790.648438 6.757812 L 790.925781 6.207031 L 838.074219 30.042969 Z M 837.792969 30.59375 " fill-opacity="1" fill-rule="nonzero"/>
        </g>
    </g>
    <g clip-path="url(#700e2c071b)">
        <g clip-path="url(#f3ff19c640)">
            <path fill="#000000" d="M 836.769531 32.15625 L 789.625 8.316406 L 789.902344 7.769531 L 837.050781 31.605469 Z M 836.769531 32.15625 " fill-opacity="1" fill-rule="nonzero"/>
        </g>
    </g>
    <g clip-path="url(#d5b33aeec4)">
        <g clip-path="url(#80db0f7a6e)">
            <path fill="#000000" d="M 835.75 33.71875 L 788.601562 9.882812 L 788.878906 9.332031 L 836.027344 33.171875 Z M 835.75 33.71875 " fill-opacity="1" fill-rule="nonzero"/>
        </g>
    </g>
    <g clip-path="url(#8248e81c11)">
        <g clip-path="url(#5df029f96a)">
            <path fill="#000000" d="M 834.726562 35.28125 L 787.578125 11.445312 L 787.851562 10.894531 L 835.003906 34.730469 Z M 834.726562 35.28125 " fill-opacity="1" fill-rule="nonzero"/>
        </g>
    </g>
    <g clip-path="url(#d7a8c4f0f3)">
        <g clip-path="url(#e781db84fe)">
            <path fill="#000000" d="M 833.703125 36.847656 L 786.554688 13.007812 L 786.828125 12.460938 L 833.976562 36.296875 Z M 833.703125 36.847656 " fill-opacity="1" fill-rule="nonzero"/>
        </g>
    </g>
    <g clip-path="url(#4b5cce1891)">
        <g clip-path="url(#2f50602cac)">
            <g clip-path="url(#3d28fab0ce)">
                <path fill="#000000" d="M 354.265625 63.5 C 343.738281 97.433594 318.238281 97.503906 290.480469 97.808594 C 280.015625 97.839844 270.542969 95.289062 261.824219 98.222656 C 251.859375 101.5625 243.195312 109.875 234.726562 116.074219 C 220.085938 126.753906 197.597656 139.261719 179.867188 143.898438 C 171.644531 146.027344 161.183594 146.328125 152.175781 146.164062 C 137.546875 145.738281 119.019531 138.339844 108.242188 131.050781 C 101.976562 126.863281 95.746094 123.984375 91.105469 118.859375 C 69.589844 94.59375 65.679688 58.359375 67.9375 21.484375 C 68.320312 15.085938 70.777344 5.710938 73.542969 0.828125 L 75.535156 -5.496094 C 79.5625 -12.417969 85.085938 -18.339844 91.710938 -22.875 C 112.960938 -37.503906 154.203125 -20.324219 183.628906 -20.765625 C 194.757812 -20.910156 205.410156 -23.867188 214.964844 -27.28125 C 224.484375 -30.679688 231.929688 -37.980469 243.644531 -37.714844 C 260.46875 -37.347656 278.730469 -21.957031 288.214844 -14.710938 C 298.167969 -7.0625 307.179688 0.554688 315.984375 7.722656 L 328.925781 13.261719 C 334.726562 17.582031 342.996094 27.703125 347.3125 33.585938 C 351.101562 39.117188 353.644531 45.4375 354.695312 52.078125 C 355.085938 55.808594 353.253906 60.03125 354.265625 63.5 " fill-opacity="1" fill-rule="nonzero"/>
            </g>
        </g>
    </g>
    <g clip-path="url(#b0a12e8803)">
        <g clip-path="url(#99d5ed53df)">
            <g clip-path="url(#2df484be2a)">
                <path fill="#00bf63" d="M 292.867188 42.722656 C 282.339844 76.65625 256.839844 76.730469 229.082031 77.035156 C 218.617188 77.066406 209.148438 74.515625 200.425781 77.449219 C 190.460938 80.785156 181.796875 89.101562 173.328125 95.300781 C 158.6875 105.980469 136.199219 118.488281 118.46875 123.121094 C 110.25 125.253906 99.785156 125.550781 90.777344 125.386719 C 76.148438 124.964844 57.621094 117.566406 46.84375 110.273438 C 40.578125 106.089844 34.347656 103.210938 29.707031 98.085938 C 8.191406 73.820312 4.28125 37.585938 6.542969 0.710938 C 6.921875 -5.6875 9.382812 -15.0625 12.144531 -19.945312 L 14.136719 -26.269531 C 18.164062 -33.191406 23.6875 -39.113281 30.3125 -43.648438 C 51.5625 -58.277344 92.804688 -41.097656 122.230469 -41.539062 C 133.359375 -41.6875 144.015625 -44.644531 153.566406 -48.054688 C 163.085938 -51.453125 170.53125 -58.753906 182.246094 -58.488281 C 199.070312 -58.121094 217.332031 -42.730469 226.816406 -35.488281 C 236.769531 -27.835938 245.78125 -20.222656 254.585938 -13.050781 L 267.527344 -7.515625 C 273.328125 -3.191406 281.597656 6.929688 285.914062 12.8125 C 289.703125 18.34375 292.246094 24.664062 293.296875 31.304688 C 293.6875 35.035156 291.855469 39.253906 292.867188 42.722656 " fill-opacity="1" fill-rule="nonzero"/>
            </g>
        </g>
    </g>
</svg>
