<svg xmlns="http://www.w3.org/2000/svg" width="500" viewBox="0 0 375 375" height="500" version="1.0">
    <path fill="#39b54a" d="M174.79 291.96c-7.837-18.022-19.474-53.108-8.04-90.573 18.754-61.469 92.34-105.547 180.898-99.836 11.758 74.992-17.222 145.242-71.824 176.59-36.785 21.113-74.887 18.652-92.933 16.136a442.197 442.197 0 0 0 59.949-54.754c32.004-35.144 53.363-70.015 67.5-97.84a907.092 907.092 0 0 1-73.875 90.16 907.99 907.99 0 0 1-61.676 60.118Zm-23.61 1.958c-13.82 4.176-40.418 9.672-66.785-1.856-43.258-18.91-69.153-76.324-57.442-140.41 55.73-2.183 104.527 24.934 122.75 67.418 12.274 28.621 7.23 56.192 3.856 69.137a324.693 324.693 0 0 0-34.852-48.379c-22.918-26.324-46.543-44.875-65.644-57.555a667.133 667.133 0 0 1 59.503 61.551 667.806 667.806 0 0 1 38.614 50.094Zm0 0"/>
</svg>
