<svg xmlns="http://www.w3.org/2000/svg" width="500" height="500" version="1.0" viewBox="0 0 375 375"><defs><clipPath id="a"><path d="M124 9.617h32V72h-32Zm0 0"/></clipPath><clipPath id="b"><path d="M101.973 297.84H109V307h-7.027Zm0 0"/></clipPath><clipPath id="c"><path d="M111 318h22.473v6.09H111Zm0 0"/></clipPath><clipPath id="d"><path d="M269 297.84h6.84V307H269Zm0 0"/></clipPath><clipPath id="e"><path d="M244.598 318H267v6.09h-22.402Zm0 0"/></clipPath></defs><path fill="#fff" d="M-37.5-37.5h450v450h-450z"/><path fill="#fff" d="M-37.5-37.5h450v450h-450z"/><path d="M-37.5-37.5h450v450h-450z"/><g clip-path="url(#a)"><path fill="#00bf63" d="M143.762 31.348s-1.649 24.468-12.336 35.601c-13.106-13.332-5.797-32.926 3.094-45.3 4.609-6.419 11.16-12.04 11.16-12.04s28.078 51.707-8.559 61.758c0 0 11.879-15.351 6.64-40.02"/></g><path fill="#00bf63" d="M267.855 147.379c3.602 41.777-27.359 78.566-69.156 82.172-41.793 3.601-78.601-27.344-82.203-69.125-1.086-12.602.977-24.746 5.524-35.664-6.762 12.976-10.032 27.965-8.684 43.62 3.789 43.888 42.45 76.395 86.352 72.61 43.906-3.785 76.425-42.43 72.636-86.312-1.347-15.66-7.14-29.868-16.023-41.493 6.351 9.977 10.465 21.59 11.554 34.192"/><path fill="#00bf63" d="M96.938 175.477c-7.094-49.02 26.906-94.516 75.949-101.61 8.02-1.16 29.086-3.043 44.968 9.68-23.843-9.836-53.773-1.754-59.433.039 5.93 22.547 38.918 23.945 57.898 22.86 22.871-1.31 32.848 6.742 32.848 6.742s-4.504-34.75-37.469-49c-29.031-12.551-48.418 6.5-48.418 6.5-51.511 7.453-87.23 55.238-79.773 106.734 7.453 51.492 55.258 87.195 106.773 79.742 18.375-2.656 34.742-10.45 47.852-21.71-11.336 8.167-24.754 13.804-39.547 15.944-49.043 7.09-94.547-26.898-101.649-75.921"/><path fill="#fff" d="M144.905 303.743c-.648-1.175-1.531-2.07-2.656-2.687-1.117-.613-2.418-.922-3.906-.922-1.657 0-3.125.375-4.407 1.125-1.28.75-2.28 1.82-3 3.203-.718 1.387-1.078 2.985-1.078 4.797 0 1.867.364 3.492 1.094 4.875.738 1.387 1.758 2.453 3.063 3.203 1.312.75 2.832 1.125 4.562 1.125 2.133 0 3.879-.566 5.234-1.703 1.364-1.133 2.258-2.71 2.688-4.734h-9.594v-4.282h15.11v4.875c-.368 1.95-1.165 3.75-2.391 5.407-1.23 1.648-2.813 2.968-4.75 3.968-1.93 1-4.09 1.5-6.485 1.5-2.699 0-5.136-.601-7.312-1.812a13.309 13.309 0 0 1-5.11-5.063c-1.241-2.156-1.858-4.609-1.858-7.359s.617-5.207 1.86-7.375a13.163 13.163 0 0 1 5.109-5.078c2.176-1.219 4.598-1.828 7.266-1.828 3.144 0 5.875.765 8.187 2.297 2.32 1.53 3.926 3.687 4.813 6.468Zm25.671 19.516-6.156-10.875h-2.64v10.875h-5.595v-27.922h10.468c2.164 0 4.008.383 5.532 1.14 1.52.762 2.656 1.79 3.406 3.079.758 1.293 1.14 2.742 1.14 4.344 0 1.843-.53 3.507-1.593 4.984-1.063 1.48-2.653 2.5-4.766 3.063l6.689 11.312Zm-8.796-15.078h4.688c1.508 0 2.64-.363 3.39-1.094.75-.738 1.125-1.758 1.125-3.062 0-1.282-.375-2.274-1.125-2.985-.75-.707-1.882-1.062-3.39-1.062h-4.689Zm25.637-8.328v7h9.406v4.453h-9.407v7.39h10.594v4.563h-16.187v-27.953h16.187v4.547Zm21.278 0v7h9.406v4.453h-9.407v7.39h10.594v4.563h-16.187v-27.953h16.187v4.547Zm39.558 23.406h-5.593l-12.688-19.156v19.156h-5.593v-27.953h5.593l12.688 19.187v-19.187h5.594Zm0 0"/><path fill="#00bf63" d="M108.316 314.762c-.84-4.739 1.157-9.703 4.582-11.957 1.836-1.078 3.778-1.227 3.778-1.227-3.102 1.04-4.801 2.832-5.446 3.649 3.028 1.988 4.922-.602 6.473-2.602.906-1.172 2.297-1.938 2.297-1.938s-7.96-2.187-9.156 3.079c-3.082 2.406-4.817 7.082-4.024 11.558.965 5.41 5.262 8.473 9.598 6.844.254-.094.5-.203.742-.324-4.07 1.027-7.937-1.989-8.844-7.082"/><path fill="#00bf63" d="M108.945 310.68c2.395-2.598 6.43-2.25 6.43-2.25-3.23.523-5.203 2.015-5.973 2.715 2.664 2.457 4.957.207 6.817-1.516 1.086-1.008 2.582-1.54 2.582-1.54s-8.457-3.894-9.856 2.59"/><g clip-path="url(#b)"><path fill="#00bf63" d="M108.125 305.93c-.266-3.516-3.66-5.72-3.66-5.72 2.219 2.395 2.836 4.782 3.008 5.802-3.621.297-4.024-2.883-4.414-5.375-.227-1.461-1.075-2.797-1.075-2.797s9.07 2.133 6.141 8.09"/></g><g clip-path="url(#c)"><path fill="#00bf63" d="M133.46 324.09s-2.194-4.297-8.046-4.434c-3.828-.09-7.43 2.016-10.762 1.38-3.242-.622-3.648-3.024-3.648-3.024 3.996 4.914 9.394-.07 15.148.543 2.98.32 6.5 1.894 7.309 5.535"/></g><path fill="#00bf63" d="M113.824 318.945c3.36.352 6.684-2.078 10.473-2.32 3.355-.215 5.648 1.082 6.98 2.207-1.37-.95-3.41-1.824-6.195-1.676-3.793.211-7.148 2.606-10.508 2.227-1.066-.125-1.855-.461-2.426-.86.461.2 1.016.352 1.676.422m155.668-4.183c.844-4.739-1.156-9.703-4.578-11.957-1.836-1.078-3.777-1.227-3.777-1.227 3.101 1.04 4.8 2.832 5.445 3.649-3.031 1.988-4.926-.602-6.473-2.602-.91-1.172-2.296-1.938-2.296-1.938s7.957-2.187 9.156 3.079c3.078 2.406 4.816 7.082 4.02 11.558-.962 5.41-5.259 8.473-9.598 6.844a7.697 7.697 0 0 1-.739-.324c4.07 1.027 7.934-1.989 8.84-7.082"/><path fill="#00bf63" d="M268.867 310.68c-2.394-2.598-6.433-2.25-6.433-2.25 3.234.523 5.203 2.015 5.972 2.715-2.66 2.457-4.957.207-6.812-1.516-1.09-1.008-2.586-1.54-2.586-1.54s8.457-3.894 9.86 2.59"/><g clip-path="url(#d)"><path fill="#00bf63" d="M269.688 305.93c.265-3.516 3.656-5.72 3.656-5.72-2.215 2.395-2.836 4.782-3.008 5.802 3.621.297 4.027-2.883 4.414-5.375.23-1.461 1.078-2.797 1.078-2.797s-9.074 2.133-6.14 8.09"/></g><g clip-path="url(#e)"><path fill="#00bf63" d="M244.352 324.09s2.191-4.297 8.046-4.434c3.829-.09 7.426 2.016 10.762 1.38 3.242-.622 3.645-3.024 3.645-3.024-3.996 4.914-9.39-.07-15.149.543-2.976.32-6.5 1.894-7.304 5.535"/></g><path fill="#00bf63" d="M263.988 318.945c-3.36.352-6.687-2.078-10.476-2.32-3.356-.215-5.645 1.082-6.98 2.207 1.37-.95 3.41-1.824 6.195-1.676 3.793.211 7.152 2.606 10.507 2.227 1.07-.125 1.856-.461 2.43-.86a5.77 5.77 0 0 1-1.676.422"/><path fill="#39b54a" d="M187.313 203.488c-2.645-6.117-6.575-18.023-2.715-30.734 6.332-20.86 31.183-35.816 61.09-33.879 3.972 25.445-5.817 49.285-24.254 59.922-12.422 7.168-25.29 6.332-31.383 5.476a149.545 149.545 0 0 0 20.242-18.578 150.612 150.612 0 0 0 22.797-33.203 307.238 307.238 0 0 1-45.777 50.996Zm-7.973.664c-4.668 1.418-13.649 3.286-22.555-.629-14.61-6.418-23.351-25.898-19.398-47.648 18.82-.742 35.3 8.46 41.453 22.879 4.144 9.71 2.441 19.07 1.305 23.46a110.15 110.15 0 0 0-11.77-16.417 110.361 110.361 0 0 0-22.172-19.531 226.777 226.777 0 0 1 20.098 20.886 226.152 226.152 0 0 1 13.039 17Zm0 0"/></svg>